<svg width="113" height="28" viewBox="0 0 113 28" fill="none"
  xmlns="http://www.w3.org/2000/svg">
  <g clip-path="url(#clip0_223_12777)">
    <path d="M11.3984 14.6536H16.6064L14.0024 7.49805L11.3984 14.6536Z" fill="#0A322A" />
    <path d="M14 0C11.2311 0 8.52431 0.821086 6.22202 2.35943C3.91974 3.89777 2.12532 6.08427 1.06569 8.64243C0.00606608 11.2006 -0.271181 14.0155 0.269012 16.7313C0.809205 19.447 2.14258 21.9416 4.10051 23.8995C6.05845 25.8574 8.55301 27.1908 11.2687 27.731C13.9845 28.2712 16.7994 27.9939 19.3576 26.9343C21.9157 25.8747 24.1022 24.0803 25.6406 21.778C27.1789 19.4757 28 16.7689 28 14C28 10.287 26.525 6.72602 23.8995 4.10051C21.274 1.475 17.713 0 14 0ZM22.5307 13.2067H18.5111L19.0369 14.6533H22.5307V16.94H19.8676L21.2925 20.8444H18.8596L17.4378 16.94H10.5778L9.14045 20.8444H6.70756L8.13245 16.9338H5.46934V14.6533H8.96312L9.49201 13.2067H5.46934V10.9231H10.3227L12.7773 4.17511C13.5897 4.0797 14.4104 4.0797 15.2227 4.17511L17.6773 10.9231H22.5307V13.2067Z" fill="#0A322A" />
    <path d="M46.4455 18.2057C45.5947 18.9719 44.4785 19.376 43.3344 19.3319C42.5456 19.3626 41.7722 19.1074 41.1566 18.6133C40.879 18.3895 40.6571 18.1046 40.5081 17.7807C40.3591 17.4569 40.2872 17.1029 40.2979 16.7466C40.2979 14.6725 42.0941 13.6355 45.6864 13.6355H46.4579C46.4713 13.1698 46.438 12.7039 46.3584 12.2448C46.3179 12.0895 46.246 11.9442 46.1469 11.8178C46.0479 11.6915 45.924 11.5869 45.7828 11.5106C45.3254 11.2893 44.8181 11.1917 44.3113 11.2275C42.8988 11.2275 42.1729 11.7315 42.1335 12.7395H40.553C40.6713 10.906 41.9541 9.98926 44.4015 9.98926C45.5433 9.98926 46.4361 10.2164 47.0739 10.6706C47.7117 11.1248 48.0321 12.0146 48.0321 13.343V19.1204H46.4517L46.4455 18.2057ZM46.4455 16.7777V14.8021H45.3628C43.0627 14.8021 41.9136 15.4244 41.9157 16.6688C41.9022 16.8744 41.9414 17.08 42.0296 17.2662C42.1178 17.4524 42.2521 17.613 42.4197 17.7328C42.8231 17.9974 43.3006 18.126 43.7824 18.0999C44.3079 18.0953 44.8252 17.9697 45.2944 17.7328C45.7552 17.521 46.1522 17.1916 46.4455 16.7777Z" fill="#0A322A" />
    <path d="M58.2906 19.1208H56.4021L53.5119 14.591L52.5195 15.5741V19.1208H50.9297V6.80078H52.5195V13.7852L55.9479 10.2043H57.9484L54.5697 13.5239L58.2906 19.1208Z" fill="#0A322A" />
    <path d="M66.0592 16.6322C65.6763 17.0935 65.1667 17.4325 64.5933 17.6076C64.0199 17.7826 63.4079 17.786 62.8326 17.6173C62.2573 17.4486 61.744 17.1152 61.356 16.6582C60.968 16.2012 60.7222 15.6406 60.649 15.0456H68.3459C68.3459 14.9211 68.3646 14.7967 68.3646 14.6691C68.3676 13.519 67.9458 12.4084 67.1802 11.5502C66.4145 10.692 65.3589 10.1467 64.2159 10.0191C63.073 9.89142 61.9231 10.1903 60.987 10.8584C60.0508 11.5265 59.3944 12.5168 59.1436 13.6392C58.8928 14.7616 59.0653 15.9371 59.628 16.9402C60.1907 17.9432 61.1039 18.7031 62.1925 19.0741C63.2812 19.4451 64.4684 19.401 65.5265 18.9504C66.5847 18.4997 67.4391 17.6742 67.9259 16.6322H66.0592ZM63.701 11.5922C64.3653 11.5923 65.0117 11.8075 65.5434 12.2058C66.0751 12.604 66.4634 13.1637 66.6504 13.8011H60.7392C60.9276 13.1622 61.3181 12.6015 61.8521 12.2033C62.3861 11.805 63.0349 11.5906 63.701 11.5922Z" fill="#0A322A" />
    <path d="M82.2462 19.1206H80.6596V13.3557C80.6596 12.6153 80.5559 12.0885 80.3485 11.7753C80.2257 11.6121 80.0631 11.4832 79.8763 11.401C79.6894 11.3187 79.4846 11.2858 79.2813 11.3055C78.5139 11.3055 77.761 11.7815 77.0227 12.7335V19.1206H75.4422V13.3557C75.4422 12.6153 75.3333 12.0895 75.1311 11.7753C75.0056 11.6097 74.8393 11.4794 74.6485 11.397C74.4577 11.3147 74.2488 11.2832 74.0422 11.3055C73.2769 11.3055 72.524 11.7815 71.7929 12.7335V19.1206H70.2031V10.2042H71.7929V11.3397C72.5437 10.45 73.3733 10.004 74.2818 10.002C75.5843 10.002 76.4139 10.5402 76.7707 11.6166C77.1786 11.0743 77.6932 10.6212 78.2827 10.2851C78.6643 10.1048 79.0802 10.0082 79.5022 10.002C81.3295 10.002 82.2421 11.0981 82.24 13.2904L82.2462 19.1206Z" fill="#0A322A" />
    <path d="M88.7057 10.002C87.7827 10.002 86.8805 10.2756 86.1131 10.7884C85.3456 11.3012 84.7475 12.03 84.3943 12.8828C84.0411 13.7355 83.9487 14.6738 84.1287 15.579C84.3088 16.4843 84.7533 17.3158 85.4059 17.9685C86.0585 18.6211 86.8901 19.0656 87.7953 19.2456C88.7005 19.4257 89.6389 19.3333 90.4916 18.9801C91.3443 18.6268 92.0731 18.0287 92.5859 17.2613C93.0987 16.4939 93.3724 15.5916 93.3724 14.6686C93.3724 13.4309 92.8807 12.244 92.0056 11.3688C91.1304 10.4936 89.9434 10.002 88.7057 10.002ZM88.7057 17.7424C88.0969 17.743 87.5016 17.563 86.9951 17.2251C86.4887 16.8873 86.0938 16.4068 85.8605 15.8444C85.6273 15.2821 85.5661 14.6631 85.6847 14.066C85.8033 13.4689 86.0964 12.9203 86.5269 12.4898C86.9574 12.0593 87.506 11.7662 88.1031 11.6476C88.7003 11.529 89.3192 11.5902 89.8815 11.8234C90.4439 12.0567 90.9244 12.4516 91.2623 12.958C91.6001 13.4645 91.7801 14.0598 91.7795 14.6686C91.777 15.4822 91.4521 16.2616 90.8759 16.8361C90.2998 17.4105 89.5193 17.7331 88.7057 17.7331V17.7424Z" fill="#0A322A" />
    <path d="M96.7952 11.3397C97.5854 10.45 98.4731 10.004 99.4583 10.002C101.472 10.002 102.478 11.0981 102.476 13.2904V19.1206H100.889V13.3557C100.889 12.6277 100.759 12.1092 100.497 11.8002C100.334 11.6279 100.134 11.4951 99.9121 11.4121C99.6899 11.3291 99.4517 11.2979 99.2157 11.3211C98.4088 11.3211 97.602 11.7971 96.7952 12.7491V19.1206H95.1992V10.2042H96.7859L96.7952 11.3397Z" fill="#0A322A" />
    <path d="M110.977 18.2057C110.126 18.9719 109.01 19.376 107.866 19.3319C107.077 19.3615 106.304 19.1064 105.688 18.6133C105.41 18.3895 105.188 18.1046 105.039 17.7807C104.89 17.4569 104.818 17.1029 104.829 16.7466C104.829 14.6725 106.625 13.6355 110.218 13.6355H110.989C111.004 13.1697 110.971 12.7037 110.89 12.2448C110.849 12.0895 110.777 11.9442 110.678 11.8178C110.579 11.6915 110.455 11.5869 110.314 11.5106C109.857 11.2893 109.349 11.1917 108.843 11.2275C107.43 11.2275 106.704 11.7315 106.665 12.7395H105.084C105.202 10.906 106.485 9.98926 108.933 9.98926C110.078 9.98926 110.968 10.2164 111.605 10.6706C112.242 11.1248 112.561 12.0156 112.563 13.343V19.1204H110.983L110.977 18.2057ZM110.977 16.7777V14.8021H109.894C107.598 14.8021 106.449 15.4244 106.447 16.6688C106.433 16.8744 106.473 17.08 106.561 17.2662C106.649 17.4524 106.783 17.613 106.951 17.7328C107.355 17.997 107.832 18.1256 108.314 18.0999C108.838 18.0948 109.354 17.9692 109.822 17.7328C110.285 17.5214 110.683 17.192 110.977 16.7777Z" fill="#0A322A" />
  </g>
  <defs>
    <clipPath id="clip0_223_12777">
      <rect width="112.557" height="28" fill="#0A322A" />
    </clipPath>
  </defs>
</svg>