<?xml version="1.0" encoding="UTF-8"?>
<svg xmlns="http://www.w3.org/2000/svg" version="1.1" viewBox="0 0 2600 2600">
  <!-- Generator: Adobe Illustrator 29.7.1, SVG Export Plug-In . SVG Version: 2.1.1 Build 8)  -->
  <defs>
    <style>
      .st0 {
        fill: #5293af;
      }

      .st1 {
        stroke: #304259;
        stroke-linecap: round;
        stroke-linejoin: round;
        stroke-width: 25px;
      }

      .st1, .st2 {
        fill: none;
      }

      .st3 {
        fill: #4c889e;
      }

      .st4 {
        fill: #f0515a;
      }

      .st5 {
        fill: #e64d5d;
      }

      .st6 {
        fill: #f4ca56;
      }

      .st7 {
        fill: #e0b751;
      }
    </style>
  </defs>
  <g id="Layer_1">
    <g>
      <path class="st4" d="M570.7,1028.4h652.1c131.1,0,237.4,106.3,237.4,237.4v315.1c0,131.1-106.3,237.4-237.4,237.4h-325.8l-161.6,177c-45.3,49.7-128,17.6-128-49.6v-127.3h-36.7c-131.1,0-237.4-106.3-237.4-237.4v-315.1c0-131.1,106.3-237.4,237.4-237.4Z"/>
      <path class="st5" d="M512.2,1811.3c-96.5-24.5-169.7-108.3-178.1-210.4,36,22.3,78.8,35.4,124.4,35.4h36.6v127.2c0,18.9,6.8,35.4,17.1,47.8Z"/>
      <path class="st5" d="M1460.1,1265.9v314.9c0,131.2-106.1,237.7-237.3,237.7h-325.8l-161.6,176.9c-45.3,49.6-127.8,17.7-127.8-49.6v-119.5c5.6-3.1,10.9-7.8,15.8-13l161.6-176.8h325.8c130.9,0,237.4-106.4,237.4-237.4v-315.2c0-6.8-.3-13.3-.9-19.9,67.9,41.6,112.9,116.3,112.9,202Z"/>
      <path class="st1" d="M570.7,1028.4h652.1c131.1,0,237.4,106.3,237.4,237.4v315.1c0,131.1-106.3,237.4-237.4,237.4h-325.8l-161.6,177c-45.3,49.7-128,17.6-128-49.6v-127.3h-36.7c-131.1,0-237.4-106.3-237.4-237.4v-315.1c0-131.1,106.3-237.4,237.4-237.4Z"/>
      <path class="st6" d="M1703.9,1178.4h412.6c83,0,150.2,67.3,150.2,150.2v217.8c0,83-67.3,150.2-150.2,150.2h-206.1l-102.2,112c-28.7,31.4-81,11.1-81-31.4v-80.6h-23.2c-83,0-150.2-67.3-150.2-150.2v-217.8c0-83,67.3-150.2,150.2-150.2Z"/>
      <path class="st7" d="M2266.7,1328.5v217.8c0,83.1-67.3,150.5-150.2,150.5h-206.3l-102.1,111.7c-28.9,31.6-81,11.2-81-31.3v-40.3c.6-.3.9-.9,1.2-1.2l102.1-112h206c83.1,0,150.5-67.3,150.5-150.2v-217.8c0-23.9-5.6-46.5-15.5-66.7,55.8,21.7,95.2,76.3,95.2,139.6Z"/>
      <path class="st1" d="M1703.9,1178.4h412.6c83,0,150.2,67.3,150.2,150.2v217.8c0,83-67.3,150.2-150.2,150.2h-206.1l-102.2,112c-28.7,31.4-81,11.1-81-31.4v-80.6h-23.2c-83,0-150.2-67.3-150.2-150.2v-217.8c0-83,67.3-150.2,150.2-150.2Z"/>
      <path class="st0" d="M1632.1,562.6h-707.2c-142.2,0-257.5,115.3-257.5,257.5v373.4c0,142.2,115.3,257.5,257.5,257.5h353.3l175.3,192c49.2,53.9,138.9,19.1,138.9-53.8v-138.1h39.8c142.2,0,257.5-115.3,257.5-257.5v-373.4c0-142.2-115.3-257.5-257.5-257.5Z"/>
      <path class="st3" d="M1263.7,1451.1h-338.8c-93.4,0-175-49.6-220.3-124.1,35.7,18.9,76.3,29.5,119.5,29.5h353.4l86.3,94.6Z"/>
      <path class="st3" d="M1889.8,820v373.6c0,142.1-115.4,257.5-257.5,257.5h-40v138.1c0,72.9-89.7,107.7-138.7,53.7l-65.5-71.7c47.5,14.6,103.3-19.2,103.3-76.6v-138.1h39.7c142.4,0,257.5-115.4,257.5-257.5v-373.2c0-49.3-13.7-94.9-37.5-134,82.2,42.8,138.7,129.1,138.7,228.4Z"/>
      <polyline class="st1" points="989.8 864.2 863.5 864.2 863.5 1178.4"/>
      <line class="st1" x1="863.5" y1="1021.3" x2="982.3" y2="1021.3"/>
      <polyline class="st1" points="1307 1178.4 1177.6 864.2 1048.2 1178.4"/>
      <line class="st1" x1="1272.6" y1="1094.8" x2="1082.6" y2="1094.8"/>
      <circle class="st1" cx="1526.7" cy="1028.4" r="163.3" transform="translate(-103.1 172.7) rotate(-6.3)"/>
      <line class="st1" x1="1588.2" y1="1073.7" x2="1698.4" y2="1183.9"/>
      <path class="st1" d="M1632.1,562.6h-707.2c-142.2,0-257.5,115.3-257.5,257.5v373.4c0,142.2,115.3,257.5,257.5,257.5h353.3l175.3,192c49.2,53.9,138.9,19.1,138.9-53.8v-138.1h39.8c142.2,0,257.5-115.3,257.5-257.5v-373.4c0-142.2-115.3-257.5-257.5-257.5Z"/>
    </g>
  </g>
  <g id="Layer_2">
    <circle class="st2" cx="1300" cy="1301" r="1250"/>
  </g>
</svg>