<?xml version="1.0" encoding="UTF-8"?>
<svg xmlns="http://www.w3.org/2000/svg"
  xmlns:xlink="http://www.w3.org/1999/xlink" width="200px" height="200px" viewBox="0 0 200 200" version="1.1">
  <g id="surface1">
    <path style=" stroke:none;fill-rule:nonzero;fill:rgb(94.117647%,31.764707%,35.294119%);fill-opacity:1;" d="M 43.898438 79.109375 L 94.0625 79.109375 C 104.144531 79.109375 112.324219 87.285156 112.324219 97.371094 L 112.324219 121.609375 C 112.324219 131.691406 104.144531 139.871094 94.0625 139.871094 L 69 139.871094 L 56.570312 153.484375 C 53.085938 157.308594 46.722656 154.839844 46.722656 149.667969 L 46.722656 139.875 L 43.898438 139.875 C 33.816406 139.875 25.636719 131.699219 25.636719 121.617188 L 25.636719 97.375 C 25.636719 87.292969 33.816406 79.117188 43.898438 79.117188 Z M 43.898438 79.109375 "/>
    <path style=" stroke:none;fill-rule:nonzero;fill:rgb(90.196079%,30.19608%,36.470589%);fill-opacity:1;" d="M 39.398438 139.332031 C 31.976562 137.445312 26.347656 131 25.699219 123.144531 C 28.46875 124.863281 31.761719 125.871094 35.269531 125.871094 L 38.085938 125.871094 L 38.085938 135.652344 C 38.085938 137.109375 38.609375 138.375 39.398438 139.332031 Z M 39.398438 139.332031 "/>
    <path style=" stroke:none;fill-rule:nonzero;fill:rgb(90.196079%,30.19608%,36.470589%);fill-opacity:1;" d="M 112.316406 97.375 L 112.316406 121.601562 C 112.316406 131.691406 104.152344 139.882812 94.0625 139.882812 L 69 139.882812 L 56.570312 153.492188 C 53.085938 157.308594 46.738281 154.855469 46.738281 149.675781 L 46.738281 140.484375 C 47.167969 140.246094 47.578125 139.882812 47.953125 139.484375 L 60.382812 125.882812 L 85.445312 125.882812 C 95.515625 125.882812 103.707031 117.699219 103.707031 107.625 L 103.707031 83.375 C 103.707031 82.855469 103.683594 82.355469 103.636719 81.847656 C 108.863281 85.046875 112.324219 90.792969 112.324219 97.382812 Z M 112.316406 97.375 "/>
    <path style="fill:none;stroke-width:25;stroke-linecap:round;stroke-linejoin:round;stroke:rgb(18.82353%,25.882354%,34.901962%);stroke-opacity:1;stroke-miterlimit:4;" d="M 570.679688 1028.421875 L 1222.8125 1028.421875 C 1353.878906 1028.421875 1460.214844 1134.707031 1460.214844 1265.824219 L 1460.214844 1580.921875 C 1460.214844 1711.988281 1353.878906 1818.324219 1222.8125 1818.324219 L 897 1818.324219 L 735.414062 1995.296875 C 690.117188 2045.011719 607.394531 2012.917969 607.394531 1945.683594 L 607.394531 1818.375 L 570.679688 1818.375 C 439.613281 1818.375 333.277344 1712.089844 333.277344 1581.023438 L 333.277344 1265.875 C 333.277344 1134.808594 439.613281 1028.523438 570.679688 1028.523438 Z M 570.679688 1028.421875 " transform="matrix(0.0769231,0,0,0.0769231,0,0)"/>
    <path style=" stroke:none;fill-rule:nonzero;fill:rgb(95.686275%,79.215688%,33.725491%);fill-opacity:1;" d="M 131.070312 90.644531 L 162.808594 90.644531 C 169.191406 90.644531 174.363281 95.824219 174.363281 102.199219 L 174.363281 118.953125 C 174.363281 125.339844 169.183594 130.507812 162.808594 130.507812 L 146.953125 130.507812 L 139.09375 139.125 C 136.882812 141.539062 132.863281 139.976562 132.863281 136.707031 L 132.863281 130.507812 L 131.078125 130.507812 C 124.691406 130.507812 119.523438 125.332031 119.523438 118.953125 L 119.523438 102.199219 C 119.523438 95.816406 124.699219 90.644531 131.078125 90.644531 Z M 131.070312 90.644531 "/>
    <path style=" stroke:none;fill-rule:nonzero;fill:rgb(87.843138%,71.764708%,31.764707%);fill-opacity:1;" d="M 174.363281 102.191406 L 174.363281 118.945312 C 174.363281 125.339844 169.183594 130.523438 162.808594 130.523438 L 146.9375 130.523438 L 139.085938 139.117188 C 136.863281 141.546875 132.855469 139.976562 132.855469 136.707031 L 132.855469 133.609375 C 132.898438 133.585938 132.921875 133.539062 132.945312 133.515625 L 140.800781 124.898438 L 156.644531 124.898438 C 163.039062 124.898438 168.222656 119.722656 168.222656 113.347656 L 168.222656 96.59375 C 168.222656 94.753906 167.792969 93.015625 167.03125 91.460938 C 171.324219 93.128906 174.355469 97.332031 174.355469 102.199219 Z M 174.363281 102.191406 "/>
    <path style="fill:none;stroke-width:25;stroke-linecap:round;stroke-linejoin:round;stroke:rgb(18.82353%,25.882354%,34.901962%);stroke-opacity:1;stroke-miterlimit:4;" d="M 1703.914062 1178.378906 L 2116.511719 1178.378906 C 2199.488281 1178.378906 2266.722656 1245.714844 2266.722656 1328.589844 L 2266.722656 1546.390625 C 2266.722656 1629.417969 2199.386719 1696.601562 2116.511719 1696.601562 L 1910.390625 1696.601562 L 1808.21875 1808.625 C 1779.476562 1840.007812 1727.222656 1819.695312 1727.222656 1777.191406 L 1727.222656 1696.601562 L 1704.015625 1696.601562 C 1620.988281 1696.601562 1553.804688 1629.316406 1553.804688 1546.390625 L 1553.804688 1328.589844 C 1553.804688 1245.613281 1621.089844 1178.378906 1704.015625 1178.378906 Z M 1703.914062 1178.378906 " transform="matrix(0.0769231,0,0,0.0769231,0,0)"/>
    <path style=" stroke:none;fill-rule:nonzero;fill:rgb(32.156864%,57.647061%,68.627453%);fill-opacity:1;" d="M 125.546875 43.277344 L 71.144531 43.277344 C 60.207031 43.277344 51.339844 52.144531 51.339844 63.085938 L 51.339844 91.808594 C 51.339844 102.746094 60.207031 111.617188 71.144531 111.617188 L 98.324219 111.617188 L 111.808594 126.382812 C 115.59375 130.53125 122.492188 127.855469 122.492188 122.246094 L 122.492188 111.625 L 125.554688 111.625 C 136.492188 111.625 145.363281 102.753906 145.363281 91.816406 L 145.363281 63.09375 C 145.363281 52.152344 136.492188 43.285156 125.554688 43.285156 Z M 125.546875 43.277344 "/>
    <path style=" stroke:none;fill-rule:nonzero;fill:rgb(29.803923%,53.333336%,61.960787%);fill-opacity:1;" d="M 97.207031 111.625 L 71.144531 111.625 C 63.960938 111.625 57.683594 107.808594 54.199219 102.078125 C 56.945312 103.53125 60.070312 104.347656 63.390625 104.347656 L 90.578125 104.347656 L 97.214844 111.625 Z M 97.207031 111.625 "/>
    <path style=" stroke:none;fill-rule:nonzero;fill:rgb(29.803923%,53.333336%,61.960787%);fill-opacity:1;" d="M 145.371094 63.078125 L 145.371094 91.816406 C 145.371094 102.746094 136.492188 111.625 125.5625 111.625 L 122.484375 111.625 L 122.484375 122.246094 C 122.484375 127.855469 115.585938 130.53125 111.816406 126.375 L 106.777344 120.863281 C 110.429688 121.984375 114.722656 119.382812 114.722656 114.96875 L 114.722656 104.347656 L 117.777344 104.347656 C 128.730469 104.347656 137.585938 95.46875 137.585938 84.539062 L 137.585938 55.832031 C 137.585938 52.039062 136.53125 48.53125 134.699219 45.523438 C 141.023438 48.816406 145.371094 55.453125 145.371094 63.09375 Z M 145.371094 63.078125 "/>
    <path style="fill:none;stroke-width:25;stroke-linecap:round;stroke-linejoin:round;stroke:rgb(18.82353%,25.882354%,34.901962%);stroke-opacity:1;stroke-miterlimit:4;" d="M 989.777344 864.195312 L 863.484375 864.195312 L 863.484375 1178.378906 " transform="matrix(0.0769231,0,0,0.0769231,0,0)"/>
    <path style="fill:none;stroke-width:25;stroke-linecap:round;stroke-linejoin:round;stroke:rgb(18.82353%,25.882354%,34.901962%);stroke-opacity:1;stroke-miterlimit:4;" d="M 863.484375 1021.3125 L 982.3125 1021.3125 " transform="matrix(0.0769231,0,0,0.0769231,0,0)"/>
    <path style="fill:none;stroke-width:25;stroke-linecap:round;stroke-linejoin:round;stroke:rgb(18.82353%,25.882354%,34.901962%);stroke-opacity:1;stroke-miterlimit:4;" d="M 1307.007812 1178.378906 L 1177.617188 864.195312 L 1048.175781 1178.378906 " transform="matrix(0.0769231,0,0,0.0769231,0,0)"/>
    <path style="fill:none;stroke-width:25;stroke-linecap:round;stroke-linejoin:round;stroke:rgb(18.82353%,25.882354%,34.901962%);stroke-opacity:1;stroke-miterlimit:4;" d="M 1272.578125 1094.792969 L 1082.605469 1094.792969 " transform="matrix(0.0769231,0,0,0.0769231,0,0)"/>
    <path style="fill:none;stroke-width:25;stroke-linecap:round;stroke-linejoin:round;stroke:rgb(18.82353%,25.882354%,34.901962%);stroke-opacity:1;stroke-miterlimit:4;" d="M 1689.999157 1028.391089 C 1689.99198 938.216829 1616.881597 865.108073 1526.707336 865.115249 C 1436.533076 865.122426 1363.373845 938.227237 1363.381022 1028.401498 C 1363.388198 1118.575758 1436.498582 1191.684514 1526.723317 1191.68291 C 1616.897577 1191.675733 1690.006333 1118.56535 1689.999157 1028.391089 Z M 1689.999157 1028.391089 " transform="matrix(0.0764585,-0.0084411,0.0084411,0.0764585,-7.930769,13.284615)"/>
    <path style="fill:none;stroke-width:25;stroke-linecap:round;stroke-linejoin:round;stroke:rgb(18.82353%,25.882354%,34.901962%);stroke-opacity:1;stroke-miterlimit:4;" d="M 1588.183594 1073.71875 L 1698.378906 1183.914062 " transform="matrix(0.0769231,0,0,0.0769231,0,0)"/>
    <path style="fill:none;stroke-width:25;stroke-linecap:round;stroke-linejoin:round;stroke:rgb(18.82353%,25.882354%,34.901962%);stroke-opacity:1;stroke-miterlimit:4;" d="M 1632.109375 562.605469 L 924.878906 562.605469 C 782.691406 562.605469 667.417969 677.878906 667.417969 820.117188 L 667.417969 1193.511719 C 667.417969 1335.699219 782.691406 1451.023438 924.878906 1451.023438 L 1278.214844 1451.023438 L 1453.511719 1642.976562 C 1502.71875 1696.90625 1592.398438 1662.121094 1592.398438 1589.199219 L 1592.398438 1451.125 L 1632.210938 1451.125 C 1774.398438 1451.125 1889.722656 1335.800781 1889.722656 1193.613281 L 1889.722656 820.21875 C 1889.722656 677.980469 1774.398438 562.707031 1632.210938 562.707031 Z M 1632.109375 562.605469 " transform="matrix(0.0769231,0,0,0.0769231,0,0)"/>
  </g>
</svg>
