<?xml version="1.0" encoding="UTF-8"?>
<svg id="Layer_1" xmlns="http://www.w3.org/2000/svg" version="1.1" viewBox="0 0 200 200">
  <!-- Generator: Adobe Illustrator 29.7.1, SVG Export Plug-In . SVG Version: 2.1.1 Build 8)  -->
  <defs>
    <style>
      .st0 {
        fill: #bababa;
      }

      .Graphic_x0020_Style {
        fill: #5677fc;
      }
    </style>
  </defs>
  <path class="Graphic_x0020_Style" d="M131.3,97.5c-1.6-1.9-3.7-2.7-5.1-3.1-.6-4.5-3.1-6.6-3.5-7-2-1.8-4.5-2.8-7.2-2.8s-1,0-1.6,0c-1.2.1-2.2.4-3,.7-1.6-3.4-4.1-5.1-5.8-5.9-2.1-1-3.8-1-4.1-1h0c-.2,0-.4,0-.6,0-5.7,0-8.7,3-10.1,5.6-.9,1.6-1.4,3.2-1.6,4.2-.6,0-1.2-.1-1.7-.1-1.9,0-3.5.5-4.9,1.4-1.9,1.4-2.8,3.4-3.2,4.8-.6,0-1.2-.1-1.8-.1s-1.3,0-1.5.1c-4.2.5-6.2,3.9-6.4,4.3-2.5,4.3-.3,8,0,8.4,2.3,4,6.4,4.3,6.7,4.4h49.1s0,0,0,0c3.6-.3,5.6-2.2,6.7-3.7,1.1-1.6,1.3-3.1,1.4-3.3.3-2.8-.3-5.2-1.7-7ZM71.6,100c0-.1,1.4-2.5,4.3-2.9h.1s.4,0,1,0,1.4,0,2.5.3l1.6.4.2-1.6s.3-2.8,2.4-4.3c.9-.6,2-.9,3.3-.9s1.6.1,2.5.3l1.6.4v-1.6c.1,0,.3-2.4,1.6-4.6,1.6-2.7,4.2-4.1,7.7-4.1s.4,0,.6,0c.2,0,5.5,0,7.9,6.5l.6,1.5,1.4-.7c.2,0,1.6-.8,3.5-1,.4,0,.8,0,1.2,0,2,0,3.8.7,5.3,2.1h.1c0,.2,2.4,1.9,2.6,6.2v1.2c0,0,1.3.1,1.3.1,0,0,2.8.3,4.4,2.2,1,1.2,1.4,2.9,1.1,4.9,0,.2-.8,4.2-5.4,4.6h-48.9c-.3,0-3-.5-4.5-3.1,0-.1-1.6-2.6.1-5.6Z"/>
  <path class="st0" d="M108.9,53.4l-7.5-9.8-7.5,9.8h3.2l2.3-3v15.7c0,1.1.9,2,2,2s2-.9,2-2v-15.7l2.3,3h3.2Z"/>
  <path class="Graphic_x0020_Style" d="M107.8,41.7h-12.9l-6.4-11.2,6.4-11.2h12.9l6.4,11.2-6.4,11.2ZM96.3,39.1h9.9l5-8.6-5-8.6h-9.9l-5,8.6,5,8.6Z"/>
  <path class="st0" d="M70.8,61.9l-12.3-1.6,1.6,12.3,2.3-2.3-.5-3.7,11.1,11.1c.8.8,2.1.8,2.9,0,.8-.8.8-2.1,0-2.9l-11.1-11.1,3.7.5,2.3-2.3Z"/>
  <path class="Graphic_x0020_Style" d="M61.7,54.3l-9.1,9.1-12.4-3.3-3.3-12.4,9.1-9.1,12.4,3.3,3.3,12.4ZM51.8,60.6l7-7-2.6-9.6-9.6-2.6-7,7,2.6,9.6,9.6,2.6Z"/>
  <path class="st0" d="M49.8,94.8l-9.8,7.5,9.8,7.5v-3.2l-3-2.3h15.7c1.1,0,2-.9,2-2s-.9-2-2-2h-15.7l3-2.3v-3.2Z"/>
  <path class="Graphic_x0020_Style" d="M38,95.9v12.9l-11.2,6.4-11.2-6.4v-12.9l11.2-6.4,11.2,6.4ZM35.5,107.3v-9.9l-8.6-5-8.6,5v9.9l8.6,5,8.6-5Z"/>
  <path class="st0" d="M58.2,132.8l-1.6,12.3,12.3-1.6-2.3-2.3-3.7.5,11.1-11.1c.8-.8.8-2.1,0-2.9s-2.1-.8-2.9,0l-11.1,11.1.5-3.7-2.3-2.3Z"/>
  <path class="Graphic_x0020_Style" d="M50.7,142l9.1,9.1-3.3,12.4-12.4,3.3-9.1-9.1,3.3-12.4,12.4-3.3ZM57,151.8l-7-7-9.6,2.6-2.6,9.6,7,7,9.6-2.6,2.6-9.6Z"/>
  <path class="st0" d="M91.1,146.6l7.5,9.8,7.5-9.8h-3.2l-2.3,3v-15.7c0-1.1-.9-2-2-2s-2,.9-2,2v15.7l-2.3-3h-3.2Z"/>
  <path class="Graphic_x0020_Style" d="M92.2,158.3h12.9l6.4,11.2-6.4,11.2h-12.9l-6.4-11.2,6.4-11.2ZM103.7,160.9h-9.9l-5,8.6,5,8.6h9.9l5-8.6-5-8.6Z"/>
  <path class="st0" d="M129.2,145.4l12.3,1.6-1.6-12.3-2.3,2.3.5,3.7-11.1-11.1c-.8-.8-2.1-.8-2.9,0-.8.8-.8,2.1,0,2.9l11.1,11.1-3.7-.5-2.3,2.3Z"/>
  <path class="Graphic_x0020_Style" d="M138.3,152.9l9.1-9.1,12.4,3.3,3.3,12.4-9.1,9.1-12.4-3.3-3.3-12.4ZM148.2,146.7l-7,7,2.6,9.6,9.6,2.6,7-7-2.6-9.6-9.6-2.6Z"/>
  <path class="st0" d="M150.2,112.5l9.8-7.5-9.8-7.5v3.2l3,2.3h-15.7c-1.1,0-2,.9-2,2s.9,2,2,2h15.7l-3,2.3v3.2Z"/>
  <path class="Graphic_x0020_Style" d="M162,111.4v-12.9l11.2-6.4,11.2,6.4v12.9l-11.2,6.4-11.2-6.4ZM164.5,100v9.9l8.6,5,8.6-5v-9.9l-8.6-5-8.6,5Z"/>
  <path class="st0" d="M141.8,74.4l1.6-12.3-12.3,1.6,2.3,2.3,3.7-.5-11.1,11.1c-.8.8-.8,2.1,0,2.9.8.8,2.1.8,2.9,0l11.1-11.1-.5,3.7,2.3,2.3Z"/>
  <path class="Graphic_x0020_Style" d="M149.3,65.3l-9.1-9.1,3.3-12.4,12.4-3.3,9.1,9.1-3.3,12.4-12.4,3.3ZM143,55.4l7,7,9.6-2.6,2.6-9.6-7-7-9.6,2.6-2.6,9.6Z"/>
</svg>