<?xml version="1.0" encoding="UTF-8"?>
<svg id="Layer_1" xmlns="http://www.w3.org/2000/svg" version="1.1" xmlns:xlink="http://www.w3.org/1999/xlink" viewBox="0 0 3000 3000">
  <!-- Generator: Adobe Illustrator 29.7.1, SVG Export Plug-In . SVG Version: 2.1.1 Build 8)  -->
  <defs>
    <style>
      .st0 {
        fill: url(#linear-gradient75);
      }

      .st1 {
        fill: url(#linear-gradient2);
      }

      .st2 {
        fill: url(#linear-gradient81);
      }

      .st3 {
        fill: url(#linear-gradient36);
      }

      .st4 {
        fill: url(#linear-gradient39);
      }

      .st5 {
        fill: url(#linear-gradient34);
      }

      .st6 {
        fill: url(#linear-gradient58);
      }

      .st7 {
        fill: url(#linear-gradient73);
      }

      .st8 {
        fill: url(#linear-gradient83);
      }

      .st9 {
        fill: url(#linear-gradient33);
      }

      .st10 {
        fill: url(#linear-gradient10);
      }

      .st11 {
        fill: url(#linear-gradient63);
      }

      .st12 {
        fill: url(#linear-gradient82);
      }

      .st13 {
        fill: url(#linear-gradient71);
      }

      .st14 {
        fill: url(#linear-gradient32);
      }

      .st15 {
        fill: url(#linear-gradient21);
      }

      .st16 {
        fill: url(#linear-gradient85);
      }

      .st17 {
        fill: url(#linear-gradient37);
      }

      .st18 {
        fill: url(#linear-gradient56);
      }

      .st19 {
        fill: url(#linear-gradient27);
      }

      .st20 {
        fill: url(#linear-gradient53);
      }

      .st21 {
        fill: url(#linear-gradient57);
      }

      .st22 {
        fill: url(#linear-gradient35);
      }

      .st23 {
        fill: url(#linear-gradient26);
      }

      .st24 {
        fill: url(#linear-gradient1);
      }

      .st25 {
        fill: url(#linear-gradient9);
      }

      .st26 {
        fill: url(#linear-gradient18);
      }

      .st27 {
        fill: url(#linear-gradient61);
      }

      .st28 {
        fill: url(#linear-gradient23);
      }

      .st29 {
        fill: url(#linear-gradient72);
      }

      .st30 {
        fill: url(#linear-gradient43);
      }

      .st31 {
        fill: url(#linear-gradient78);
      }

      .st32 {
        fill: url(#linear-gradient69);
      }

      .st33 {
        fill: url(#linear-gradient8);
      }

      .st34 {
        fill: url(#linear-gradient11);
      }

      .st35 {
        fill: url(#linear-gradient16);
      }

      .st36 {
        fill: url(#linear-gradient24);
      }

      .st37 {
        fill: #0070a8;
      }

      .st38 {
        fill: #060930;
        stroke: #939598;
        stroke-miterlimit: 10;
      }

      .st39 {
        fill: url(#linear-gradient30);
      }

      .st40 {
        fill: url(#linear-gradient46);
      }

      .st41 {
        fill: url(#linear-gradient22);
      }

      .st42 {
        fill: url(#linear-gradient29);
      }

      .st43 {
        fill: url(#linear-gradient68);
      }

      .st44 {
        fill: url(#linear-gradient49);
      }

      .st45 {
        fill: url(#linear-gradient19);
      }

      .st46 {
        fill: url(#linear-gradient12);
      }

      .st47 {
        fill: url(#linear-gradient65);
      }

      .st48 {
        fill: url(#linear-gradient80);
      }

      .st49 {
        fill: url(#linear-gradient42);
      }

      .st50 {
        fill: url(#linear-gradient28);
      }

      .st51 {
        fill: url(#linear-gradient67);
      }

      .st52 {
        fill: url(#linear-gradient40);
      }

      .st53 {
        fill: url(#linear-gradient66);
      }

      .st54 {
        fill: url(#linear-gradient84);
      }

      .st55 {
        fill: url(#linear-gradient62);
      }

      .st56 {
        fill: url(#linear-gradient7);
      }

      .st57 {
        fill: url(#linear-gradient59);
      }

      .st58 {
        fill: url(#linear-gradient20);
      }

      .st59 {
        fill: url(#linear-gradient4);
      }

      .st60 {
        fill: url(#linear-gradient31);
      }

      .st61 {
        fill: url(#linear-gradient79);
      }

      .st62 {
        fill: url(#linear-gradient14);
      }

      .st63 {
        fill: url(#linear-gradient5);
      }

      .st64 {
        fill: url(#linear-gradient74);
      }

      .st65 {
        fill: url(#linear-gradient3);
      }

      .st66 {
        fill: url(#linear-gradient87);
      }

      .st67 {
        fill: url(#linear-gradient55);
      }

      .st68 {
        fill: url(#linear-gradient38);
      }

      .st69 {
        fill: url(#linear-gradient25);
      }

      .st70 {
        fill: url(#linear-gradient52);
      }

      .st71 {
        fill: url(#linear-gradient15);
      }

      .st72 {
        fill: url(#linear-gradient17);
      }

      .st73 {
        fill: url(#linear-gradient54);
      }

      .st74 {
        fill: url(#linear-gradient50);
      }

      .st75 {
        fill: url(#linear-gradient51);
      }

      .st76 {
        fill: url(#linear-gradient6);
      }

      .st77 {
        fill: url(#linear-gradient77);
      }

      .st78 {
        fill: url(#linear-gradient86);
      }

      .st79 {
        fill: url(#linear-gradient64);
      }

      .st80 {
        fill: url(#linear-gradient70);
      }

      .st81 {
        fill: url(#linear-gradient76);
      }

      .st82 {
        fill: url(#linear-gradient48);
      }

      .st83 {
        fill: url(#linear-gradient13);
      }

      .st84 {
        fill: url(#linear-gradient45);
      }

      .st85 {
        fill: url(#linear-gradient47);
      }

      .st86 {
        fill: url(#linear-gradient60);
      }

      .st87 {
        fill: url(#linear-gradient);
      }

      .st88 {
        fill: url(#linear-gradient44);
      }

      .st89 {
        fill: url(#linear-gradient41);
      }
    </style>
    <linearGradient id="linear-gradient" x1="2154.6" y1="1063.7" x2="2154.6" y2="2668.4" gradientUnits="userSpaceOnUse">
      <stop offset="0" stop-color="#118bbc"/>
      <stop offset=".1" stop-color="#3ca0c8"/>
      <stop offset=".3" stop-color="#77bcd8"/>
      <stop offset=".5" stop-color="#a7d4e6"/>
      <stop offset=".6" stop-color="#cde6f1"/>
      <stop offset=".8" stop-color="#e8f4f8"/>
      <stop offset=".9" stop-color="#f9fcfd"/>
      <stop offset="1" stop-color="#fff"/>
    </linearGradient>
    <linearGradient id="linear-gradient1" x1="2505.8" y1="1064.2" x2="2505.8" y2="2668.8" gradientUnits="userSpaceOnUse">
      <stop offset="0" stop-color="#25a5e5"/>
      <stop offset="0" stop-color="#3caee7"/>
      <stop offset=".3" stop-color="#77c6ee"/>
      <stop offset=".4" stop-color="#a7dbf4"/>
      <stop offset=".6" stop-color="#cdeaf9"/>
      <stop offset=".8" stop-color="#e8f5fc"/>
      <stop offset=".9" stop-color="#f9fcfe"/>
      <stop offset="1" stop-color="#fff"/>
    </linearGradient>
    <linearGradient id="linear-gradient2" x1="1349.3" y1="1453" x2="1349.3" y2="2846.7" xlink:href="#linear-gradient"/>
    <linearGradient id="linear-gradient3" x1="1700.6" y1="1453.4" x2="1700.6" y2="2847" xlink:href="#linear-gradient1"/>
    <linearGradient id="linear-gradient4" x1="543.9" y1="1842.2" x2="543.9" y2="2979.7" xlink:href="#linear-gradient"/>
    <linearGradient id="linear-gradient5" x1="895.2" y1="1842.6" x2="895.2" y2="2980.1" xlink:href="#linear-gradient1"/>
    <linearGradient id="linear-gradient6" x1="2320.4" y1="1071.3" x2="2320.4" y2="2373.9" gradientUnits="userSpaceOnUse">
      <stop offset="0" stop-color="#0070a8"/>
      <stop offset=".1" stop-color="#1b7fb1"/>
      <stop offset=".4" stop-color="#60a6c9"/>
      <stop offset=".8" stop-color="#cfe4ee"/>
      <stop offset="1" stop-color="#fff"/>
    </linearGradient>
    <linearGradient id="linear-gradient7" x1="1524.8" y1="296.7" x2="531" y2="1348.3" gradientUnits="userSpaceOnUse">
      <stop offset="0" stop-color="#0070a8"/>
      <stop offset=".1" stop-color="#1b7fb1"/>
      <stop offset=".4" stop-color="#60a6c9"/>
      <stop offset=".8" stop-color="#cfe4ee"/>
      <stop offset="1" stop-color="#fff"/>
    </linearGradient>
    <linearGradient id="linear-gradient8" x1="2384.8" y1="354.3" x2="2436" y2="354.3" gradientUnits="userSpaceOnUse">
      <stop offset="0" stop-color="#eea33e"/>
      <stop offset=".5" stop-color="#fee89c"/>
      <stop offset="1" stop-color="#ffaf4c"/>
    </linearGradient>
    <linearGradient id="linear-gradient9" x1="2364.9" y1="338.6" x2="2453.6" y2="338.6" xlink:href="#linear-gradient8"/>
    <linearGradient id="linear-gradient10" x1="2199.1" y1="343.4" x2="2242.1" y2="343.4" xlink:href="#linear-gradient8"/>
    <linearGradient id="linear-gradient11" x1="1955" y1="491.7" x2="2708.2" y2="491.7" xlink:href="#linear-gradient8"/>
    <linearGradient id="linear-gradient12" x1="1991.9" y1="495.7" x2="2007.9" y2="495.7" gradientTransform="translate(1470 2486.8) rotate(-89)" xlink:href="#linear-gradient8"/>
    <linearGradient id="linear-gradient13" x1="2651.7" y1="484.2" x2="2667.7" y2="484.2" gradientTransform="translate(2130.1 3135.2) rotate(-89)" xlink:href="#linear-gradient8"/>
    <linearGradient id="linear-gradient14" x1="1995.6" y1="562.6" x2="2019.9" y2="562.6" xlink:href="#linear-gradient8"/>
    <linearGradient id="linear-gradient15" x1="2639.7" y1="417.3" x2="2664" y2="417.3" xlink:href="#linear-gradient8"/>
    <linearGradient id="linear-gradient16" x1="2013.8" y1="628.8" x2="2045.8" y2="628.8" xlink:href="#linear-gradient8"/>
    <linearGradient id="linear-gradient17" x1="2613.8" y1="351.1" x2="2645.8" y2="351.1" xlink:href="#linear-gradient8"/>
    <linearGradient id="linear-gradient18" x1="2045.8" y1="688.7" x2="2083.9" y2="688.7" xlink:href="#linear-gradient8"/>
    <linearGradient id="linear-gradient19" x1="2575.7" y1="291.2" x2="2613.8" y2="291.2" xlink:href="#linear-gradient8"/>
    <linearGradient id="linear-gradient20" x1="2090.4" y1="740.3" x2="2133" y2="740.3" xlink:href="#linear-gradient8"/>
    <linearGradient id="linear-gradient21" x1="2526.6" y1="239.7" x2="2569.2" y2="239.7" xlink:href="#linear-gradient8"/>
    <linearGradient id="linear-gradient22" x1="2147.5" y1="781.9" x2="2192.8" y2="781.9" xlink:href="#linear-gradient8"/>
    <linearGradient id="linear-gradient23" x1="2466.8" y1="198.1" x2="2512.1" y2="198.1" xlink:href="#linear-gradient8"/>
    <linearGradient id="linear-gradient24" x1="2402.6" y1="170.8" x2="2448.6" y2="170.8" xlink:href="#linear-gradient8"/>
    <linearGradient id="linear-gradient25" x1="2336.5" y1="157.7" x2="2381.1" y2="157.7" xlink:href="#linear-gradient8"/>
    <linearGradient id="linear-gradient26" x1="2266.7" y1="159" x2="2311.7" y2="159" xlink:href="#linear-gradient8"/>
    <linearGradient id="linear-gradient27" x1="2413" y1="805.8" x2="2459" y2="805.8" xlink:href="#linear-gradient8"/>
    <linearGradient id="linear-gradient28" x1="2200.6" y1="174.2" x2="2246.6" y2="174.2" xlink:href="#linear-gradient8"/>
    <linearGradient id="linear-gradient29" x1="2476.1" y1="776.5" x2="2521.2" y2="776.5" xlink:href="#linear-gradient8"/>
    <linearGradient id="linear-gradient30" x1="2138.4" y1="203.4" x2="2183.5" y2="203.4" xlink:href="#linear-gradient8"/>
    <linearGradient id="linear-gradient31" x1="2532.3" y1="735.2" x2="2574.6" y2="735.2" xlink:href="#linear-gradient8"/>
    <linearGradient id="linear-gradient32" x1="2085" y1="244.7" x2="2127.3" y2="244.7" xlink:href="#linear-gradient8"/>
    <linearGradient id="linear-gradient33" x1="2580.2" y1="682.9" x2="2617.7" y2="682.9" xlink:href="#linear-gradient8"/>
    <linearGradient id="linear-gradient34" x1="2041.9" y1="297" x2="2079.4" y2="297" xlink:href="#linear-gradient8"/>
    <linearGradient id="linear-gradient35" x1="2617" y1="622.5" x2="2648.2" y2="622.5" xlink:href="#linear-gradient8"/>
    <linearGradient id="linear-gradient36" x1="2011.4" y1="357.5" x2="2042.6" y2="357.5" xlink:href="#linear-gradient8"/>
    <linearGradient id="linear-gradient37" x1="2641.5" y1="555.7" x2="2665" y2="555.7" xlink:href="#linear-gradient8"/>
    <linearGradient id="linear-gradient38" x1="1994.6" y1="424.3" x2="2018" y2="424.3" xlink:href="#linear-gradient8"/>
    <linearGradient id="linear-gradient39" x1="2339.7" y1="828.9" x2="2353.2" y2="828.9" gradientTransform="translate(1517.5 3175.4) rotate(-90)" xlink:href="#linear-gradient8"/>
    <linearGradient id="linear-gradient40" x1="2335.2" y1="668.3" x2="2348.7" y2="668.3" gradientTransform="translate(1673.7 3010.3) rotate(-90)" xlink:href="#linear-gradient8"/>
    <linearGradient id="linear-gradient41" x1="2352.6" y1="668.3" x2="2366.1" y2="668.3" gradientTransform="translate(1691 3027.7) rotate(-90)" xlink:href="#linear-gradient8"/>
    <linearGradient id="linear-gradient42" x1="2370" y1="668.3" x2="2383.5" y2="668.3" gradientTransform="translate(1708.4 3045.1) rotate(-90)" xlink:href="#linear-gradient8"/>
    <linearGradient id="linear-gradient43" x1="2316.5" y1="828.9" x2="2330" y2="828.9" gradientTransform="translate(1494.3 3152.2) rotate(-90)" xlink:href="#linear-gradient8"/>
    <linearGradient id="linear-gradient44" x1="2294.4" y1="828.9" x2="2307.9" y2="828.9" gradientTransform="translate(1472.2 3130.1) rotate(-90)" xlink:href="#linear-gradient8"/>
    <linearGradient id="linear-gradient45" x1="2251.8" y1="764.6" x2="2305.3" y2="764.6" gradientTransform="translate(1514 3043.1) rotate(-90)" xlink:href="#linear-gradient8"/>
    <linearGradient id="linear-gradient46" x1="2387" y1="668.3" x2="2400.7" y2="668.3" gradientTransform="translate(1725.5 3062.2) rotate(-90)" xlink:href="#linear-gradient8"/>
    <linearGradient id="linear-gradient47" x1="2117.4" y1="687.6" x2="2143.3" y2="687.6" gradientTransform="translate(178.1 1782.9) rotate(-47.2)" xlink:href="#linear-gradient8"/>
    <linearGradient id="linear-gradient48" x1="2114.3" y1="654.1" x2="2139.5" y2="654.1" gradientTransform="translate(261.2 1866.8) rotate(-50.1)" xlink:href="#linear-gradient8"/>
    <linearGradient id="linear-gradient49" x1="2115.1" y1="619.1" x2="2138.2" y2="619.1" gradientTransform="translate(454.6 2071.7) rotate(-57.2)" xlink:href="#linear-gradient8"/>
    <linearGradient id="linear-gradient50" x1="2122.8" y1="591" x2="2144.7" y2="591" gradientTransform="translate(576.6 2164.9) rotate(-60.8)" xlink:href="#linear-gradient8"/>
    <linearGradient id="linear-gradient51" x1="2121.7" y1="286.2" x2="2148.7" y2="286.2" gradientTransform="translate(3530.9 1927.2) rotate(-138)" xlink:href="#linear-gradient8"/>
    <linearGradient id="linear-gradient52" x1="2154.9" y1="283.2" x2="2182.5" y2="283.2" gradientTransform="translate(3674.4 1869.5) rotate(-140.9)" xlink:href="#linear-gradient8"/>
    <linearGradient id="linear-gradient53" x1="2189.4" y1="283.5" x2="2218" y2="283.5" gradientTransform="translate(3923.4 1690.4) rotate(-148)" xlink:href="#linear-gradient8"/>
    <linearGradient id="linear-gradient54" x1="2217.3" y1="291" x2="2246.2" y2="291" gradientTransform="translate(4056.9 1607.8) rotate(-151.6)" xlink:href="#linear-gradient8"/>
    <linearGradient id="linear-gradient55" x1="2517.5" y1="289.2" x2="2543.5" y2="289.2" gradientTransform="translate(4473.6 -1357.4) rotate(133.2)" xlink:href="#linear-gradient8"/>
    <linearGradient id="linear-gradient56" x1="2521.5" y1="322.7" x2="2546.8" y2="322.7" gradientTransform="translate(4418.3 -1402.4) rotate(130.3)" xlink:href="#linear-gradient8"/>
    <linearGradient id="linear-gradient57" x1="2523" y1="357.7" x2="2546.2" y2="357.7" gradientTransform="translate(4220.8 -1568.2) rotate(123.2)" xlink:href="#linear-gradient8"/>
    <linearGradient id="linear-gradient58" x1="2516.7" y1="385.9" x2="2538.8" y2="385.9" gradientTransform="translate(4111.6 -1621.6) rotate(119.6)" xlink:href="#linear-gradient8"/>
    <linearGradient id="linear-gradient59" x1="2522.2" y1="684.7" x2="2548.7" y2="684.7" gradientTransform="translate(1209.1 -1582.1) rotate(44.6)" xlink:href="#linear-gradient8"/>
    <linearGradient id="linear-gradient60" x1="2488.6" y1="689.1" x2="2515.7" y2="689.1" gradientTransform="translate(1089.4 -1488) rotate(41.6)" xlink:href="#linear-gradient8"/>
    <linearGradient id="linear-gradient61" x1="2453" y1="690.4" x2="2481.3" y2="690.4" gradientTransform="translate(825.9 -1276.7) rotate(34.5)" xlink:href="#linear-gradient8"/>
    <linearGradient id="linear-gradient62" x1="2424.5" y1="684.2" x2="2453.2" y2="684.2" gradientTransform="translate(699.2 -1156.9) rotate(31)" xlink:href="#linear-gradient8"/>
    <linearGradient id="linear-gradient63" x1="2249.4" y1="338.8" x2="2265" y2="338.8" gradientTransform="translate(1918.4 2596) rotate(-90)" xlink:href="#linear-gradient8"/>
    <linearGradient id="linear-gradient64" x1="2269.9" y1="338.8" x2="2285.5" y2="338.8" gradientTransform="translate(1938.9 2616.5) rotate(-90)" xlink:href="#linear-gradient8"/>
    <linearGradient id="linear-gradient65" x1="2288.6" y1="338.8" x2="2304.3" y2="338.8" gradientTransform="translate(1957.6 2635.2) rotate(-90)" xlink:href="#linear-gradient8"/>
    <linearGradient id="linear-gradient66" x1="2309.4" y1="338.8" x2="2325.1" y2="338.8" gradientTransform="translate(1978.5 2656.1) rotate(-90)" xlink:href="#linear-gradient8"/>
    <linearGradient id="linear-gradient67" x1="2330.3" y1="338.8" x2="2345.9" y2="338.8" gradientTransform="translate(1999.3 2676.9) rotate(-90)" xlink:href="#linear-gradient8"/>
    <linearGradient id="linear-gradient68" x1="-264.1" y1="3099.3" x2="-255.9" y2="3099.3" gradientTransform="translate(-623.5 82.7) rotate(-89)" xlink:href="#linear-gradient8"/>
    <linearGradient id="linear-gradient69" x1="76.1" y1="3093.3" x2="84.4" y2="3093.3" gradientTransform="translate(-907.2 610.5) rotate(-89)" xlink:href="#linear-gradient8"/>
    <linearGradient id="linear-gradient70" x1="-262.2" y1="3133.7" x2="-249.7" y2="3133.7" gradientTransform="translate(3914.2 3150.6) rotate(147.6)" xlink:href="#linear-gradient8"/>
    <linearGradient id="linear-gradient71" x1="69.9" y1="3058.8" x2="82.4" y2="3058.8" gradientTransform="translate(3914.2 3150.6) rotate(147.6)" xlink:href="#linear-gradient8"/>
    <linearGradient id="linear-gradient72" x1="56.6" y1="3024.7" x2="73" y2="3024.7" gradientTransform="translate(3914.2 3150.6) rotate(147.6)" xlink:href="#linear-gradient8"/>
    <linearGradient id="linear-gradient73" x1="36.9" y1="2993.8" x2="56.6" y2="2993.8" gradientTransform="translate(3914.2 3150.6) rotate(147.6)" xlink:href="#linear-gradient8"/>
    <linearGradient id="linear-gradient74" x1="-122.4" y1="2925.6" x2="-99.2" y2="2925.6" gradientTransform="translate(3914.2 3150.6) rotate(147.6)" xlink:href="#linear-gradient8"/>
    <linearGradient id="linear-gradient75" x1="-47" y1="3259.1" x2="-23.3" y2="3259.1" gradientTransform="translate(3914.2 3150.6) rotate(147.6)" xlink:href="#linear-gradient8"/>
    <linearGradient id="linear-gradient76" x1="-156.5" y1="2933.4" x2="-132.8" y2="2933.4" gradientTransform="translate(3914.2 3150.6) rotate(147.6)" xlink:href="#linear-gradient8"/>
    <linearGradient id="linear-gradient77" x1="-14.4" y1="3244" x2="8.8" y2="3244" gradientTransform="translate(3914.2 3150.6) rotate(147.6)" xlink:href="#linear-gradient8"/>
    <linearGradient id="linear-gradient78" x1="-188.6" y1="2948.5" x2="-165.3" y2="2948.5" gradientTransform="translate(3914.2 3150.6) rotate(147.6)" xlink:href="#linear-gradient8"/>
    <linearGradient id="linear-gradient79" x1="14.6" y1="3222.7" x2="36.3" y2="3222.7" gradientTransform="translate(3914.2 3150.6) rotate(147.6)" xlink:href="#linear-gradient8"/>
    <linearGradient id="linear-gradient80" x1="-216.1" y1="2969.8" x2="-194.3" y2="2969.8" gradientTransform="translate(3914.2 3150.6) rotate(147.6)" xlink:href="#linear-gradient8"/>
    <linearGradient id="linear-gradient81" x1="39.2" y1="3195.8" x2="58.6" y2="3195.8" gradientTransform="translate(3914.2 3150.6) rotate(147.6)" xlink:href="#linear-gradient8"/>
    <linearGradient id="linear-gradient82" x1="-238.3" y1="2996.8" x2="-219" y2="2996.8" gradientTransform="translate(3914.2 3150.6) rotate(147.6)" xlink:href="#linear-gradient8"/>
    <linearGradient id="linear-gradient83" x1="58.2" y1="3164.6" x2="74.3" y2="3164.6" gradientTransform="translate(3914.2 3150.6) rotate(147.6)" xlink:href="#linear-gradient8"/>
    <linearGradient id="linear-gradient84" x1="-254.1" y1="3028" x2="-238" y2="3028" gradientTransform="translate(3914.2 3150.6) rotate(147.6)" xlink:href="#linear-gradient8"/>
    <linearGradient id="linear-gradient85" x1="70.9" y1="3130.2" x2="83" y2="3130.2" gradientTransform="translate(3914.2 3150.6) rotate(147.6)" xlink:href="#linear-gradient8"/>
    <linearGradient id="linear-gradient86" x1="-262.7" y1="3062.4" x2="-250.6" y2="3062.4" gradientTransform="translate(3914.2 3150.6) rotate(147.6)" xlink:href="#linear-gradient8"/>
    <linearGradient id="linear-gradient87" x1="1946" y1="491.7" x2="2717.2" y2="491.7" xlink:href="#linear-gradient8"/>
  </defs>
  <polygon class="st87" points="2329.3 2668.4 1979.1 2559.1 1987.6 1063.7 2330 1173 2329.3 2668.4"/>
  <polygon class="st24" points="2331.1 2668.8 2681.2 2559.5 2672.8 1064.2 2330.5 1173.5 2331.1 2668.8"/>
  <polygon class="st37" points="2672.8 1064.2 2629.4 1077.9 2622.4 1080.2 2549.6 1103.3 2542.6 1105.5 2509.3 1116.1 2502.3 1118.3 2461.2 1131.4 2454.2 1133.6 2399.3 1151 2392.3 1153.3 2330 1173 2285.7 1158.9 2278.7 1156.7 2206.5 1133.6 2199.5 1131.4 2115.9 1104.7 2108.9 1102.5 2057.5 1086.1 2050.5 1083.8 2018.4 1073.6 2011.4 1071.3 1987.6 1063.7 2330 958.3 2672.8 1064.2"/>
  <g>
    <polygon class="st1" points="1524 2846.7 1173.9 2737.4 1182.3 1453 1524.7 1562.3 1524 2846.7"/>
    <polygon class="st65" points="1525.8 2847 1876 2737.8 1867.5 1453.4 1525.2 1562.7 1525.8 2847"/>
    <polygon class="st37" points="1867.5 1453.4 1524.7 1562.3 1182.3 1453 1524.7 1347.6 1867.5 1453.4"/>
  </g>
  <g>
    <polygon class="st59" points="718.6 2979.7 368.4 2870.4 377 1842.2 719.5 1951.5 718.6 2979.7"/>
    <polygon class="st63" points="720.4 2980.1 1070.5 2870.8 1062.3 1842.6 719.9 1951.9 720.4 2980.1"/>
    <polygon class="st37" points="1062.3 1842.6 719.5 1951.5 377 1842.2 719.5 1736.8 1062.3 1842.6"/>
  </g>
  <path class="st76" d="M2057.5,1196.4l47,47v502.2h-7v-400.6l-74.2,74.2v410.7l43.6,43.6v447.7h-7v-444.8l-36.6-36.6v177.9h-7v-601.4l81.2-81.2v-88.8l-47-47v-115.5l7,2.2v110.4ZM2018.4,1073.6l-7-2.2v226.1h7v-223.9ZM2588.5,1622.1v-400.9l-38.9-38.9v-79l-7,2.2v79.7l38.9,38.9v163.6l-47.2,47.2v328h7v-325.1l40.2-40.2v224.5h7ZM2278.7,1357.5l-28.2,28.2v130.2l-47.2,47.2v389.8h7v-386.9l40.2-40.2v111.2h7v-248.4l28.2-28.2v-201.5l-7-2.2v200.8ZM2461.2,1131.4l-7,2.2v110.1h7v-112.4ZM2622.4,1080.2v593.8l-37.7,37.7v241.1h7v-238.2l37.7-37.7v-598.9l-7,2.2ZM2399.3,1151l-7,2.2v135l47.6,47.6v147.2h7v-150.1l-47.6-47.6v-134.3ZM2206.5,1133.6l-7-2.2v144.1l-54,54v746.8h7v-743.9l54-54v-144.8ZM2108.9,1183.8h7v-79.1l-7-2.2v81.3ZM2502.3,1552.1l-52.6,52.6v434.6h7v-201.9l43.3,43.3v493.2h7v-496.1l-50.3-50.3v-219.9l52.6-52.6v-438.9l-7,2.2v433.8Z"/>
  <path class="st56" d="M1688.9,398.8l-192.6,51.6,42.2,42.2-265.7,265.7h-553.3l-392,392c-19.7,16.7-19.6,46.5-2.8,62,16,14.6,43.6,13.3,59.3-5.4l368.6-368.6h553.3l289.1-289.1,42.2,42.2,51.6-192.6Z"/>
  <g>
    <circle class="st38" cx="2331.6" cy="491.7" r="376.6"/>
    <g>
      <g>
        <path class="st33" d="M2409,336.6l-1-1.1-23.2,20.5v17.4h3v-16.1l21.4-18.9c8.8,4.5,17.2,9.8,25,15.8l1.8-2.4c-8.2-6.3-17.1-11.8-26.3-16.6l-.7,1.3Z"/>
        <path class="st25" d="M2367.9,319.5l13.4-13.4c25.4,6.9,48.8,18.8,69.4,35.5v9.1c-16.6-14.3-35.9-25.7-56.3-33.1l-.9-.3-.7.7c-4.4,4.4-14,14-18.4,18.5l-.4.4v36.4h3v-35.2c4.4-4.4,12.8-12.8,17.3-17.3,20.7,7.7,40.3,19.5,56.9,34.3l1-1.1h1.5v-13.1h-1.5l.9-1.2c-21.3-17.3-45.5-29.7-71.9-36.7l-.8-.2-15.5,15.5v56h3v-54.7Z"/>
        <path class="st10" d="M2228.8,314c-10.4,6.1-20.4,13.1-29.7,21l1.9,2.3c8.8-7.5,18.3-14.3,28.2-20.1l9.8,9.8v46.5h3v-47.7l-12.3-12.3-1,.6Z"/>
        <path class="st34" d="M2678.6,345.1c-19-44.8-46.1-85.1-80.7-119.7-34.6-34.6-74.9-61.7-119.7-80.7-46.4-19.6-95.8-29.6-146.6-29.6s-100.2,10-146.6,29.6c-44.8,19-85.1,46.1-119.7,80.7-34.6,34.6-61.7,74.9-80.7,119.7-19.6,46.4-29.6,95.8-29.6,146.6s10,100.2,29.6,146.6c19,44.9,46.1,85.1,80.7,119.7,34.6,34.6,74.9,61.7,119.7,80.7,46.4,19.6,95.8,29.6,146.6,29.6s100.2-10,146.6-29.6c44.8-19,85.1-46.1,119.7-80.7,34.6-34.6,61.7-74.9,80.7-119.7,19.6-46.4,29.6-95.8,29.6-146.6s-10-100.2-29.6-146.6ZM2360.6,826.8c0-17.9,0-36.6-.1-52.3,7.6-7.3,25.3-24.3,27.8-26.7,70.8-16.6,127.1-55,163.1-110.9,32.3-50.3,46.3-112.5,39.5-175.1-6.8-62.6-33.9-120.2-76.2-162.2-47.2-46.9-110.7-72.1-183.6-73-60.3-.3-116,18.5-161.2,54.2-41.8,33.1-72.5,78.5-89,131.3-16.5,52.9-17,107.8-1.4,158.8,16.7,54.6,51.3,101.3,100.3,135.3l-5.4,4.8c-97.1-68.3-136.3-186.8-99.7-302.2,36.5-115.1,136.5-189.3,255.1-189.3s1,0,1.4,0c163.5.4,251.2,119.9,265.6,238.2,14.4,118.5-42,255.8-200.6,295.4h-.4c0,0-.3.4-.3.4-.2.2-24.6,23.8-27.1,26.2l-.5.4v75.2l-8.5,8.9c-2.4.2-4.8.3-7.2.5l8.5-9v-29ZM2383.2,861.8v-75.8c2.7-2.4,6.5-6.2,10.5-10.2,4.6-4.5,9.3-9.2,12.3-11.8,73.3-20.2,131-62.9,166.8-123.5,32.2-54.5,45.1-121.2,36.2-187.7-8.9-66.4-38.8-127.2-84.1-171.2-50.5-49-117.6-75-193.9-75.1-.5,0-1,0-1.5,0-64.1,0-123.4,20.1-171.6,58.1-44.9,35.4-78,84.1-95.9,140.8-17.9,56.8-18.6,115.7-2,170.6,17.8,58.9,55,109.5,107.6,146.2l-3,6.4c-105.3-72.8-148.2-199.9-109.4-324.5,38.9-124.9,147.2-205.2,275.8-204.7h.2c170.1,0,265.2,124.1,284,247,18.8,123.4-34.9,270.6-197.4,321.2l-1,.3-.3,13.7,2-.6c77.1-23.1,137.4-69.8,174.3-134.9,33.2-58.5,45.8-129.5,35.4-200-10.3-70.3-42.7-134.6-91.2-180.9-54-51.6-125.2-78.9-205.9-78.9-77.4.3-146.7,25.9-200.3,74.2-48.5,43.6-82.4,104.5-95.5,171.5-13.1,67.1-4.7,136.3,23.8,195.1,31.4,64.8,85.6,114.6,156.8,144.1v7.6c-162.4-65.6-211.4-220.8-187.7-346,23.7-125.5,126.6-252.5,302.9-253.3,191.9,2.4,292.1,141.8,306.2,278.9,14.2,137.3-55.5,294.5-243,336.1l-1.2.3v22.4l1.8-.3c90.1-16.7,162.4-63,209.1-133.8,41.8-63.4,60.6-143,52.9-224.1-7.7-81-41.1-155.5-94-209.6-58.8-60.1-138.1-91.8-229.4-91.8s-1.5,0-2.3,0c-83.7,0-158.5,27.1-216.5,78.2-52,45.9-89.3,110.8-104.8,182.7-15.7,72.6-8.7,148.3,19.7,213.4,31.2,71.4,86.3,126.7,159.2,159.8l1.2-2.7c-161.8-73.4-205.6-238.6-177.3-369.8,25.8-119.2,124.6-258.4,318.3-258.5.8,0,1.6,0,2.4,0,201.7,0,306.2,149.7,320.4,298.6,13.7,144.7-61.1,317-257.7,354.4v-16.4c84.6-19,152.2-64.1,195.6-130.4,39.1-59.7,56.3-133.8,48.6-208.7-7.7-74.8-39.7-143.7-90-194.1-56.2-56.2-132-86.4-219.2-87.5-80.5.4-152.3,27.1-207.8,77.4-50.1,45.4-84.9,108.7-98.1,178.3-13.2,69.7-3.8,141.5,26.3,202.1,33.4,67.2,90.5,118.4,165.3,148.1l2.1.8v-14l-.9-.4c-157-64.6-203.4-215.4-179.7-336.2,23.6-120.6,123.3-242.6,292.9-243.2,177.1,0,275.4,129.2,294.2,257.2,18.8,127.9-37.6,279.5-205.6,331l.2-7.4c73.4-23.1,130.6-68.5,165.6-131.2,31.5-56.7,43.2-125.2,32.9-193-10.3-67.7-41.8-129.4-88.7-173.9-52.2-49.5-120.7-75.6-198.2-75.6h-.2c-67.2-.3-129.3,20.6-179.6,60.5-46.5,36.8-80.8,87.4-99.1,146.3-18.4,58.9-18.9,120.1-1.5,177,18.8,61.5,58.1,114,113.5,151.9l1.5,1,5.6-12-1-.7c-101.9-70.5-143.3-193.8-105.4-314.1,37.7-119.7,141.5-196.8,264.7-196.8s1,0,1.5,0c167.5.2,258.8,122.5,275,243.6,16.3,121.4-39.6,263.7-201.1,307.9h-.3c0,0-.3.3-.3.3-3.1,2.6-8,7.5-12.8,12.2-4.2,4.2-8.3,8.2-10.9,10.5l-.5.4v77.6c-5.4.7-10.9,1.3-16.4,1.8l7-7.4v-75.1c3.9-3.8,23.7-23,26.3-25.5,71.9-18.1,128.9-58.4,164.8-116.8,32.2-52.4,45.6-117,37.7-181.8-7.9-64.7-36.3-124.1-80.1-167.1-48.8-48-114-73.5-188.4-73.7-.5,0-1,0-1.5,0-61.7,0-118.8,19.3-165.3,55.9-43.3,34.1-75.3,80.9-92.6,135.5-17.3,54.6-18.1,111.5-2.3,164.3,17.1,57.2,53.1,106.2,104.2,141.9l1,.7,10.1-8.9-1.6-1.1c-95.3-65.2-134.2-179.7-99.3-291.9,34.8-111.6,131.3-183.5,246.1-183.5s.9,0,1.3,0c160.1,1.9,244.3,118.1,256.8,232.5,12.5,114.6-44.7,246.5-200.6,282.9h-.4c0,0-.3.4-.3.4,0,0-20.7,19.9-28.6,27.4l-.5.4v.6c0,15.8,0,34.8.1,52.9v27.8c0,0-9.8,10.4-9.8,10.4-2.9.1-5.8.2-8.8.3l8.6-9v-86.6c6.9-6.6,8.9-8.5,13.5-13l17.9-17.2c70.7-14.8,127.1-51.5,162.9-106.3,32.1-49.1,45.9-110.1,38.8-171.7-7.1-61.6-34.3-117.8-76.7-158.3-47.4-45.2-110.7-68.2-183.1-66.4h-.6s-19.9,20.9-19.9,20.9v115.2h3v-114l18.2-19.1c158.9-3.7,243.1,108.8,256.2,222,12.6,109.8-44.5,242.7-199.7,274.9h-.4c0,0-18.5,17.9-18.5,17.9-4.7,4.6-6.7,6.5-14,13.4l-.5.4v86.7l-9.8,10.3c-1.1,0-2.1,0-3.2,0s-2.7,0-4.1,0l9-9.6v-93l2.8-2.7c2.3-2.2,5.1-4.9,6.8-6.5l.4-.4c4.4-4.3,12.3-11.8,18.4-17.7l4.7-4.6c68.1-12,123.1-45.4,159.1-96.6,32.3-46,47.6-103.9,42.9-163.2-4.7-59.2-28.8-114-67.9-154.2-43.7-45-103.5-69.3-172.8-70.3h-.6s-19.5,19.5-19.5,19.5v107.4h3v-106.1l17.7-17.7c151.8,2.5,228.5,113.1,237.1,221.8,8.6,108.9-49.9,230.5-200,256.7h-.5c0,0-5.4,5.3-5.4,5.3-5.9,5.7-13.5,12.9-17.9,17.2l-.4.4c-1.6,1.5-4.6,4.5-7.2,6.9l-3.7,3.6v93.1l-10.1,10.7c-2.9,0-5.8-.2-8.7-.3l9.3-9.8v-99.7l2-1.9c3.2-3.1,8-7.7,12.5-12,3-2.9,6-5.7,8.3-7.9l11.6-11.1c65.8-8.8,119.9-38.7,156.5-86.4,32.8-42.8,49.6-97.8,47.3-154.9-2.3-57-23.4-110.5-59.4-150.6-40.3-44.8-96.8-70.3-163.3-73.7h-.7s-18,18-18,18v98.7h3v-97.5l16.2-16.2c145.7,7.8,215.1,116.8,219.2,221.4,4.2,104.9-56.6,219.2-201.7,238.3h-.5c0,0-11.9,11.5-11.9,11.5-2.3,2.2-5.4,5.2-8.7,8.4-4.3,4.2-8.9,8.5-12.1,11.6l-3.4,3.2v99.8l-10.3,10.8c-1.8,0-3.6-.2-5.4-.3l8.2-8.7v-110.5c2.7-2.6,9.1-8.7,11.8-11.4l21.3-20.5c63.5-5.5,116.6-31.7,153.7-75.8,33.3-39.6,51.7-91.5,52-146.3.3-54.7-17.7-106.9-50.5-146.8-36.7-44.6-89.8-71.4-153.3-77.4h-.7c0,0-16.8,16.7-16.8,16.7v90.3h3v-89l14.9-14.9c138.4,13.4,200.9,123.9,200.4,221-.5,97.3-64.3,207.4-203.4,219.1h-.6l-21.7,20.8c-2.6,2.5-9.8,9.4-12.5,12l-.7.7v110.6l-9.1,9.6c-2.2-.2-4.5-.4-6.7-.6l7-7.4v-122c6.2-6,13.4-12.9,20.3-19.5l11.1-10.7c61-1.6,113.3-23.7,151.2-63.8,34-36,54.5-84.6,57.7-137,3.2-52.4-11.2-103.1-40.6-143-32.9-44.6-82.3-72.9-142.9-81.8h-.7c0-.1-15.2,15.1-15.2,15.1v80h3v-78.7l13.2-13.3c131.8,19.8,185.8,128.6,180.2,221.5-5.7,93.1-72.7,194.8-206.6,198h-.6s-11.9,11.5-11.9,11.5c-7.1,6.8-14.4,13.9-20.8,20l-.5.4v122.1l-7.8,8.3c-2.1-.2-4.2-.5-6.3-.7l6.9-7.3v-131.7c7.7-7.4,16.9-16.2,25.2-24.2l5.6-5.4c2.3,0,4.5,0,6.8,0,55.1,0,103.4-18.2,139.9-52.8,34.2-32.3,56.2-77.4,62.1-126.9,5.9-49.5-5-98.5-30.6-138-28.7-44.2-73.9-73.9-130.8-85.9l-.8-.2-15.6,15.6v67.7h3v-66.5l13.5-13.5c123.6,26.5,168.7,132.7,158.3,220.4-10.8,90.8-78.8,180.7-206.4,177h-.6s-6.5,6.2-6.5,6.2c-8.5,8.1-17.8,17.1-25.7,24.6l-.5.4v131.8l-7.6,8c-2.4-.3-4.8-.7-7.1-1l5.4-5.7v-134.9c14.4-14.1,29.6-28.9,44.2-43.3l10.9-10.6h63.4v-3h-64.7l-11.7,11.5c-14.8,14.5-30.2,29.6-44.7,43.8l-.5.4v134.9l-6,6.3c-1.8-.3-3.6-.6-5.4-.9l3.4-3.7v-146.3l-.5-.4c-3.5-3.3-9.9-9.7-16.2-15.9-5.5-5.5-10.7-10.6-13.8-13.7l-.2-.2h-.2c-72.5-34.5-116.9-107.7-116.1-191.2.9-83.2,46.5-155.3,119.2-188.3l10,10v63.6h3v-64.9l-12.4-12.4-.9.4c-38,17.1-69.4,44.8-90.8,80.1-20,33-30.7,71.5-31.1,111.4-.4,39.9,9.5,78.6,28.8,111.9,20.5,35.6,51.2,63.9,88.8,81.8,3.1,3,8.2,8.1,13.6,13.5,6,5.9,12.2,12.1,15.8,15.5v143.8l-3.9,4.2c-3.6-.7-7.2-1.4-10.8-2.2l8-7.8v-134.2l-9.1-8.2-.4-.4h0c-1-.9-3.6-3.3-6.9-6.2-.5-.4-.9-.8-1.4-1.3-7.1-6.4-15.9-14.3-16.3-14.8l-.3-.2c-75-39.8-118-119.3-112.4-207.4,5.6-87.8,58.2-160.9,137.2-191l9.6,9.6v77.6h3v-78.8l-11.9-11.9-.9.3c-80.6,30.3-134.3,104.6-140,194-5.7,89.3,37.9,169.8,113.8,210.1.6.5,3,2.7,6.1,5.5.2.2.4.4.6.5.1,0,.2.2.3.3,3.2,2.8,6.8,6.2,9.9,9,.2.2.5.4.7.6,2.4,2.1,4,3.6,5.1,4.6,1.5,1.3,2,1.8,2.3,2l8.1,7.3v131.6l-8.4,8.3c-1.6-.4-3.1-.7-4.7-1.1l5.5-5.2v-128.5l-5.4-5.4c-7.5-7.4-19.7-19.5-23.6-23.4l-.2-.2h-.2c-80.6-43.3-125-128.9-116-223.5,9-94.3,68.5-169.8,155.3-197.2l10.8,10.8v90.3h3v-91.5l-13-13-.9.3c-45.2,14.1-83.9,41.2-111.9,78.5-26.1,34.7-42.1,76.8-46.4,121.6-4.3,44.8,3.5,89.1,22.6,128.1,20.4,41.8,53.2,75.7,94.8,98.1,4.1,4.1,16.1,15.9,23.5,23.3l4.6,4.5v125.9l-6,5.6c-1.4-.4-2.8-.7-4.2-1.1l3.1-2.8v-125.3l-2.9-2.4h0c-.5-.5-3.9-3.4-8.5-7.2-9.8-8.2-24.2-20.4-27.2-22.9h0c0-.1-.6-.5-.6-.5l-.3-.3h-.2c-79-50.4-118.8-141.4-103.8-237.8,15-96.2,80.5-170.8,170.9-194.8l3.9,3.9c3.2,3.2,6.9,6.9,9.2,9.2v101.7h3v-103l-.4-.4c-2.2-2.3-6.2-6.2-9.6-9.6l-5.2-5.2-.8.2c-47,12.3-88.2,38.2-119,75-28.7,34.3-47.7,76.6-54.9,122.5-7.2,45.8-2,91.9,14.9,133.3,18,44.1,49.1,81.2,89.8,107.3v.7h1c2.7,2.3,17.4,14.6,27.3,23,6.8,5.7,8.2,6.9,8.6,7.2h0s1.8,1.5,1.8,1.5v122.6l-3.5,3.2c-1.3-.4-2.7-.8-4-1.1l.2-.2v-118.8l-31.9-30.2-.2-.2c-85.8-53.2-128-150.4-110-253.8,17.9-103,90.1-180.2,188.4-201.5l15.1,15.1v112.3h3v-113.5l-17.1-17.1-.8.2c-51,10.9-96,36.9-130.1,75.1-31.7,35.6-52.9,80.2-61.4,129-8.5,48.8-3.5,97.9,14.3,142.2,19.1,47.5,52.7,87.1,97,114.6l30.9,29.2v116.1l-.6.5c-153.8-46.3-266.2-189.2-266.2-357.9s167.6-373.6,373.6-373.6,373.6,167.6,373.6,373.6-140.3,344.9-322,370.1Z"/>
      </g>
      <g>
        <g>
          <rect class="st46" x="1977.9" y="488.1" width="43.9" height="15.2" transform="translate(2461.3 -1512.3) rotate(89)"/>
          <rect class="st83" x="2637.8" y="476.6" width="43.9" height="15.2" transform="translate(3098.3 -2183.4) rotate(89)"/>
        </g>
        <g>
          <polygon class="st62" points="2005.1 585.7 1995.6 542.9 2010.5 539.5 2019.9 582.3 2005.1 585.7"/>
          <polygon class="st71" points="2649.1 440.4 2639.7 397.6 2654.5 394.2 2664 437.1 2649.1 440.4"/>
        </g>
        <g>
          <polygon class="st35" points="2031.9 652 2013.8 612.1 2027.7 605.7 2045.8 645.6 2031.9 652"/>
          <polygon class="st72" points="2631.9 374.3 2613.8 334.4 2627.7 328 2645.8 367.9 2631.9 374.3"/>
        </g>
        <g>
          <polygon class="st26" points="2071.7 710.9 2045.8 675.7 2058 666.5 2083.9 701.8 2071.7 710.9"/>
          <polygon class="st45" points="2601.6 313.4 2575.7 278.2 2587.9 269 2613.8 304.2 2601.6 313.4"/>
        </g>
        <g>
          <polygon class="st58" points="2123 760.5 2090.4 731.5 2100.4 720 2133 749 2123 760.5"/>
          <polygon class="st15" points="2559.1 260 2526.6 231 2536.6 219.4 2569.2 248.4 2559.1 260"/>
        </g>
        <g>
          <polygon class="st41" points="2185.5 799.2 2147.5 778 2154.8 764.5 2192.8 785.8 2185.5 799.2"/>
          <polygon class="st28" points="2504.7 215.4 2466.8 194.2 2474.1 180.7 2512.1 201.9 2504.7 215.4"/>
        </g>
        <polygon class="st36" points="2444.2 184.5 2402.6 171.8 2407.1 157.1 2448.6 169.8 2444.2 184.5"/>
        <polygon class="st69" points="2379.8 167.3 2336.5 163.5 2337.9 148.1 2381.1 152 2379.8 167.3"/>
        <polygon class="st23" points="2311.7 163.9 2268.6 169.3 2266.7 154 2309.8 148.6 2311.7 163.9"/>
        <g>
          <polygon class="st19" points="2459 806 2417.9 820.1 2413 805.5 2454.1 791.4 2459 806"/>
          <polygon class="st50" points="2246.6 174.4 2205.5 188.5 2200.6 173.9 2241.7 159.8 2246.6 174.4"/>
        </g>
        <g>
          <polygon class="st42" points="2521.2 771.9 2483.9 794.4 2476.1 781.1 2513.4 758.7 2521.2 771.9"/>
          <polygon class="st39" points="2183.5 198.8 2146.2 221.3 2138.4 208 2175.7 185.6 2183.5 198.8"/>
        </g>
        <g>
          <polygon class="st60" points="2574.6 726 2542.6 755.7 2532.3 744.4 2564.2 714.7 2574.6 726"/>
          <polygon class="st14" points="2127.3 235.5 2095.3 265.3 2085 254 2116.9 224.2 2127.3 235.5"/>
        </g>
        <g>
          <polygon class="st9" points="2617.7 669.5 2592.6 705.3 2580.2 696.3 2605.3 660.6 2617.7 669.5"/>
          <polygon class="st5" points="2079.4 283.6 2054.3 319.4 2041.9 310.5 2067 274.7 2079.4 283.6"/>
        </g>
        <g>
          <polygon class="st22" points="2648.2 605.4 2631 645.7 2617 639.6 2634.2 599.3 2648.2 605.4"/>
          <polygon class="st3" points="2042.6 340.4 2025.4 380.7 2011.4 374.5 2028.6 334.3 2042.6 340.4"/>
        </g>
        <g>
          <polygon class="st17" points="2665 535.7 2656.5 578.7 2641.5 575.7 2650.1 532.6 2665 535.7"/>
          <polygon class="st68" points="2018 404.3 2009.5 447.3 1994.6 444.3 2003.1 401.2 2018 404.3"/>
        </g>
      </g>
      <g>
        <g>
          <rect class="st4" x="2328.8" y="822.2" width="35.2" height="13.5" transform="translate(3175.4 -1517.5) rotate(90)"/>
          <rect class="st52" x="2327.3" y="661.6" width="29.4" height="13.5" transform="translate(3010.3 -1673.7) rotate(90)"/>
          <rect class="st89" x="2344.7" y="661.6" width="29.4" height="13.5" transform="translate(3027.7 -1691) rotate(90)"/>
          <rect class="st49" x="2362.1" y="661.6" width="29.4" height="13.5" transform="translate(3045.1 -1708.4) rotate(90)"/>
          <rect class="st30" x="2305.6" y="822.2" width="35.2" height="13.5" transform="translate(3152.2 -1494.3) rotate(90)"/>
          <rect class="st88" x="2283.6" y="822.2" width="35.2" height="13.5" transform="translate(3130.1 -1472.2) rotate(90)"/>
          <rect class="st84" x="2250.5" y="737.8" width="56.1" height="53.5" transform="translate(3043.1 -1514) rotate(90)"/>
          <rect class="st40" x="2387" y="661.5" width="13.6" height="13.6" transform="translate(3062.2 -1725.5) rotate(90)"/>
        </g>
        <g>
          <rect class="st85" x="2116.5" y="682.7" width="27.6" height="9.7" transform="translate(1186.8 -1342.4) rotate(47.2)"/>
          <rect class="st82" x="2113.1" y="649.2" width="27.6" height="9.7" transform="translate(1265 -1397.4) rotate(50.1)"/>
          <rect class="st44" x="2112.9" y="614.2" width="27.6" height="9.7" transform="translate(1495.5 -1504) rotate(57.2)"/>
          <rect class="st74" x="2119.9" y="586.1" width="27.6" height="9.7" transform="translate(1608.2 -1559.8) rotate(60.8)"/>
        </g>
        <g>
          <rect class="st75" x="2121.4" y="281.3" width="27.6" height="9.7" transform="translate(3913.8 -929.4) rotate(138)"/>
          <rect class="st70" x="2154.9" y="278.4" width="27.6" height="9.7" transform="translate(4031.3 -863.1) rotate(140.9)"/>
          <rect class="st20" x="2189.9" y="278.7" width="27.6" height="9.7" transform="translate(4223.5 -642.3) rotate(148)"/>
          <rect class="st73" x="2217.9" y="286.1" width="27.6" height="9.7" transform="translate(4333.5 -513.8) rotate(151.6)"/>
        </g>
        <g>
          <rect class="st67" x="2516.7" y="284.4" width="27.6" height="9.7" transform="translate(4051.9 2331.9) rotate(-133.2)"/>
          <rect class="st18" x="2520.3" y="317.8" width="27.6" height="9.7" transform="translate(3925.9 2464.9) rotate(-130.3)"/>
          <rect class="st21" x="2520.8" y="352.8" width="27.6" height="9.7" transform="translate(3622 2675) rotate(-123.2)"/>
          <rect class="st6" x="2513.9" y="381" width="27.6" height="9.7" transform="translate(3440.6 2774.4) rotate(-119.6)"/>
        </g>
        <g>
          <rect class="st57" x="2521.7" y="679.8" width="27.6" height="9.7" transform="translate(248.4 1975.7) rotate(-44.6)"/>
          <rect class="st86" x="2488.3" y="684.3" width="27.6" height="9.7" transform="translate(173.9 1835.9) rotate(-41.6)"/>
          <rect class="st27" x="2453.3" y="685.6" width="27.6" height="9.7" transform="translate(43.2 1520) rotate(-34.5)"/>
          <rect class="st55" x="2425" y="679.4" width="27.6" height="9.7" transform="translate(-4.6 1351.7) rotate(-31)"/>
        </g>
        <rect class="st11" x="2237" y="331" width="40.4" height="15.6" transform="translate(2596 -1918.4) rotate(90)"/>
        <rect class="st79" x="2257.5" y="331" width="40.4" height="15.6" transform="translate(2616.5 -1938.9) rotate(90)"/>
        <rect class="st47" x="2276.3" y="331" width="40.4" height="15.6" transform="translate(2635.2 -1957.6) rotate(90)"/>
        <rect class="st53" x="2297.1" y="331" width="40.4" height="15.6" transform="translate(2656.1 -1978.5) rotate(90)"/>
        <rect class="st51" x="2317.9" y="331" width="40.4" height="15.6" transform="translate(2676.9 -1999.3) rotate(90)"/>
      </g>
      <g>
        <g>
          <rect class="st43" x="2459.6" y="391.8" width="22.6" height="7.9" transform="translate(3501.8 2675.9) rotate(-123.4)"/>
          <rect class="st32" x="2175.7" y="579.3" width="22.6" height="7.9" transform="translate(2904.9 2729.8) rotate(-123.4)"/>
        </g>
        <g>
          <polygon class="st80" points="2443.8 358 2459.7 374 2454.2 379.6 2438.2 363.5 2443.8 358"/>
          <polygon class="st13" points="2203.7 599.4 2219.7 615.4 2214.1 621 2198.2 604.9 2203.7 599.4"/>
        </g>
        <polygon class="st29" points="2229.5 623.4 2248.4 635.7 2244.1 642.4 2225.2 630 2229.5 623.4"/>
        <polygon class="st7" points="2259.5 641.5 2280.5 649.7 2277.7 657 2256.7 648.9 2259.5 641.5"/>
        <polygon class="st64" points="2427 626.3 2444.3 612.1 2449.3 618.2 2432.1 632.5 2427 626.3"/>
        <g>
          <polygon class="st0" points="2185.3 387.7 2199.3 370.2 2205.4 375.2 2191.5 392.7 2185.3 387.7"/>
          <polygon class="st81" points="2452.4 603.8 2466.4 586.3 2472.6 591.2 2458.6 608.8 2452.4 603.8"/>
        </g>
        <g>
          <polygon class="st77" points="2167.7 419.7 2177.7 399.6 2184.7 403.2 2174.7 423.3 2167.7 419.7"/>
          <polygon class="st31" points="2473.2 575.7 2483.2 555.6 2490.2 559.2 2480.2 579.3 2473.2 575.7"/>
        </g>
        <g>
          <polygon class="st61" points="2157.1 454.5 2162.8 432.7 2170.4 434.8 2164.8 456.5 2157.1 454.5"/>
          <polygon class="st48" points="2487.5 544.2 2493.1 522.4 2500.7 524.4 2495.1 546.2 2487.5 544.2"/>
        </g>
        <g>
          <polygon class="st2" points="2154 491 2155 468.5 2162.9 468.9 2161.9 491.4 2154 491"/>
          <polygon class="st12" points="2495 510 2496 487.5 2503.9 487.9 2502.8 510.4 2495 510"/>
        </g>
        <g>
          <polygon class="st8" points="2158.5 527.3 2154.8 505 2162.6 503.8 2166.2 526.1 2158.5 527.3"/>
          <polygon class="st54" points="2495.3 475.1 2491.6 452.8 2499.4 451.6 2503.1 473.9 2495.3 475.1"/>
        </g>
        <g>
          <polygon class="st16" points="2170.4 562.3 2162.2 541.2 2169.6 538.4 2177.8 559.5 2170.4 562.3"/>
          <polygon class="st78" points="2488.3 440.5 2480.1 419.4 2487.5 416.6 2495.6 437.7 2488.3 440.5"/>
        </g>
      </g>
    </g>
    <path class="st66" d="M2331.6,877.3c-52.1,0-102.6-10.2-150.1-30.3-45.9-19.4-87.2-47.2-122.6-82.6-35.4-35.4-63.2-76.7-82.6-122.6-20.1-47.5-30.3-98.1-30.3-150.1s10.2-102.6,30.3-150.1c19.4-45.9,47.2-87.2,82.6-122.6,35.4-35.4,76.7-63.2,122.6-82.6,47.5-20.1,98.1-30.3,150.1-30.3s102.6,10.2,150.1,30.3c45.9,19.4,87.2,47.2,122.6,82.6,35.4,35.4,63.2,76.7,82.6,122.6,20.1,47.5,30.3,98.1,30.3,150.1s-10.2,102.6-30.3,150.1c-19.4,45.9-47.2,87.2-82.6,122.6-35.4,35.4-76.7,63.2-122.6,82.6-47.5,20.1-98.1,30.3-150.1,30.3ZM2331.6,124.1c-202.7,0-367.6,164.9-367.6,367.6s164.9,367.6,367.6,367.6,367.6-164.9,367.6-367.6-164.9-367.6-367.6-367.6Z"/>
  </g>
</svg>