<?xml version="1.0" encoding="UTF-8"?>
<svg xmlns="http://www.w3.org/2000/svg"
  xmlns:xlink="http://www.w3.org/1999/xlink" width="300px" height="200px" viewBox="0 0 300 200" version="1.1">
  <defs>
    <clipPath id="clip1">
      <path d="M 89.949219 33.949219 L 210 33.949219 L 210 166.101562 L 89.949219 166.101562 Z M 89.949219 33.949219 "/>
    </clipPath>
  </defs>
  <g id="surface1">
    <path style=" stroke:none;fill-rule:evenodd;fill:rgb(75.686276%,76.862746%,75.686276%);fill-opacity:1;" d="M 149.910156 114.808594 C 141.773438 114.808594 135.191406 108.148438 135.191406 100.015625 C 135.191406 91.878906 141.773438 85.296875 149.910156 85.296875 C 158.046875 85.296875 164.703125 91.878906 164.703125 100.015625 C 164.703125 108.148438 158.046875 114.808594 149.910156 114.808594 Z M 149.910156 89.941406 C 144.410156 89.941406 139.839844 94.511719 139.839844 100.011719 C 139.839844 105.511719 144.410156 110.160156 149.910156 110.160156 C 155.410156 110.160156 160.058594 105.589844 160.058594 100.011719 C 160.058594 94.429688 155.488281 89.941406 149.910156 89.941406 Z M 149.910156 89.941406 "/>
    <path style=" stroke:none;fill-rule:evenodd;fill:rgb(75.686276%,76.862746%,75.686276%);fill-opacity:1;" d="M 149.910156 89.941406 C 148.671875 89.941406 147.585938 88.933594 147.585938 87.613281 L 147.585938 59.960938 C 147.585938 58.644531 148.671875 57.636719 149.910156 57.636719 C 151.148438 57.636719 152.234375 58.640625 152.234375 59.960938 L 152.234375 87.613281 C 152.234375 88.929688 151.230469 89.941406 149.910156 89.941406 Z M 149.910156 89.941406 "/>
    <path style=" stroke:none;fill-rule:evenodd;fill:rgb(75.686276%,76.862746%,75.686276%);fill-opacity:1;" d="M 158.746094 93.578125 C 158.125 93.578125 157.503906 93.351562 157.039062 92.886719 C 156.191406 92.035156 156.191406 90.558594 157.039062 89.628906 L 176.640625 70.03125 C 177.570312 69.101562 179.039062 69.101562 179.96875 70.03125 C 180.820312 70.960938 180.820312 72.429688 179.96875 73.359375 L 160.371094 92.878906 C 159.90625 93.34375 159.285156 93.574219 158.746094 93.574219 Z M 158.746094 93.578125 "/>
    <path style=" stroke:none;fill-rule:evenodd;fill:rgb(75.686276%,76.862746%,75.686276%);fill-opacity:1;" d="M 190.039062 102.335938 L 162.386719 102.335938 C 161.070312 102.335938 160.058594 101.328125 160.058594 100.011719 C 160.058594 98.691406 161.066406 97.683594 162.386719 97.683594 L 190.039062 97.683594 C 191.355469 97.683594 192.363281 98.769531 192.363281 100.011719 C 192.363281 101.25 191.359375 102.335938 190.039062 102.335938 Z M 190.039062 102.335938 "/>
    <path style=" stroke:none;fill-rule:evenodd;fill:rgb(75.686276%,76.862746%,75.686276%);fill-opacity:1;" d="M 178.265625 130.691406 C 177.726562 130.691406 177.105469 130.460938 176.640625 130.070312 L 157.039062 110.46875 C 156.191406 109.539062 156.191406 108.070312 157.039062 107.140625 C 157.96875 106.289062 159.441406 106.289062 160.371094 107.140625 L 179.96875 126.738281 C 180.820312 127.671875 180.820312 129.140625 179.96875 130.070312 C 179.503906 130.453125 178.886719 130.691406 178.265625 130.691406 Z M 178.265625 130.691406 "/>
    <path style=" stroke:none;fill-rule:evenodd;fill:rgb(75.686276%,76.862746%,75.686276%);fill-opacity:1;" d="M 149.910156 142.464844 C 148.671875 142.464844 147.585938 141.460938 147.585938 140.140625 L 147.585938 112.484375 C 147.585938 111.171875 148.671875 110.160156 149.910156 110.160156 C 151.148438 110.160156 152.234375 111.164062 152.234375 112.484375 L 152.234375 140.140625 C 152.234375 141.453125 151.230469 142.464844 149.910156 142.464844 Z M 149.910156 142.464844 "/>
    <path style=" stroke:none;fill-rule:evenodd;fill:rgb(75.686276%,76.862746%,75.686276%);fill-opacity:1;" d="M 121.558594 130.691406 C 121.019531 130.691406 120.398438 130.460938 119.933594 130.070312 C 119.003906 129.140625 119.003906 127.671875 119.933594 126.738281 L 139.535156 107.140625 C 140.464844 106.289062 141.933594 106.289062 142.789062 107.140625 C 143.71875 108.070312 143.71875 109.539062 142.789062 110.46875 L 123.269531 130.070312 C 122.804688 130.453125 122.183594 130.691406 121.566406 130.691406 Z M 121.558594 130.691406 "/>
    <path style=" stroke:none;fill-rule:evenodd;fill:rgb(75.686276%,76.862746%,75.686276%);fill-opacity:1;" d="M 137.515625 102.335938 L 109.859375 102.335938 C 108.546875 102.335938 107.535156 101.328125 107.535156 100.011719 C 107.535156 98.691406 108.539062 97.683594 109.859375 97.683594 L 137.515625 97.683594 C 138.828125 97.683594 139.839844 98.769531 139.839844 100.011719 C 139.839844 101.25 138.835938 102.335938 137.515625 102.335938 Z M 137.515625 102.335938 "/>
    <path style=" stroke:none;fill-rule:evenodd;fill:rgb(75.686276%,76.862746%,75.686276%);fill-opacity:1;" d="M 141.15625 93.578125 C 140.535156 93.578125 139.996094 93.351562 139.53125 92.886719 L 119.929688 73.363281 C 119 72.433594 119 70.964844 119.929688 70.035156 C 120.859375 69.105469 122.328125 69.105469 123.261719 70.035156 L 142.78125 89.636719 C 143.710938 90.566406 143.710938 92.035156 142.78125 92.890625 C 142.316406 93.355469 141.773438 93.585938 141.15625 93.585938 Z M 141.15625 93.578125 "/>
    <path style=" stroke:none;fill-rule:evenodd;fill:rgb(75.686276%,76.862746%,75.686276%);fill-opacity:1;" d="M 149.910156 134.71875 C 130.773438 134.71875 115.203125 119.148438 115.203125 100.015625 C 115.203125 80.878906 130.773438 65.308594 149.910156 65.308594 C 169.046875 65.308594 184.613281 80.878906 184.613281 100.015625 C 184.613281 119.148438 169.046875 134.71875 149.910156 134.71875 Z M 149.910156 69.953125 C 133.328125 69.953125 119.851562 83.433594 119.851562 100.015625 C 119.851562 116.59375 133.328125 130.074219 149.910156 130.074219 C 166.488281 130.074219 179.96875 116.59375 179.96875 100.015625 C 179.96875 83.433594 166.488281 69.953125 149.910156 69.953125 Z M 149.910156 69.953125 "/>
    <path style=" stroke:none;fill-rule:evenodd;fill:rgb(75.686276%,76.862746%,75.686276%);fill-opacity:1;" d="M 118.613281 75.21875 C 115.050781 75.21875 112.109375 72.273438 112.109375 68.714844 C 112.109375 65.15625 115.054688 62.210938 118.613281 62.210938 C 122.175781 62.210938 125.121094 65.15625 125.121094 68.714844 C 125.121094 72.273438 122.175781 75.21875 118.613281 75.21875 Z M 118.613281 66.855469 C 117.609375 66.855469 116.753906 67.703125 116.753906 68.714844 C 116.753906 69.726562 117.605469 70.574219 118.613281 70.574219 C 119.625 70.574219 120.476562 69.726562 120.476562 68.714844 C 120.476562 67.703125 119.625 66.855469 118.613281 66.855469 Z M 118.613281 66.855469 "/>
    <path style=" stroke:none;fill-rule:evenodd;fill:rgb(6.666667%,38.82353%,91.764706%);fill-opacity:1;" d="M 149.910156 62.285156 C 146.34375 62.285156 143.40625 59.339844 143.40625 55.773438 C 143.40625 52.210938 146.351562 49.269531 149.910156 49.269531 C 153.46875 49.269531 156.421875 52.214844 156.421875 55.773438 C 156.421875 59.335938 153.554688 62.285156 149.910156 62.285156 Z M 149.910156 53.921875 C 148.90625 53.921875 148.050781 54.769531 148.050781 55.78125 C 148.050781 56.789062 148.898438 57.640625 149.910156 57.640625 C 150.921875 57.640625 151.769531 56.789062 151.769531 55.78125 C 151.769531 54.769531 150.921875 53.921875 149.910156 53.921875 Z M 149.910156 53.921875 "/>
    <path style=" stroke:none;fill-rule:evenodd;fill:rgb(75.686276%,76.862746%,75.686276%);fill-opacity:1;" d="M 181.210938 75.21875 C 177.644531 75.21875 174.78125 72.273438 174.78125 68.714844 C 174.78125 65.15625 177.644531 62.210938 181.210938 62.210938 C 184.773438 62.210938 187.714844 65.15625 187.714844 68.714844 C 187.714844 72.273438 184.851562 75.21875 181.210938 75.21875 Z M 181.210938 66.855469 C 180.203125 66.855469 179.429688 67.703125 179.429688 68.714844 C 179.429688 69.726562 180.203125 70.574219 181.210938 70.574219 C 182.214844 70.574219 183.070312 69.726562 183.070312 68.714844 C 183.070312 67.703125 182.296875 66.855469 181.210938 66.855469 Z M 181.210938 66.855469 "/>
    <path style=" stroke:none;fill-rule:evenodd;fill:rgb(6.666667%,38.82353%,91.764706%);fill-opacity:1;" d="M 194.226562 106.519531 C 190.660156 106.519531 187.71875 103.65625 187.71875 100.015625 C 187.71875 96.375 190.664062 93.511719 194.226562 93.511719 C 197.785156 93.511719 200.730469 96.453125 200.730469 100.015625 C 200.730469 103.574219 197.785156 106.519531 194.226562 106.519531 Z M 194.226562 98.15625 C 193.21875 98.15625 192.363281 99.003906 192.363281 100.015625 C 192.363281 101.023438 193.214844 101.875 194.226562 101.875 C 195.234375 101.875 196.085938 101.101562 196.085938 100.015625 C 196.085938 98.929688 195.234375 98.15625 194.226562 98.15625 Z M 194.226562 98.15625 "/>
    <path style=" stroke:none;fill-rule:evenodd;fill:rgb(6.666667%,38.82353%,91.764706%);fill-opacity:1;" d="M 105.675781 106.519531 C 102.109375 106.519531 99.171875 103.65625 99.171875 100.015625 C 99.171875 96.375 102.113281 93.511719 105.675781 93.511719 C 109.234375 93.511719 112.179688 96.453125 112.179688 100.015625 C 112.179688 103.574219 109.234375 106.519531 105.675781 106.519531 Z M 105.675781 98.15625 C 104.671875 98.15625 103.816406 99.003906 103.816406 100.015625 C 103.816406 101.023438 104.664062 101.875 105.675781 101.875 C 106.683594 101.875 107.535156 101.101562 107.535156 100.015625 C 107.535156 98.929688 106.683594 98.15625 105.675781 98.15625 Z M 105.675781 98.15625 "/>
    <path style=" stroke:none;fill-rule:evenodd;fill:rgb(75.686276%,76.862746%,75.686276%);fill-opacity:1;" d="M 118.613281 137.816406 C 115.050781 137.816406 112.109375 134.949219 112.109375 131.308594 C 112.109375 127.671875 115.054688 124.878906 118.613281 124.878906 C 122.175781 124.878906 125.121094 127.746094 125.121094 131.308594 C 125.121094 134.875 122.175781 137.816406 118.613281 137.816406 Z M 118.613281 129.53125 C 117.609375 129.53125 116.753906 130.304688 116.753906 131.308594 C 116.753906 132.316406 117.605469 133.171875 118.613281 133.171875 C 119.625 133.171875 120.476562 132.394531 120.476562 131.308594 C 120.476562 130.226562 119.625 129.53125 118.613281 129.53125 Z M 118.613281 129.53125 "/>
    <path style=" stroke:none;fill-rule:evenodd;fill:rgb(6.666667%,38.82353%,91.764706%);fill-opacity:1;" d="M 149.910156 150.828125 C 146.34375 150.828125 143.40625 147.886719 143.40625 144.324219 C 143.40625 140.765625 146.351562 137.816406 149.910156 137.816406 C 153.46875 137.816406 156.421875 140.761719 156.421875 144.324219 C 156.421875 147.890625 153.554688 150.828125 149.910156 150.828125 Z M 149.910156 142.464844 C 148.90625 142.464844 148.050781 143.316406 148.050781 144.324219 C 148.050781 145.335938 148.898438 146.183594 149.910156 146.183594 C 150.921875 146.183594 151.769531 145.335938 151.769531 144.324219 C 151.769531 143.316406 150.921875 142.464844 149.910156 142.464844 Z M 149.910156 142.464844 "/>
    <path style=" stroke:none;fill-rule:evenodd;fill:rgb(75.686276%,76.862746%,75.686276%);fill-opacity:1;" d="M 181.210938 137.816406 C 177.644531 137.816406 174.78125 134.949219 174.78125 131.308594 C 174.78125 127.671875 177.644531 124.878906 181.210938 124.878906 C 184.773438 124.878906 187.714844 127.746094 187.714844 131.308594 C 187.714844 134.875 184.851562 137.816406 181.210938 137.816406 Z M 181.210938 129.53125 C 180.203125 129.53125 179.429688 130.304688 179.429688 131.308594 C 179.429688 132.316406 180.203125 133.171875 181.210938 133.171875 C 182.214844 133.171875 183.070312 132.394531 183.070312 131.308594 C 183.070312 130.226562 182.296875 129.53125 181.210938 129.53125 Z M 181.210938 129.53125 "/>
    <path style=" stroke:none;fill-rule:evenodd;fill:rgb(75.686276%,76.862746%,75.686276%);fill-opacity:1;" d="M 149.910156 125.5 C 135.890625 125.5 124.5 114.035156 124.5 100.011719 C 124.5 85.984375 135.890625 74.601562 149.910156 74.601562 C 163.929688 74.601562 175.394531 85.988281 175.394531 100.011719 C 175.394531 114.03125 163.929688 125.5 149.910156 125.5 Z M 149.910156 79.25 C 138.445312 79.25 129.148438 88.546875 129.148438 100.011719 C 129.148438 111.476562 138.445312 120.851562 149.910156 120.851562 C 161.375 120.851562 170.75 111.476562 170.75 100.011719 C 170.75 88.546875 161.375 79.25 149.910156 79.25 Z M 149.910156 79.25 "/>
    <g clip-path="url(#clip1)" clip-rule="nonzero">
      <path style=" stroke:none;fill-rule:evenodd;fill:rgb(75.686276%,76.862746%,75.686276%);fill-opacity:1;" d="M 149.910156 166.09375 C 149.601562 166.09375 149.214844 166.015625 148.90625 165.863281 L 91.191406 136.039062 C 90.414062 135.574219 89.949219 134.800781 89.949219 133.949219 L 89.949219 66.164062 C 89.949219 65.316406 90.414062 64.460938 91.191406 64.074219 L 148.90625 34.25 C 149.523438 33.863281 150.300781 33.863281 150.996094 34.25 L 208.710938 64.074219 C 209.484375 64.464844 209.949219 65.316406 209.949219 66.164062 L 209.949219 133.949219 C 209.949219 134.800781 209.484375 135.574219 208.710938 136.039062 L 150.996094 165.863281 C 150.683594 166.019531 150.300781 166.09375 149.910156 166.09375 Z M 94.601562 132.550781 L 149.914062 161.214844 L 205.304688 132.550781 L 205.304688 67.554688 L 149.914062 38.890625 L 94.601562 67.554688 Z M 94.601562 132.550781 "/>
    </g>
  </g>
</svg>
