<?xml version="1.0" encoding="UTF-8"?>
<svg id="Layer_1" xmlns="http://www.w3.org/2000/svg" version="1.1" xmlns:xlink="http://www.w3.org/1999/xlink" viewBox="0 0 6000 4000">
  <!-- Generator: Adobe Illustrator 29.7.1, SVG Export Plug-In . SVG Version: 2.1.1 Build 8)  -->
  <defs>
    <style>
      .st0 {
        fill: #1163ea;
      }

      .st0, .st1 {
        fill-rule: evenodd;
      }

      .st2 {
        fill: none;
      }

      .st1 {
        fill: #c1c4c1;
      }

      .st3 {
        clip-path: url(#clippath);
      }
    </style>
    <clipPath id="clippath">
      <rect class="st2" x="1799" y="679" width="2401" height="2643"/>
    </clipPath>
  </defs>
  <path class="st1" d="M2998.2,2296.2c-162.7,0-294.4-133.2-294.4-295.9s131.7-294.4,294.4-294.4,295.9,131.7,295.9,294.4-133.2,295.9-295.9,295.9h0ZM2998.2,1798.8c-110,0-201.4,91.4-201.4,201.4s91.4,203,201.4,203,203-91.4,203-203-91.4-201.4-203-201.4h0ZM2998.2,1798.8"/>
  <path class="st1" d="M2998.2,1798.8c-24.8,0-46.5-20.1-46.5-46.5v-553.1c0-26.3,21.7-46.5,46.5-46.5s46.5,20.1,46.5,46.5v553.1c0,26.3-20.1,46.5-46.5,46.5h0ZM2998.2,1798.8"/>
  <path class="st1" d="M3174.9,1871.6c-12.4,0-24.8-4.6-34.1-13.9-17-17-17-46.5,0-65.1l392-392c18.6-18.6,48-18.6,66.6,0,17,18.6,17,48,0,66.6l-392,390.4c-9.3,9.3-21.7,13.9-32.5,13.9h0ZM3174.9,1871.6"/>
  <path class="st1" d="M3800.8,2046.7h-553.1c-26.3,0-46.5-20.1-46.5-46.5s20.1-46.5,46.5-46.5h553.1c26.3,0,46.5,21.7,46.5,46.5s-20.1,46.5-46.5,46.5h0ZM3800.8,2046.7"/>
  <path class="st1" d="M3565.3,2613.8c-10.8,0-23.2-4.6-32.5-12.4l-392-392c-17-18.6-17-48,0-66.6,18.6-17,48-17,66.6,0l392,392c17,18.6,17,48,0,66.6-9.3,7.7-21.7,12.4-34.1,12.4h0ZM3565.3,2613.8"/>
  <path class="st1" d="M2998.2,2849.3c-24.8,0-46.5-20.1-46.5-46.5v-553.1c0-26.3,21.7-46.5,46.5-46.5s46.5,20.1,46.5,46.5v553.1c0,26.3-20.1,46.5-46.5,46.5h0ZM2998.2,2849.3"/>
  <path class="st1" d="M2431.2,2613.8c-10.8,0-23.2-4.6-32.5-12.4-18.6-18.6-18.6-48,0-66.6l392-392c18.6-17,48-17,65.1,0,18.6,18.6,18.6,48,0,66.6l-390.4,392c-9.3,7.7-21.7,12.4-34.1,12.4h0ZM2431.2,2613.8"/>
  <path class="st1" d="M2750.3,2046.7h-553.1c-26.3,0-46.5-20.1-46.5-46.5s20.1-46.5,46.5-46.5h553.1c26.3,0,46.5,21.7,46.5,46.5s-20.1,46.5-46.5,46.5h0ZM2750.3,2046.7"/>
  <path class="st1" d="M2823.1,1871.6c-12.4,0-23.2-4.6-32.5-13.9l-392-390.4c-18.6-18.6-18.6-48,0-66.6,18.6-18.6,48-18.6,66.6,0l390.4,392c18.6,18.6,18.6,48,0,65.1-9.3,9.3-20.1,13.9-32.5,13.9h0ZM2823.1,1871.6"/>
  <path class="st1" d="M2998.2,2694.4c-382.7,0-694.1-311.4-694.1-694.1s311.4-694.1,694.1-694.1,694.1,311.4,694.1,694.1-311.4,694.1-694.1,694.1h0ZM2998.2,1399.1c-331.6,0-601.2,269.6-601.2,601.2s269.6,601.2,601.2,601.2,601.2-269.6,601.2-601.2-269.6-601.2-601.2-601.2h0ZM2998.2,1399.1"/>
  <path class="st1" d="M2372.3,1504.4c-71.3,0-130.1-58.9-130.1-130.1s58.9-130.1,130.1-130.1,130.1,58.9,130.1,130.1-58.9,130.1-130.1,130.1h0ZM2372.3,1337.1c-20.1,0-37.2,17-37.2,37.2s17,37.2,37.2,37.2,37.2-17,37.2-37.2-17-37.2-37.2-37.2h0ZM2372.3,1337.1"/>
  <path class="st0" d="M2998.2,1245.7c-71.3,0-130.1-58.9-130.1-130.2s58.9-130.1,130.1-130.1,130.2,58.9,130.2,130.1-57.3,130.2-130.2,130.2h0ZM2998.2,1078.4c-20.1,0-37.2,17-37.2,37.2s17,37.2,37.2,37.2,37.2-17,37.2-37.2-17-37.2-37.2-37.2h0ZM2998.2,1078.4"/>
  <path class="st1" d="M3624.2,1504.4c-71.3,0-128.6-58.9-128.6-130.1s57.3-130.1,128.6-130.1,130.1,58.9,130.1,130.1-57.3,130.1-130.1,130.1h0ZM3624.2,1337.1c-20.1,0-35.6,17-35.6,37.2s15.5,37.2,35.6,37.2,37.2-17,37.2-37.2-15.5-37.2-37.2-37.2h0ZM3624.2,1337.1"/>
  <path class="st0" d="M3884.5,2130.4c-71.3,0-130.1-57.3-130.1-130.1s58.9-130.1,130.1-130.1,130.1,58.9,130.1,130.1-58.9,130.1-130.1,130.1h0ZM3884.5,1963.1c-20.1,0-37.2,17-37.2,37.2s17,37.2,37.2,37.2,37.2-15.5,37.2-37.2-17-37.2-37.2-37.2h0ZM3884.5,1963.1"/>
  <path class="st0" d="M2113.5,2130.4c-71.3,0-130.1-57.3-130.1-130.1s58.9-130.1,130.1-130.1,130.1,58.9,130.1,130.1-58.9,130.1-130.1,130.1h0ZM2113.5,1963.1c-20.1,0-37.2,17-37.2,37.2s17,37.2,37.2,37.2,37.2-15.5,37.2-37.2-17-37.2-37.2-37.2h0ZM2113.5,1963.1"/>
  <path class="st1" d="M2372.3,2756.3c-71.3,0-130.1-57.3-130.1-130.1s58.9-128.6,130.1-128.6,130.1,57.3,130.1,128.6-58.9,130.1-130.1,130.1h0ZM2372.3,2590.6c-20.1,0-37.2,15.5-37.2,35.6s17,37.2,37.2,37.2,37.2-15.5,37.2-37.2-17-35.6-37.2-35.6h0ZM2372.3,2590.6"/>
  <path class="st0" d="M2998.2,3016.6c-71.3,0-130.1-58.9-130.1-130.1s58.9-130.2,130.1-130.2,130.2,58.9,130.2,130.2-57.3,130.1-130.2,130.1h0ZM2998.2,2849.3c-20.1,0-37.2,17-37.2,37.2s17,37.2,37.2,37.2,37.2-17,37.2-37.2-17-37.2-37.2-37.2h0ZM2998.2,2849.3"/>
  <path class="st1" d="M3624.2,2756.3c-71.3,0-128.6-57.3-128.6-130.1s57.3-128.6,128.6-128.6,130.1,57.3,130.1,128.6-57.3,130.1-130.1,130.1h0ZM3624.2,2590.6c-20.1,0-35.6,15.5-35.6,35.6s15.5,37.2,35.6,37.2,37.2-15.5,37.2-37.2-15.5-35.6-37.2-35.6h0ZM3624.2,2590.6"/>
  <g class="st3">
    <path class="st1" d="M2998.2,2510c-280.4,0-508.2-229.3-508.2-509.8s227.8-508.2,508.2-508.2,509.7,227.8,509.7,508.2-229.3,509.8-509.7,509.8h0ZM2998.2,1585c-229.3,0-415.2,185.9-415.2,415.2s185.9,416.8,415.2,416.8,416.8-187.5,416.8-416.8-187.5-415.2-416.8-415.2h0ZM2998.2,1585"/>
    <path class="st1" d="M2998.2,3321.9c-6.2,0-13.9-1.6-20.1-4.6l-1154.3-596.5c-15.5-9.3-24.8-24.8-24.8-41.8v-1355.7c0-17,9.3-34.1,24.8-41.8l1154.3-596.5c12.4-7.7,27.9-7.7,41.8,0l1154.3,596.5c15.5,7.8,24.8,24.8,24.8,41.8v1355.7c0,17-9.3,32.5-24.8,41.8l-1154.3,596.5c-6.2,3.1-13.9,4.6-21.7,4.6h0ZM1892,2651l1106.3,573.3,1107.8-573.3v-1299.9l-1107.8-573.3-1106.3,573.3v1299.9ZM1892,2651"/>
  </g>
</svg>