<?xml version="1.0" encoding="UTF-8"?>
<svg xmlns="http://www.w3.org/2000/svg"
  xmlns:xlink="http://www.w3.org/1999/xlink" width="300px" height="228px" viewBox="0 0 300 228" version="1.1">
  <g id="surface1">
    <path style=" stroke:none;fill-rule:nonzero;fill:rgb(75.686276%,86.666667%,93.333334%);fill-opacity:1;" d="M 231.660156 118.558594 C 231.660156 75.914062 197.085938 41.339844 154.441406 41.339844 C 111.792969 41.339844 77.21875 75.914062 77.21875 118.558594 C 77.21875 161.207031 111.792969 195.78125 154.441406 195.78125 C 197.085938 195.78125 231.660156 161.207031 231.660156 118.558594 Z M 231.660156 118.558594 "/>
    <path style=" stroke:none;fill-rule:nonzero;fill:rgb(30.19608%,26.666668%,27.450982%);fill-opacity:1;" d="M 201.238281 168.886719 L 200.929688 169.175781 C 200.6875 169.398438 200.230469 169.367188 199.84375 169.109375 L 197.941406 167.84375 C 197.550781 167.585938 197.347656 167.164062 197.460938 166.867188 L 197.605469 166.480469 C 197.8125 165.910156 197.519531 165.277344 196.945312 165.085938 C 195.761719 164.683594 194.550781 164.441406 193.339844 164.371094 C 192.730469 164.335938 192.210938 164.800781 192.1875 165.414062 L 192.167969 165.851562 C 192.15625 166.175781 191.808594 166.480469 191.351562 166.570312 L 189.113281 167.023438 C 188.652344 167.113281 188.214844 166.96875 188.082031 166.667969 L 187.890625 166.246094 C 187.636719 165.695312 186.976562 165.460938 186.433594 165.726562 C 185.328125 166.261719 184.289062 166.945312 183.347656 167.765625 C 182.890625 168.167969 182.863281 168.871094 183.277344 169.3125 L 183.617188 169.679688 C 183.839844 169.921875 183.808594 170.375 183.550781 170.765625 L 182.285156 172.667969 C 182.027344 173.058594 181.609375 173.261719 181.308594 173.148438 L 180.796875 172.957031 C 180.234375 172.746094 179.597656 173.039062 179.398438 173.609375 C 178.980469 174.804688 178.738281 176.027344 178.65625 177.257812 C 178.613281 177.871094 179.089844 178.390625 179.695312 178.410156 L 180.277344 178.433594 C 180.601562 178.445312 180.90625 178.792969 180.996094 179.25 L 181.445312 181.488281 C 181.535156 181.949219 181.390625 182.386719 181.09375 182.519531 L 180.539062 182.773438 C 179.988281 183.023438 179.753906 183.683594 180.019531 184.234375 C 180.558594 185.351562 181.253906 186.402344 182.101562 187.351562 C 182.503906 187.804688 183.199219 187.835938 183.640625 187.421875 L 184.105469 186.988281 C 184.34375 186.769531 184.800781 186.796875 185.191406 187.054688 L 187.09375 188.320312 C 187.480469 188.578125 187.6875 189 187.570312 189.300781 L 187.355469 189.882812 C 187.144531 190.453125 187.441406 191.089844 188.015625 191.285156 C 189.214844 191.695312 190.457031 191.929688 191.695312 191.992188 C 192.300781 192.023438 192.816406 191.554688 192.839844 190.949219 L 192.863281 190.332031 C 192.875 190.007812 193.222656 189.703125 193.679688 189.613281 L 195.917969 189.160156 C 196.378906 189.070312 196.816406 189.214844 196.949219 189.515625 L 197.183594 190.03125 C 197.441406 190.589844 198.109375 190.824219 198.652344 190.546875 C 199.757812 189.996094 200.789062 189.292969 201.726562 188.441406 C 202.171875 188.039062 202.199219 187.34375 201.792969 186.90625 L 201.414062 186.496094 C 201.191406 186.257812 201.222656 185.800781 201.480469 185.410156 L 202.746094 183.511719 C 203.003906 183.121094 203.425781 182.914062 203.722656 183.03125 L 204.179688 183.199219 C 204.75 183.414062 205.390625 183.109375 205.585938 182.53125 C 205.980469 181.34375 206.203125 180.121094 206.269531 178.894531 C 206.296875 178.289062 205.828125 177.78125 205.222656 177.757812 L 204.75 177.738281 C 204.425781 177.726562 204.121094 177.378906 204.03125 176.921875 L 203.578125 174.683594 C 203.488281 174.222656 203.632812 173.785156 203.933594 173.652344 L 204.316406 173.476562 C 204.875 173.226562 205.109375 172.558594 204.835938 172.007812 C 204.292969 170.914062 203.605469 169.890625 202.769531 168.960938 C 202.367188 168.511719 201.671875 168.480469 201.226562 168.894531 Z M 196.21875 180.671875 C 194.785156 182.839844 191.863281 183.425781 189.703125 181.984375 C 187.535156 180.550781 186.949219 177.628906 188.386719 175.46875 C 189.820312 173.308594 192.742188 172.714844 194.902344 174.15625 C 197.070312 175.589844 197.65625 178.511719 196.21875 180.671875 Z M 196.21875 180.671875 "/>
    <path style="fill-rule:nonzero;fill:rgb(100%,100%,100%);fill-opacity:1;stroke-width:5;stroke-linecap:butt;stroke-linejoin:miter;stroke:rgb(30.19608%,26.666668%,27.450982%);stroke-opacity:1;stroke-miterlimit:10;" d="M 3337.825521 2798.567708 L 3332.617188 2803.385417 C 3328.580729 2807.096354 3321.028646 2806.575521 3314.518229 2802.278646 L 3282.8125 2781.184896 C 3276.302083 2776.888021 3272.916667 2769.921875 3274.804688 2764.908854 L 3277.213542 2758.528646 C 3280.729167 2749.023438 3275.78125 2738.411458 3266.210938 2735.221354 C 3246.484375 2728.515625 3226.302083 2724.479167 3206.119792 2723.307292 C 3196.028646 2722.721354 3187.304688 2730.46875 3186.914062 2740.625 L 3186.588542 2747.916667 C 3186.393229 2753.320312 3180.598958 2758.398438 3172.981771 2759.895833 L 3135.677083 2767.382812 C 3127.994792 2768.880208 3120.703125 2766.471354 3118.489583 2761.523438 L 3115.299479 2754.492188 C 3111.067708 2745.3125 3100.130208 2741.40625 3091.015625 2745.768229 C 3072.591146 2754.6875 3055.273438 2766.080729 3039.583333 2779.817708 C 3032.03125 2786.523438 3031.510417 2798.177083 3038.411458 2805.598958 L 3044.075521 2811.71875 C 3047.786458 2815.690104 3047.330729 2823.307292 3042.96875 2829.817708 L 3021.875 2861.523438 C 3017.578125 2867.96875 3010.611979 2871.419271 3005.598958 2869.53125 L 2997.070312 2866.276042 C 2987.695312 2862.825521 2977.083333 2867.708333 2973.828125 2877.213542 C 2966.796875 2897.070312 2962.825521 2917.513021 2961.393229 2938.020833 C 2960.677083 2948.177083 2968.619792 2956.901042 2978.710938 2957.226562 L 2988.411458 2957.617188 C 2993.815104 2957.8125 2998.893229 2963.606771 3000.390625 2971.223958 L 3007.877604 3008.528646 C 3009.375 3016.210938 3007.03125 3023.502604 3002.018229 3025.716146 L 2992.773438 3029.882812 C 2983.59375 3034.114583 2979.6875 3045.117188 2984.114583 3054.296875 C 2993.098958 3072.916667 3004.6875 3090.429688 3018.815104 3106.184896 C 3025.520833 3113.802083 3037.109375 3114.322917 3044.53125 3107.421875 L 3052.213542 3100.195312 C 3056.184896 3096.484375 3063.802083 3097.005208 3070.3125 3101.302083 L 3102.018229 3122.395833 C 3108.528646 3126.692708 3111.914062 3133.723958 3110.026042 3138.671875 L 3106.380208 3148.372396 C 3102.929688 3157.877604 3107.8125 3168.489583 3117.382812 3171.809896 C 3137.369792 3178.580729 3158.072917 3182.486979 3178.710938 3183.59375 C 3188.802083 3184.114583 3197.395833 3176.302083 3197.786458 3166.210938 L 3198.177083 3155.924479 C 3198.372396 3150.520833 3204.231771 3145.377604 3211.783854 3143.880208 L 3249.088542 3136.393229 C 3256.770833 3134.895833 3264.127604 3137.304688 3266.276042 3142.317708 L 3270.182292 3150.911458 C 3274.479167 3160.221354 3285.611979 3164.127604 3294.726563 3159.505208 C 3313.085938 3150.325521 3330.273438 3138.606771 3345.898438 3124.414062 C 3353.320313 3117.708333 3353.776042 3106.119792 3347.005208 3098.828125 L 3340.690104 3091.992188 C 3336.979167 3088.020833 3337.5 3080.403646 3341.796875 3073.893229 L 3362.890625 3042.1875 C 3367.1875 3035.677083 3374.21875 3032.291667 3379.231771 3034.179688 L 3386.783854 3036.979167 C 3396.289063 3040.625 3407.03125 3035.481771 3410.221354 3025.911458 C 3416.796875 3006.119792 3420.507813 2985.677083 3421.614583 2965.299479 C 3422.070313 2955.208333 3414.322917 2946.679688 3404.231771 2946.289062 L 3396.289063 2946.028646 C 3390.885417 2945.768229 3385.807292 2939.973958 3384.309896 2932.421875 L 3376.822917 2895.117188 C 3375.325521 2887.369792 3377.669271 2880.078125 3382.682292 2877.929688 L 3389.127604 2875 C 3398.372396 2870.768229 3402.278646 2859.700521 3397.721354 2850.520833 C 3388.671875 2832.291667 3377.213542 2815.169271 3363.28125 2799.674479 C 3356.575521 2792.1875 3344.986979 2791.731771 3337.630208 2798.567708 Z M 3254.231771 2994.986979 C 3230.273438 3031.119792 3181.575521 3040.885417 3145.572917 3016.927083 C 3109.505208 2992.96875 3099.674479 2944.270833 3123.697917 2908.268229 C 3147.721354 2872.330729 3196.289062 2862.369792 3232.291667 2886.393229 C 3268.424479 2910.286458 3278.190104 2958.984375 3254.231771 2994.986979 Z M 3254.231771 2994.986979 " transform="matrix(0.06,0,0,0.06,0,0)"/>
    <path style=" stroke:none;fill-rule:nonzero;fill:rgb(30.19608%,26.666668%,27.450982%);fill-opacity:1;" d="M 115.519531 50.328125 L 115.375 50.460938 C 115.265625 50.5625 115.054688 50.550781 114.875 50.429688 L 114.007812 49.855469 C 113.824219 49.734375 113.734375 49.546875 113.785156 49.402344 L 113.851562 49.230469 C 113.945312 48.972656 113.8125 48.679688 113.550781 48.589844 C 113.011719 48.402344 112.457031 48.292969 111.898438 48.257812 C 111.625 48.238281 111.382812 48.457031 111.371094 48.730469 L 111.371094 48.929688 C 111.359375 49.078125 111.203125 49.21875 110.992188 49.261719 L 109.972656 49.464844 C 109.765625 49.507812 109.566406 49.441406 109.5 49.300781 L 109.410156 49.109375 C 109.296875 48.859375 108.996094 48.75 108.742188 48.871094 C 108.238281 49.117188 107.765625 49.429688 107.335938 49.800781 C 107.125 49.980469 107.113281 50.304688 107.296875 50.507812 L 107.453125 50.675781 C 107.554688 50.785156 107.542969 50.992188 107.425781 51.175781 L 106.847656 52.042969 C 106.726562 52.222656 106.542969 52.3125 106.398438 52.265625 L 106.164062 52.183594 C 105.90625 52.085938 105.617188 52.21875 105.527344 52.480469 C 105.335938 53.027344 105.226562 53.585938 105.191406 54.148438 C 105.175781 54.425781 105.390625 54.664062 105.664062 54.679688 L 105.929688 54.691406 C 106.078125 54.691406 106.21875 54.851562 106.261719 55.0625 L 106.464844 56.082031 C 106.507812 56.292969 106.441406 56.488281 106.300781 56.554688 L 106.050781 56.671875 C 105.796875 56.785156 105.691406 57.085938 105.808594 57.335938 C 106.054688 57.847656 106.375 58.324219 106.757812 58.757812 C 106.945312 58.960938 107.261719 58.980469 107.460938 58.789062 L 107.671875 58.589844 C 107.777344 58.488281 107.988281 58.5 108.167969 58.621094 L 109.039062 59.195312 C 109.21875 59.316406 109.308594 59.503906 109.261719 59.644531 L 109.164062 59.910156 C 109.066406 60.167969 109.207031 60.460938 109.464844 60.550781 C 110.011719 60.738281 110.578125 60.847656 111.144531 60.875 C 111.421875 60.886719 111.652344 60.679688 111.664062 60.402344 L 111.679688 60.121094 C 111.679688 59.96875 111.839844 59.832031 112.050781 59.789062 L 113.070312 59.585938 C 113.28125 59.542969 113.476562 59.609375 113.542969 59.746094 L 113.652344 59.980469 C 113.765625 60.234375 114.070312 60.34375 114.324219 60.214844 C 114.828125 59.964844 115.300781 59.640625 115.726562 59.257812 C 115.933594 59.070312 115.945312 58.757812 115.757812 58.554688 L 115.585938 58.367188 C 115.480469 58.261719 115.492188 58.050781 115.613281 57.871094 L 116.191406 57 C 116.308594 56.820312 116.496094 56.730469 116.640625 56.777344 L 116.851562 56.855469 C 117.113281 56.953125 117.402344 56.8125 117.492188 56.550781 C 117.671875 56.003906 117.773438 55.445312 117.804688 54.886719 C 117.816406 54.613281 117.605469 54.378906 117.328125 54.367188 L 117.113281 54.367188 C 116.964844 54.355469 116.824219 54.191406 116.785156 53.988281 L 116.578125 52.96875 C 116.539062 52.757812 116.605469 52.558594 116.742188 52.492188 L 116.914062 52.414062 C 117.167969 52.300781 117.277344 51.996094 117.148438 51.742188 C 116.902344 51.246094 116.585938 50.777344 116.207031 50.351562 C 116.023438 50.148438 115.703125 50.136719 115.507812 50.320312 Z M 113.226562 55.710938 C 112.570312 56.699219 111.238281 56.964844 110.25 56.308594 C 109.261719 55.65625 108.996094 54.324219 109.648438 53.335938 C 110.304688 52.34375 111.636719 52.078125 112.625 52.734375 C 113.617188 53.386719 113.878906 54.71875 113.226562 55.710938 Z M 113.226562 55.710938 "/>
    <path style="fill-rule:nonzero;fill:rgb(100%,75.294119%,7.450981%);fill-opacity:1;stroke-width:5;stroke-linecap:butt;stroke-linejoin:miter;stroke:rgb(30.19608%,26.666668%,27.450982%);stroke-opacity:1;stroke-miterlimit:10;" d="M 1917.903646 831.380208 L 1915.494792 833.59375 C 1913.671875 835.286458 1910.221354 835.091146 1907.226563 833.072917 L 1892.708333 823.502604 C 1889.713542 821.484375 1888.216146 818.424479 1888.997396 816.015625 L 1890.104167 813.085938 C 1891.731771 808.789063 1889.518229 803.90625 1885.091146 802.408854 C 1876.106771 799.283854 1866.927083 797.526042 1857.617188 796.875 C 1852.994792 796.614583 1849.023438 800.195313 1848.828125 804.817708 L 1848.828125 808.072917 C 1848.567708 810.611979 1846.028646 812.890625 1842.513021 813.606771 L 1825.520833 816.992188 C 1822.005208 817.708333 1818.684896 816.601563 1817.578125 814.322917 L 1816.080729 811.067708 C 1814.192708 806.901042 1809.179688 805.078125 1805.013021 807.096354 C 1796.614583 811.197917 1788.671875 816.40625 1781.510417 822.591146 C 1777.994792 825.585938 1777.799479 830.989583 1780.924479 834.375 L 1783.528646 837.174479 C 1785.221354 838.997396 1785.026042 842.513021 1783.007813 845.507813 L 1773.372396 860.026042 C 1771.419271 863.020833 1768.294271 864.518229 1765.885417 863.671875 L 1761.979167 862.304688 C 1757.682292 860.677083 1752.929688 862.890625 1751.432292 867.317708 C 1748.177083 876.432292 1746.419271 885.677083 1745.768229 895.117188 C 1745.507813 899.674479 1749.088542 903.710938 1753.710938 903.90625 L 1758.072917 904.101563 C 1760.611979 904.101563 1762.890625 906.770833 1763.606771 910.286458 L 1766.992188 927.278646 C 1767.708333 930.794271 1766.601563 934.114583 1764.322917 935.221354 L 1760.091146 937.109375 C 1755.924479 938.997396 1754.101563 944.010417 1756.119792 948.177083 C 1760.221354 956.705729 1765.494792 964.713542 1771.875 971.875 C 1775 975.325521 1780.273438 975.585938 1783.59375 972.395833 L 1787.109375 969.075521 C 1788.932292 967.382813 1792.382813 967.578125 1795.377604 969.596354 L 1809.895833 979.231771 C 1812.890625 981.184896 1814.388021 984.309896 1813.606771 986.71875 L 1811.979167 991.080729 C 1810.416667 995.377604 1812.695313 1000.325521 1816.992188 1001.822917 C 1826.106771 1004.882813 1835.611979 1006.705729 1844.986979 1007.226563 C 1849.609375 1007.421875 1853.515625 1003.90625 1853.710938 999.283854 L 1853.90625 994.596354 C 1853.90625 992.122396 1856.575521 989.778646 1860.091146 989.127604 L 1877.083333 985.677083 C 1880.598958 985.026042 1883.919271 986.067708 1885.026042 988.411458 L 1886.783854 992.317708 C 1888.671875 996.484375 1893.815104 998.307292 1897.981771 996.223958 C 1906.380208 991.992188 1914.322917 986.588542 1921.419271 980.208333 C 1924.804688 977.083333 1925 971.875 1921.875 968.489583 L 1919.010417 965.429688 C 1917.317708 963.606771 1917.513021 960.091146 1919.53125 957.096354 L 1929.101563 942.578125 C 1931.119792 939.583333 1934.179688 938.085938 1936.588542 938.932292 L 1940.104167 940.169271 C 1944.53125 941.796875 1949.283854 939.518229 1950.78125 935.091146 C 1953.776042 925.976563 1955.46875 916.731771 1955.989583 907.421875 C 1956.184896 902.799479 1952.669271 898.893229 1948.111979 898.697917 L 1944.53125 898.697917 C 1941.992188 898.502604 1939.713542 895.768229 1938.997396 892.382813 L 1935.611979 875.390625 C 1934.895833 871.875 1936.002604 868.619792 1938.28125 867.513021 L 1941.210938 866.210938 C 1945.377604 864.322917 1947.200521 859.179688 1945.117188 855.013021 C 1941.015625 846.679688 1935.677083 838.932292 1929.427083 831.770833 C 1926.302083 828.385417 1921.028646 828.190104 1917.708333 831.315104 Z M 1879.817708 921.09375 C 1868.880208 937.630208 1846.679688 941.992188 1830.208333 931.119792 C 1813.671875 920.182292 1809.309896 897.981771 1820.182292 881.510417 C 1831.119792 864.973958 1853.320313 860.611979 1869.791667 871.484375 C 1886.328125 882.421875 1890.690104 904.622396 1879.817708 921.09375 Z M 1879.817708 921.09375 " transform="matrix(0.06,0,0,0.06,0,0)"/>
    <path style=" stroke:none;fill-rule:nonzero;fill:rgb(30.19608%,26.666668%,27.450982%);fill-opacity:1;" d="M 89.640625 158.28125 L 84.101562 158.28125 C 79.363281 158.28125 75.511719 154.429688 75.511719 149.6875 L 75.511719 141.78125 L 76.109375 141.78125 L 76.109375 149.6875 C 76.109375 154.09375 79.699219 157.679688 84.101562 157.679688 L 89.640625 157.679688 Z M 89.640625 158.28125 "/>
    <path style=" stroke:none;fill-rule:nonzero;fill:rgb(100%,100%,100%);fill-opacity:1;" d="M 164.855469 55.375 L 160.78125 55.367188 L 161.964844 40.222656 L 163.710938 40.222656 Z M 164.855469 55.375 "/>
    <path style=" stroke:none;fill-rule:nonzero;fill:rgb(30.19608%,26.666668%,27.450982%);fill-opacity:1;" d="M 165.019531 55.523438 L 160.613281 55.523438 C 160.613281 55.523438 161.820312 40.074219 161.820312 40.074219 L 163.847656 40.074219 C 163.847656 40.074219 163.859375 40.210938 163.859375 40.210938 L 165.019531 55.519531 Z M 160.945312 55.21875 L 164.699219 55.21875 C 164.699219 55.21875 163.570312 40.375 163.570312 40.375 L 162.101562 40.375 C 162.101562 40.375 160.945312 55.21875 160.945312 55.21875 Z M 160.945312 55.21875 "/>
    <path style=" stroke:none;fill-rule:nonzero;fill:rgb(30.19608%,26.666668%,27.450982%);fill-opacity:1;" d="M 172.90625 57.480469 L 152.722656 57.457031 C 152.722656 54.785156 154.894531 52.625 157.558594 52.625 L 168.078125 52.636719 C 170.746094 52.636719 172.90625 54.808594 172.90625 57.472656 Z M 172.90625 57.480469 "/>
    <path style=" stroke:none;fill-rule:nonzero;fill:rgb(30.19608%,26.666668%,27.450982%);fill-opacity:1;" d="M 165.789062 37.625 C 165.722656 36.003906 164.355469 34.742188 162.734375 34.808594 C 161.113281 34.871094 159.847656 36.238281 159.914062 37.863281 C 159.980469 39.484375 161.347656 40.746094 162.96875 40.683594 C 164.59375 40.617188 165.855469 39.25 165.789062 37.625 Z M 165.789062 37.625 "/>
    <path style=" stroke:none;fill-rule:nonzero;fill:rgb(100%,100%,100%);fill-opacity:1;" d="M 185.359375 57.46875 L 139.320312 57.414062 C 129.9375 57.402344 122.320312 66.226562 122.308594 77.128906 C 122.296875 88.03125 129.894531 96.875 139.277344 96.882812 L 185.316406 96.9375 C 194.699219 96.949219 202.3125 88.121094 202.324219 77.21875 C 202.339844 66.316406 194.742188 57.472656 185.359375 57.46875 Z M 185.359375 57.46875 "/>
    <path style=" stroke:none;fill-rule:nonzero;fill:rgb(30.19608%,26.666668%,27.450982%);fill-opacity:1;" d="M 185.328125 97.085938 L 185.308594 97.085938 L 139.273438 97.03125 C 134.6875 97.03125 130.386719 94.949219 127.152344 91.1875 C 123.925781 87.433594 122.148438 82.441406 122.152344 77.128906 C 122.152344 71.820312 123.949219 66.835938 127.183594 63.085938 C 130.421875 59.335938 134.722656 57.265625 139.296875 57.265625 L 139.3125 57.265625 L 185.351562 57.316406 C 189.9375 57.316406 194.238281 59.398438 197.472656 63.160156 C 200.699219 66.917969 202.476562 71.910156 202.46875 77.21875 C 202.46875 82.53125 200.675781 87.515625 197.441406 91.265625 C 194.203125 95.015625 189.898438 97.085938 185.328125 97.085938 Z M 139.300781 57.5625 C 134.8125 57.5625 130.589844 59.59375 127.410156 63.277344 C 124.21875 66.972656 122.460938 71.890625 122.453125 77.128906 C 122.453125 82.367188 124.199219 87.289062 127.378906 90.988281 C 130.554688 94.6875 134.777344 96.726562 139.273438 96.730469 L 185.308594 96.785156 L 185.328125 96.785156 C 189.816406 96.785156 194.039062 94.757812 197.21875 91.074219 C 200.410156 87.378906 202.171875 82.457031 202.175781 77.21875 C 202.175781 71.980469 200.4375 67.0625 197.25 63.359375 C 194.074219 59.664062 189.851562 57.625 185.359375 57.617188 L 139.320312 57.5625 Z M 139.300781 57.5625 "/>
    <path style=" stroke:none;fill-rule:nonzero;fill:rgb(30.19608%,26.666668%,27.450982%);fill-opacity:1;" d="M 124.734375 67.042969 L 124.710938 87.226562 L 122.574219 87.226562 C 121.085938 87.226562 119.878906 86.015625 119.878906 84.527344 L 119.898438 69.730469 C 119.898438 68.242188 121.109375 67.039062 122.597656 67.039062 L 124.734375 67.039062 Z M 124.734375 67.042969 "/>
    <path style=" stroke:none;fill-rule:nonzero;fill:rgb(30.19608%,26.666668%,27.450982%);fill-opacity:1;" d="M 199.894531 87.3125 L 199.921875 67.128906 L 202.054688 67.128906 C 203.542969 67.128906 204.75 68.339844 204.75 69.828125 L 204.730469 84.625 C 204.730469 86.113281 203.519531 87.316406 202.03125 87.316406 L 199.894531 87.316406 Z M 199.894531 87.3125 "/>
    <path style=" stroke:none;fill-rule:nonzero;fill:rgb(100%,75.294119%,7.450981%);fill-opacity:1;" d="M 179.832031 64.757812 L 144.839844 64.722656 C 137.707031 64.714844 131.921875 70.265625 131.914062 77.117188 C 131.910156 83.96875 137.683594 89.539062 144.816406 89.542969 L 179.808594 89.578125 C 186.941406 89.585938 192.726562 84.035156 192.730469 77.183594 C 192.738281 70.332031 186.964844 64.765625 179.832031 64.757812 Z M 179.832031 64.757812 "/>
    <path style=" stroke:none;fill-rule:nonzero;fill:rgb(30.19608%,26.666668%,27.450982%);fill-opacity:1;" d="M 179.820312 89.730469 L 179.800781 89.730469 L 144.808594 89.695312 C 141.324219 89.695312 138.042969 88.378906 135.582031 86.003906 C 133.117188 83.628906 131.761719 80.472656 131.765625 77.117188 C 131.765625 73.765625 133.132812 70.609375 135.605469 68.238281 C 138.070312 65.875 141.347656 64.570312 144.828125 64.570312 L 144.847656 64.570312 L 179.839844 64.609375 C 183.324219 64.609375 186.605469 65.921875 189.066406 68.296875 C 191.53125 70.675781 192.886719 73.828125 192.882812 77.183594 C 192.882812 80.539062 191.515625 83.695312 189.042969 86.0625 C 186.574219 88.429688 183.300781 89.730469 179.820312 89.730469 Z M 144.828125 64.867188 C 141.425781 64.867188 138.222656 66.136719 135.808594 68.449219 C 133.398438 70.757812 132.066406 73.835938 132.066406 77.113281 C 132.066406 80.386719 133.386719 83.464844 135.792969 85.78125 C 138.199219 88.105469 141.402344 89.382812 144.816406 89.386719 L 179.808594 89.425781 L 179.820312 89.425781 C 186.851562 89.425781 192.574219 83.933594 192.582031 77.179688 C 192.589844 70.414062 186.871094 64.90625 179.832031 64.902344 L 144.839844 64.867188 L 144.820312 64.867188 Z M 144.828125 64.867188 "/>
    <path style=" stroke:none;fill-rule:nonzero;fill:rgb(30.19608%,26.666668%,27.450982%);fill-opacity:1;" d="M 152.304688 72.394531 C 149.691406 69.777344 145.449219 69.777344 142.835938 72.394531 C 140.222656 75.007812 140.222656 79.246094 142.835938 81.863281 C 145.449219 84.476562 149.691406 84.476562 152.304688 81.863281 C 154.921875 79.246094 154.921875 75.007812 152.304688 72.394531 Z M 152.304688 72.394531 "/>
    <path style=" stroke:none;fill-rule:nonzero;fill:rgb(30.19608%,26.666668%,27.450982%);fill-opacity:1;" d="M 181.957031 72.433594 C 179.339844 69.816406 175.101562 69.816406 172.488281 72.433594 C 169.871094 75.046875 169.871094 79.289062 172.488281 81.902344 C 175.101562 84.515625 179.339844 84.515625 181.957031 81.902344 C 184.570312 79.289062 184.570312 75.046875 181.957031 72.433594 Z M 181.957031 72.433594 "/>
    <path style=" stroke:none;fill-rule:nonzero;fill:rgb(30.19608%,26.666668%,27.450982%);fill-opacity:1;" d="M 166.375 158.515625 C 166.375 139.640625 151.074219 124.34375 132.203125 124.34375 C 113.332031 124.34375 98.035156 139.640625 98.035156 158.515625 C 98.035156 177.386719 113.332031 192.683594 132.203125 192.683594 C 151.074219 192.683594 166.375 177.386719 166.375 158.515625 Z M 166.375 158.515625 "/>
    <path style=" stroke:none;fill-rule:nonzero;fill:rgb(100%,75.294119%,7.450981%);fill-opacity:1;" d="M 163.992188 160.246094 C 163.992188 141.375 148.695312 126.078125 129.820312 126.078125 C 110.949219 126.078125 95.652344 141.375 95.652344 160.246094 C 95.652344 179.121094 110.949219 194.417969 129.820312 194.417969 C 148.695312 194.417969 163.992188 179.121094 163.992188 160.246094 Z M 163.992188 160.246094 "/>
    <path style=" stroke:none;fill-rule:nonzero;fill:rgb(30.19608%,26.666668%,27.450982%);fill-opacity:1;" d="M 129.839844 194.574219 C 129.558594 194.574219 129.28125 194.574219 129 194.5625 C 124.566406 194.453125 120.238281 193.5 116.152344 191.722656 C 112.066406 189.949219 108.421875 187.445312 105.3125 184.277344 C 102.097656 181.003906 99.601562 177.148438 97.902344 172.84375 C 96.203125 168.535156 95.394531 164.015625 95.507812 159.425781 C 95.617188 154.992188 96.570312 150.664062 98.347656 146.578125 C 100.121094 142.492188 102.625 138.847656 105.792969 135.738281 C 109.066406 132.523438 112.921875 130.027344 117.226562 128.328125 C 121.535156 126.628906 126.054688 125.820312 130.644531 125.933594 C 135.078125 126.042969 139.402344 126.996094 143.488281 128.773438 C 147.574219 130.546875 151.222656 133.050781 154.332031 136.21875 C 157.546875 139.492188 160.042969 143.347656 161.742188 147.652344 C 163.441406 151.960938 164.25 156.480469 164.136719 161.070312 C 164.027344 165.503906 163.074219 169.828125 161.296875 173.914062 C 159.523438 178.003906 157.019531 181.648438 153.851562 184.757812 C 150.574219 187.972656 146.722656 190.46875 142.414062 192.167969 C 138.371094 193.765625 134.140625 194.574219 129.839844 194.574219 Z M 98.179688 172.726562 C 99.863281 177 102.335938 180.816406 105.523438 184.0625 C 108.601562 187.199219 112.21875 189.683594 116.273438 191.441406 C 120.324219 193.199219 124.613281 194.148438 129.007812 194.257812 C 133.558594 194.363281 138.03125 193.566406 142.300781 191.886719 C 146.574219 190.199219 150.390625 187.726562 153.636719 184.542969 C 156.773438 181.464844 159.257812 177.847656 161.015625 173.789062 C 162.773438 169.738281 163.722656 165.449219 163.828125 161.058594 C 163.9375 156.503906 163.140625 152.035156 161.460938 147.761719 C 159.773438 143.488281 157.300781 139.675781 154.117188 136.429688 C 151.039062 133.289062 147.421875 130.804688 143.363281 129.046875 C 139.3125 127.289062 135.023438 126.34375 130.632812 126.234375 C 126.078125 126.121094 121.609375 126.925781 117.335938 128.605469 C 113.0625 130.289062 109.246094 132.761719 106.003906 135.949219 C 102.863281 139.027344 100.378906 142.644531 98.621094 146.699219 C 96.863281 150.75 95.914062 155.039062 95.808594 159.433594 C 95.699219 163.984375 96.496094 168.457031 98.179688 172.726562 Z M 98.179688 172.726562 "/>
    <path style=" stroke:none;fill-rule:nonzero;fill:rgb(100%,100%,100%);fill-opacity:1;" d="M 156.808594 160.246094 C 156.808594 145.34375 144.726562 133.261719 129.820312 133.261719 C 114.917969 133.261719 102.835938 145.34375 102.835938 160.246094 C 102.835938 175.152344 114.917969 187.234375 129.820312 187.234375 C 144.726562 187.234375 156.808594 175.152344 156.808594 160.246094 Z M 156.808594 160.246094 "/>
    <path style=" stroke:none;fill-rule:nonzero;fill:rgb(30.19608%,26.666668%,27.450982%);fill-opacity:1;" d="M 129.835938 187.390625 C 129.613281 187.390625 129.390625 187.390625 129.167969 187.386719 C 125.65625 187.300781 122.242188 186.546875 119.011719 185.140625 C 115.777344 183.738281 112.890625 181.757812 110.4375 179.25 C 107.890625 176.65625 105.917969 173.617188 104.574219 170.207031 C 103.230469 166.800781 102.59375 163.230469 102.683594 159.601562 C 102.769531 156.089844 103.523438 152.675781 104.929688 149.441406 C 106.332031 146.207031 108.3125 143.320312 110.820312 140.867188 C 113.410156 138.324219 116.453125 136.351562 119.863281 135.007812 C 123.269531 133.660156 126.839844 133.027344 130.46875 133.117188 C 133.980469 133.199219 137.394531 133.957031 140.628906 135.359375 C 143.863281 136.765625 146.746094 138.742188 149.203125 141.253906 C 151.746094 143.84375 153.71875 146.886719 155.0625 150.292969 C 156.40625 153.703125 157.042969 157.273438 156.953125 160.902344 C 156.871094 164.410156 156.113281 167.824219 154.710938 171.058594 C 153.304688 174.292969 151.324219 177.179688 148.816406 179.632812 C 146.226562 182.179688 143.183594 184.152344 139.777344 185.496094 C 136.578125 186.757812 133.234375 187.398438 129.835938 187.398438 Z M 129.804688 133.398438 C 126.4375 133.398438 123.132812 134.027344 119.96875 135.277344 C 116.597656 136.609375 113.59375 138.558594 111.023438 141.070312 C 108.546875 143.503906 106.589844 146.359375 105.199219 149.554688 C 103.8125 152.753906 103.0625 156.132812 102.976562 159.601562 C 102.886719 163.195312 103.519531 166.722656 104.851562 170.09375 C 106.183594 173.464844 108.132812 176.472656 110.644531 179.039062 C 113.074219 181.519531 115.933594 183.472656 119.128906 184.867188 C 122.328125 186.253906 125.707031 187.003906 129.175781 187.085938 C 132.769531 187.175781 136.296875 186.546875 139.667969 185.214844 C 143.039062 183.882812 146.046875 181.933594 148.613281 179.417969 C 151.09375 176.988281 153.046875 174.132812 154.441406 170.933594 C 155.824219 167.734375 156.574219 164.359375 156.660156 160.890625 C 156.75 157.296875 156.121094 153.769531 154.789062 150.394531 C 153.457031 147.023438 151.507812 144.019531 148.992188 141.449219 C 146.5625 138.972656 143.707031 137.015625 140.507812 135.625 C 137.308594 134.238281 133.933594 133.488281 130.464844 133.402344 C 130.242188 133.402344 130.027344 133.398438 129.804688 133.398438 Z M 129.804688 133.398438 "/>
    <path style=" stroke:none;fill-rule:nonzero;fill:rgb(30.19608%,26.666668%,27.450982%);fill-opacity:1;" d="M 129.625 170.410156 C 128.539062 170.902344 127.386719 170.992188 126.175781 170.675781 L 125.359375 172.207031 L 122.855469 170.867188 L 123.671875 169.339844 C 122.753906 168.515625 122.203125 167.515625 122.015625 166.34375 C 121.828125 165.175781 122.050781 164.003906 122.675781 162.835938 L 123.046875 162.136719 L 126.046875 163.351562 L 125.664062 164.074219 C 125.285156 164.777344 125.160156 165.425781 125.273438 166.015625 C 125.386719 166.601562 125.742188 167.050781 126.335938 167.371094 C 126.910156 167.675781 127.457031 167.753906 127.980469 167.605469 C 128.503906 167.453125 128.914062 167.089844 129.222656 166.519531 C 129.546875 165.90625 129.636719 165.1875 129.480469 164.363281 C 129.324219 163.542969 128.980469 162.503906 128.464844 161.242188 C 127.835938 159.742188 127.445312 158.375 127.289062 157.144531 C 127.132812 155.914062 127.355469 154.753906 127.949219 153.636719 C 128.59375 152.429688 129.414062 151.566406 130.410156 151.039062 C 131.40625 150.511719 132.480469 150.394531 133.625 150.703125 L 134.441406 149.171875 L 136.945312 150.511719 L 136.128906 152.039062 C 137.015625 152.824219 137.53125 153.78125 137.675781 154.902344 C 137.8125 156.023438 137.550781 157.207031 136.890625 158.449219 L 136.621094 158.945312 L 133.621094 157.734375 L 133.921875 157.175781 C 134.316406 156.433594 134.476562 155.796875 134.410156 155.257812 C 134.339844 154.714844 134.046875 154.308594 133.53125 154.03125 C 133.007812 153.757812 132.527344 153.703125 132.085938 153.863281 C 131.640625 154.03125 131.25 154.421875 130.925781 155.035156 C 130.601562 155.644531 130.519531 156.34375 130.6875 157.121094 C 130.855469 157.902344 131.183594 158.964844 131.6875 160.300781 C 132.304688 161.867188 132.691406 163.253906 132.851562 164.449219 C 133.015625 165.640625 132.796875 166.792969 132.203125 167.910156 C 131.578125 169.078125 130.722656 169.90625 129.640625 170.398438 Z M 129.625 170.410156 "/>
    <path style=" stroke:none;fill-rule:nonzero;fill:rgb(30.19608%,26.666668%,27.450982%);fill-opacity:1;" d="M 224.875 156.835938 L 157.9375 156.875 C 153.996094 156.875 150.792969 153.683594 150.792969 149.742188 L 150.769531 112.453125 C 150.769531 108.511719 153.960938 105.304688 157.902344 105.304688 L 224.839844 105.265625 C 228.78125 105.265625 231.984375 108.457031 231.984375 112.398438 L 232.007812 149.6875 C 232.007812 153.628906 228.816406 156.835938 224.875 156.835938 Z M 224.875 156.835938 "/>
    <path style=" stroke:none;fill-rule:nonzero;fill:rgb(100%,75.294119%,7.450981%);fill-opacity:1;" d="M 222.035156 156.433594 L 155.101562 156.472656 C 151.15625 156.472656 147.953125 153.28125 147.953125 149.339844 L 147.929688 112.050781 C 147.929688 108.109375 151.121094 104.902344 155.0625 104.902344 L 222 104.863281 C 225.941406 104.863281 229.144531 108.054688 229.144531 111.996094 L 229.171875 149.285156 C 229.171875 153.226562 225.976562 156.433594 222.035156 156.433594 Z M 222.035156 156.433594 "/>
    <path style=" stroke:none;fill-rule:nonzero;fill:rgb(30.19608%,26.666668%,27.450982%);fill-opacity:1;" d="M 155.09375 156.625 C 151.074219 156.625 147.804688 153.355469 147.804688 149.339844 L 147.78125 112.050781 C 147.78125 110.101562 148.535156 108.269531 149.910156 106.890625 C 151.285156 105.511719 153.113281 104.753906 155.0625 104.746094 L 222 104.707031 C 223.945312 104.707031 225.773438 105.460938 227.152344 106.835938 C 228.535156 108.210938 229.289062 110.039062 229.296875 111.988281 L 229.320312 149.28125 C 229.320312 151.230469 228.5625 153.058594 227.191406 154.441406 C 225.816406 155.820312 223.984375 156.574219 222.035156 156.582031 L 222.035156 156.433594 C 222.035156 156.433594 222.035156 156.582031 222.035156 156.582031 L 155.101562 156.625 Z M 222.007812 105.011719 L 155.070312 105.054688 C 151.210938 105.054688 148.078125 108.199219 148.085938 112.050781 L 148.109375 149.339844 C 148.109375 151.207031 148.84375 152.964844 150.160156 154.285156 C 151.480469 155.605469 153.234375 156.328125 155.101562 156.328125 L 222.035156 156.289062 C 225.894531 156.289062 229.027344 153.148438 229.019531 149.292969 L 228.996094 112.003906 C 228.996094 110.136719 228.265625 108.378906 226.945312 107.058594 C 225.625 105.738281 223.871094 105.011719 222.007812 105.011719 Z M 222.007812 105.011719 "/>
    <path style=" stroke:none;fill-rule:nonzero;fill:rgb(30.19608%,26.666668%,27.450982%);fill-opacity:1;" d="M 155.984375 141.980469 L 169.746094 141.957031 L 169.75 143.929688 L 155.988281 143.957031 Z M 155.984375 141.980469 "/>
    <path style=" stroke:none;fill-rule:nonzero;fill:rgb(30.19608%,26.666668%,27.450982%);fill-opacity:1;" d="M 155.890625 119.773438 L 169.652344 119.675781 L 169.734375 131.050781 L 155.96875 131.148438 Z M 155.890625 119.773438 "/>
    <path style=" stroke:none;fill-rule:nonzero;fill:rgb(30.19608%,26.666668%,27.450982%);fill-opacity:1;" d="M 172.878906 141.953125 L 186.644531 141.929688 L 186.648438 143.902344 L 172.882812 143.925781 Z M 172.878906 141.953125 "/>
    <path style=" stroke:none;fill-rule:nonzero;fill:rgb(30.19608%,26.666668%,27.450982%);fill-opacity:1;" d="M 189.773438 141.921875 L 203.539062 141.898438 L 203.542969 143.871094 L 189.777344 143.898438 Z M 189.773438 141.921875 "/>
    <path style=" stroke:none;fill-rule:nonzero;fill:rgb(30.19608%,26.666668%,27.450982%);fill-opacity:1;" d="M 206.671875 141.894531 L 220.433594 141.867188 L 220.4375 143.84375 L 206.675781 143.867188 Z M 206.671875 141.894531 "/>
    <path style=" stroke:none;fill-rule:nonzero;fill:rgb(30.19608%,26.666668%,27.450982%);fill-opacity:1;" d="M 232.609375 95.027344 C 225.824219 88.238281 214.820312 88.238281 208.035156 95.027344 C 201.25 101.8125 201.25 112.8125 208.035156 119.597656 C 214.820312 126.382812 225.824219 126.382812 232.609375 119.597656 C 239.394531 112.8125 239.394531 101.8125 232.609375 95.027344 Z M 232.609375 95.027344 "/>
    <path style=" stroke:none;fill-rule:nonzero;fill:rgb(100%,100%,100%);fill-opacity:1;" d="M 240.839844 107.316406 C 240.839844 97.71875 233.058594 89.941406 223.464844 89.941406 C 213.867188 89.941406 206.089844 97.71875 206.089844 107.316406 C 206.089844 116.914062 213.867188 124.691406 223.464844 124.691406 C 233.058594 124.691406 240.839844 116.914062 240.839844 107.316406 Z M 240.839844 107.316406 "/>
    <path style=" stroke:none;fill-rule:nonzero;fill:rgb(30.19608%,26.666668%,27.450982%);fill-opacity:1;" d="M 223.453125 124.84375 C 219.007812 124.84375 214.789062 123.1875 211.519531 120.136719 C 208.09375 116.945312 206.117188 112.613281 205.949219 107.933594 C 205.78125 103.253906 207.449219 98.796875 210.640625 95.371094 C 213.835938 91.945312 218.164062 89.96875 222.847656 89.800781 C 227.527344 89.640625 231.984375 91.300781 235.410156 94.492188 C 238.835938 97.6875 240.808594 102.019531 240.976562 106.699219 C 241.144531 111.378906 239.476562 115.835938 236.285156 119.261719 C 233.09375 122.6875 228.761719 124.660156 224.082031 124.828125 C 223.871094 124.835938 223.65625 124.84375 223.445312 124.84375 Z M 223.480469 90.089844 C 223.273438 90.089844 223.066406 90.089844 222.859375 90.101562 C 218.261719 90.265625 214.003906 92.207031 210.863281 95.574219 C 207.726562 98.941406 206.089844 103.324219 206.25 107.921875 C 206.410156 112.519531 208.355469 116.777344 211.722656 119.914062 C 214.9375 122.910156 219.078125 124.535156 223.453125 124.535156 C 223.660156 124.535156 223.867188 124.535156 224.074219 124.523438 C 228.671875 124.363281 232.933594 122.417969 236.070312 119.050781 C 239.207031 115.6875 240.847656 111.300781 240.683594 106.703125 C 240.523438 102.109375 238.578125 97.847656 235.210938 94.710938 C 231.996094 91.714844 227.855469 90.089844 223.480469 90.089844 Z M 223.480469 90.089844 "/>
    <path style=" stroke:none;fill-rule:nonzero;fill:rgb(30.19608%,26.666668%,27.450982%);fill-opacity:1;" d="M 228.796875 100.480469 L 223.207031 108.703125 C 222.761719 109.355469 221.777344 109.320312 221.382812 108.628906 L 219.058594 104.59375 C 218.730469 104.015625 217.960938 103.871094 217.445312 104.296875 L 215.292969 106.0625 C 214.835938 106.433594 214.765625 107.113281 215.136719 107.566406 L 221.183594 115.0625 C 221.605469 115.578125 222.382812 115.597656 222.820312 115.105469 L 232.828125 103.847656 C 233.226562 103.402344 233.183594 102.714844 232.734375 102.324219 L 230.386719 100.277344 C 229.902344 99.851562 229.152344 99.949219 228.792969 100.480469 Z M 228.796875 100.480469 "/>
    <path style=" stroke:none;fill-rule:nonzero;fill:rgb(30.19608%,26.666668%,27.450982%);fill-opacity:1;" d="M 87.257812 69.316406 L 55.960938 124.410156 C 52.84375 129.898438 56.839844 136.710938 63.15625 136.667969 L 126.511719 136.222656 C 132.828125 136.183594 136.726562 129.3125 133.53125 123.863281 L 101.464844 69.214844 C 98.269531 63.769531 90.371094 63.820312 87.253906 69.316406 Z M 87.257812 69.316406 "/>
    <path style=" stroke:none;fill-rule:nonzero;fill:rgb(100%,75.294119%,7.450981%);fill-opacity:1;" d="M 83.136719 69.316406 L 51.839844 124.410156 C 48.71875 129.898438 52.714844 136.710938 59.035156 136.667969 L 122.386719 136.222656 C 128.707031 136.183594 132.605469 129.3125 129.40625 123.863281 L 97.34375 69.214844 C 94.144531 63.769531 86.25 63.820312 83.128906 69.316406 Z M 83.136719 69.316406 "/>
    <path style=" stroke:none;fill-rule:nonzero;fill:rgb(30.19608%,26.666668%,27.450982%);fill-opacity:1;" d="M 58.972656 136.816406 C 55.980469 136.816406 53.285156 135.277344 51.769531 132.691406 C 50.238281 130.085938 50.21875 126.960938 51.707031 124.332031 L 83.003906 69.238281 C 84.496094 66.613281 87.191406 65.035156 90.210938 65.011719 C 90.226562 65.011719 90.253906 65.011719 90.269531 65.011719 C 93.265625 65.011719 95.957031 66.550781 97.476562 69.136719 L 129.539062 123.785156 C 131.070312 126.390625 131.089844 129.515625 129.601562 132.144531 C 128.105469 134.773438 125.410156 136.351562 122.394531 136.375 L 59.039062 136.816406 C 59.023438 136.816406 58.996094 136.816406 58.980469 136.816406 Z M 83.136719 69.316406 L 83.269531 69.390625 L 51.972656 124.480469 C 50.53125 127.015625 50.554688 130.027344 52.027344 132.539062 C 53.488281 135.035156 56.082031 136.519531 58.972656 136.519531 C 58.992188 136.519531 59.015625 136.519531 59.035156 136.519531 L 122.386719 136.074219 C 125.296875 136.054688 127.894531 134.53125 129.335938 132 C 130.777344 129.46875 130.753906 126.457031 129.28125 123.941406 L 97.21875 69.292969 C 95.742188 66.78125 93.125 65.296875 90.214844 65.316406 C 87.304688 65.335938 84.707031 66.859375 83.269531 69.390625 Z M 83.136719 69.316406 "/>
    <path style=" stroke:none;fill-rule:nonzero;fill:rgb(30.19608%,26.666668%,27.450982%);fill-opacity:1;" d="M 86.96875 122.0625 C 86.953125 119.902344 88.722656 117.984375 90.949219 117.964844 C 93.175781 117.949219 94.96875 119.84375 94.980469 122.011719 C 94.996094 124.171875 93.226562 126.03125 91.003906 126.042969 C 88.777344 126.058594 86.980469 124.222656 86.96875 122.0625 Z M 94.21875 85.511719 C 94.234375 87.863281 93.574219 93.910156 92.8125 102.816406 L 92.050781 111.660156 L 89.761719 111.679688 L 88.871094 102.847656 C 87.984375 93.949219 87.238281 87.910156 87.222656 85.558594 C 87.203125 82.824219 88.53125 81.671875 90.691406 81.652344 C 92.851562 81.636719 94.195312 82.777344 94.210938 85.507812 Z M 94.21875 85.511719 "/>
  </g>
</svg>
