<?xml version="1.0" encoding="UTF-8"?>
<svg xmlns="http://www.w3.org/2000/svg" version="1.1" viewBox="0 0 5000 3800">
  <!-- Generator: Adobe Illustrator 29.7.1, SVG Export Plug-In . SVG Version: 2.1.1 Build 8)  -->
  <defs>
    <style>
      .st0 {
        fill: #c1ddee;
      }

      .st1, .st2 {
        fill: #ffc013;
      }

      .st1, .st3 {
        stroke: #4d4446;
        stroke-miterlimit: 10;
        stroke-width: 5px;
      }

      .st4, .st3 {
        fill: #fff;
      }

      .st5 {
        fill: #4d4446;
      }
    </style>
  </defs>
  <g id="circle">
    <circle class="st0" cx="2574" cy="1976" r="1287"/>
  </g>
  <g id="gears">
    <g>
      <path class="st5" d="M3354,2814.8l-5.2,4.8c-4,3.7-11.6,3.2-18.1-1.1l-31.7-21.1c-6.5-4.3-9.9-11.3-8-16.3l2.4-6.4c3.5-9.5-1.4-20.1-11-23.3-19.7-6.7-39.9-10.7-60.1-11.9-10.1-.6-18.8,7.2-19.2,17.4l-.3,7.3c-.2,5.4-6,10.5-13.6,12l-37.3,7.5c-7.7,1.5-15-.9-17.2-5.9l-3.2-7c-4.2-9.2-15.2-13.1-24.3-8.7-18.4,8.9-35.7,20.3-51.4,34-7.6,6.7-8.1,18.4-1.2,25.8l5.7,6.1c3.7,4,3.2,11.6-1.1,18.1l-21.1,31.7c-4.3,6.5-11.3,9.9-16.3,8l-8.5-3.2c-9.4-3.5-20,1.4-23.3,10.9-7,19.9-11,40.3-12.4,60.8-.7,10.2,7.2,18.9,17.3,19.2l9.7.4c5.4.2,10.5,6,12,13.6l7.5,37.3c1.5,7.7-.9,15-5.9,17.2l-9.2,4.2c-9.2,4.2-13.1,15.2-8.7,24.4,9,18.6,20.6,36.1,34.7,51.9,6.7,7.6,18.3,8.1,25.7,1.2l7.7-7.2c4-3.7,11.6-3.2,18.1,1.1l31.7,21.1c6.5,4.3,9.9,11.3,8,16.3l-3.6,9.7c-3.5,9.5,1.4,20.1,11,23.4,20,6.8,40.7,10.7,61.3,11.8,10.1.5,18.7-7.3,19.1-17.4l.4-10.3c.2-5.4,6-10.5,13.6-12l37.3-7.5c7.7-1.5,15,.9,17.2,5.9l3.9,8.6c4.3,9.3,15.4,13.2,24.5,8.6,18.4-9.2,35.6-20.9,51.2-35.1,7.4-6.7,7.9-18.3,1.1-25.6l-6.3-6.8c-3.7-4-3.2-11.6,1.1-18.1l21.1-31.7c4.3-6.5,11.3-9.9,16.3-8l7.6,2.8c9.5,3.6,20.2-1.5,23.4-11.1,6.6-19.8,10.3-40.2,11.4-60.6.5-10.1-7.3-18.6-17.4-19l-7.9-.3c-5.4-.2-10.5-6-12-13.6l-7.5-37.3c-1.5-7.7.9-15,5.9-17.2l6.4-2.9c9.3-4.2,13.2-15.3,8.6-24.5-9-18.2-20.5-35.3-34.4-50.8-6.7-7.5-18.3-8-25.7-1.1ZM3270.3,3011.2c-23.9,36.1-72.6,45.9-108.6,21.9-36.1-23.9-45.9-72.6-21.9-108.6,23.9-36,72.6-45.9,108.6-21.9,36.1,23.9,45.9,72.6,21.9,108.6Z"/>
      <path class="st3" d="M3337.8,2798.6l-5.2,4.8c-4,3.7-11.6,3.2-18.1-1.1l-31.7-21.1c-6.5-4.3-9.9-11.3-8-16.3l2.4-6.4c3.5-9.5-1.4-20.1-11-23.3-19.7-6.7-39.9-10.7-60.1-11.9-10.1-.6-18.8,7.2-19.2,17.3l-.3,7.3c-.2,5.4-6,10.5-13.6,12l-37.3,7.5c-7.7,1.5-15-.9-17.2-5.9l-3.2-7c-4.2-9.2-15.2-13.1-24.3-8.7-18.4,8.9-35.7,20.3-51.4,34-7.6,6.7-8.1,18.4-1.2,25.8l5.7,6.1c3.7,4,3.2,11.6-1.1,18.1l-21.1,31.7c-4.3,6.5-11.3,9.9-16.3,8l-8.5-3.2c-9.4-3.5-20,1.4-23.3,10.9-7,19.9-11,40.3-12.4,60.8-.7,10.2,7.2,18.9,17.3,19.2l9.7.4c5.4.2,10.5,6,12,13.6l7.5,37.3c1.5,7.7-.9,15-5.9,17.2l-9.2,4.2c-9.2,4.2-13.1,15.2-8.7,24.4,9,18.6,20.6,36.1,34.7,51.9,6.7,7.6,18.3,8.1,25.7,1.2l7.7-7.2c4-3.7,11.6-3.2,18.1,1.1l31.7,21.1c6.5,4.3,9.9,11.3,8,16.3l-3.6,9.7c-3.5,9.5,1.4,20.1,11,23.4,20,6.8,40.7,10.7,61.3,11.8,10.1.5,18.7-7.3,19.1-17.4l.4-10.3c.2-5.4,6-10.5,13.6-12l37.3-7.5c7.7-1.5,15,.9,17.2,5.9l3.9,8.6c4.3,9.3,15.4,13.2,24.5,8.6,18.4-9.2,35.6-20.9,51.2-35.1,7.4-6.7,7.9-18.3,1.1-25.6l-6.3-6.8c-3.7-4-3.2-11.6,1.1-18.1l21.1-31.7c4.3-6.5,11.3-9.9,16.3-8l7.6,2.8c9.5,3.6,20.2-1.5,23.4-11.1,6.6-19.8,10.3-40.2,11.4-60.6.5-10.1-7.3-18.6-17.4-19l-7.9-.3c-5.4-.2-10.5-6-12-13.6l-7.5-37.3c-1.5-7.7.9-15,5.9-17.2l6.4-2.9c9.3-4.2,13.2-15.3,8.6-24.5-9-18.2-20.5-35.3-34.4-50.8-6.7-7.5-18.3-8-25.7-1.1ZM3254.2,2995c-23.9,36.1-72.6,45.9-108.6,21.9-36.1-23.9-45.9-72.6-21.9-108.6s72.6-45.9,108.6-21.9c36.1,23.9,45.9,72.6,21.9,108.6Z"/>
    </g>
    <g>
      <path class="st5" d="M1925.3,838.8l-2.4,2.2c-1.8,1.7-5.3,1.5-8.3-.5l-14.5-9.6c-3-2-4.5-5.1-3.7-7.5l1.1-2.9c1.6-4.3-.6-9.2-5-10.7-9-3.1-18.2-4.9-27.5-5.5-4.6-.3-8.6,3.3-8.8,7.9v3.3c-.2,2.5-2.8,4.8-6.3,5.5l-17,3.4c-3.5.7-6.8-.4-7.9-2.7l-1.5-3.2c-1.9-4.2-6.9-6-11.1-4-8.4,4.1-16.3,9.3-23.5,15.5-3.5,3-3.7,8.4-.6,11.8l2.6,2.8c1.7,1.8,1.5,5.3-.5,8.3l-9.6,14.5c-2,3-5.1,4.5-7.5,3.7l-3.9-1.4c-4.3-1.6-9.1.6-10.6,5-3.2,9.1-5,18.4-5.6,27.8-.3,4.6,3.3,8.6,7.9,8.8l4.4.2c2.5,0,4.8,2.7,5.5,6.2l3.4,17c.7,3.5-.4,6.8-2.7,7.9l-4.2,1.9c-4.2,1.9-6,6.9-4,11.1,4.1,8.5,9.4,16.5,15.8,23.7,3.1,3.4,8.4,3.7,11.7.5l3.5-3.3c1.8-1.7,5.3-1.5,8.3.5l14.5,9.6c3,2,4.5,5.1,3.7,7.5l-1.6,4.4c-1.6,4.3.7,9.2,5,10.7,9.1,3.1,18.6,4.9,28,5.4,4.6.2,8.5-3.3,8.7-7.9l.2-4.7c0-2.5,2.7-4.8,6.2-5.5l17-3.4c3.5-.7,6.8.4,7.9,2.7l1.8,3.9c1.9,4.2,7,6,11.2,3.9,8.4-4.2,16.3-9.6,23.4-16,3.4-3.1,3.6-8.3.5-11.7l-2.9-3.1c-1.7-1.8-1.5-5.3.5-8.3l9.6-14.5c2-3,5.1-4.5,7.5-3.7l3.5,1.3c4.4,1.6,9.2-.7,10.7-5.1,3-9.1,4.7-18.4,5.2-27.7.2-4.6-3.3-8.5-7.9-8.7h-3.6c-2.5-.2-4.8-2.9-5.5-6.3l-3.4-17c-.7-3.5.4-6.8,2.7-7.9l2.9-1.3c4.2-1.9,6-7,3.9-11.2-4.1-8.3-9.4-16.1-15.7-23.2-3.1-3.4-8.4-3.6-11.7-.5ZM1887.1,928.5c-10.9,16.5-33.1,20.9-49.6,10-16.5-10.9-20.9-33.1-10-49.6,10.9-16.5,33.1-20.9,49.6-10,16.5,10.9,20.9,33.1,10,49.6Z"/>
      <path class="st1" d="M1917.9,831.4l-2.4,2.2c-1.8,1.7-5.3,1.5-8.3-.5l-14.5-9.6c-3-2-4.5-5.1-3.7-7.5l1.1-2.9c1.6-4.3-.6-9.2-5-10.7-9-3.1-18.2-4.9-27.5-5.5-4.6-.3-8.6,3.3-8.8,7.9v3.3c-.2,2.5-2.8,4.8-6.3,5.5l-17,3.4c-3.5.7-6.8-.4-7.9-2.7l-1.5-3.2c-1.9-4.2-6.9-6-11.1-4-8.4,4.1-16.3,9.3-23.5,15.5-3.5,3-3.7,8.4-.6,11.8l2.6,2.8c1.7,1.8,1.5,5.3-.5,8.3l-9.6,14.5c-2,3-5.1,4.5-7.5,3.7l-3.9-1.4c-4.3-1.6-9.1.6-10.6,5-3.2,9.1-5,18.4-5.6,27.8-.3,4.6,3.3,8.6,7.9,8.8l4.4.2c2.5,0,4.8,2.7,5.5,6.2l3.4,17c.7,3.5-.4,6.8-2.7,7.9l-4.2,1.9c-4.2,1.9-6,6.9-4,11.1,4.1,8.5,9.4,16.5,15.8,23.7,3.1,3.4,8.4,3.7,11.7.5l3.5-3.3c1.8-1.7,5.3-1.5,8.3.5l14.5,9.6c3,2,4.5,5.1,3.7,7.5l-1.6,4.4c-1.6,4.3.7,9.2,5,10.7,9.1,3.1,18.6,4.9,28,5.4,4.6.2,8.5-3.3,8.7-7.9l.2-4.7c0-2.5,2.7-4.8,6.2-5.5l17-3.4c3.5-.7,6.8.4,7.9,2.7l1.8,3.9c1.9,4.2,7,6,11.2,3.9,8.4-4.2,16.3-9.6,23.4-16,3.4-3.1,3.6-8.3.5-11.7l-2.9-3.1c-1.7-1.8-1.5-5.3.5-8.3l9.6-14.5c2-3,5.1-4.5,7.5-3.7l3.5,1.3c4.4,1.6,9.2-.7,10.7-5.1,3-9.1,4.7-18.4,5.2-27.7.2-4.6-3.3-8.5-7.9-8.7h-3.6c-2.5-.2-4.8-2.9-5.5-6.3l-3.4-17c-.7-3.5.4-6.8,2.7-7.9l2.9-1.3c4.2-1.9,6-7,3.9-11.2-4.1-8.3-9.4-16.1-15.7-23.2-3.1-3.4-8.4-3.6-11.7-.5ZM1879.8,921.1c-10.9,16.5-33.1,20.9-49.6,10-16.5-10.9-20.9-33.1-10-49.6,10.9-16.5,33.1-20.9,49.6-10,16.5,10.9,20.9,33.1,10,49.6Z"/>
    </g>
  </g>
  <g id="line">
    <path class="st5" d="M1494,2638h-92.3c-79,0-143.2-64.2-143.2-143.2v-131.8h10v131.8c0,73.4,59.8,133.2,133.2,133.2h92.3v10Z"/>
  </g>
  <g id="robot">
    <g>
      <polygon class="st4" points="2747.6 922.9 2679.7 922.8 2699.4 670.4 2728.5 670.4 2747.6 922.9"/>
      <path class="st5" d="M2750.3,925.4h-73.4c0,0,20.1-257.5,20.1-257.5h33.8s.2,2.3.2,2.3l19.3,255.1ZM2682.4,920.3h62.6c0,0-18.8-247.4-18.8-247.4h-24.5s-19.3,247.4-19.3,247.4Z"/>
    </g>
    <path class="st5" d="M2881.8,958l-336.4-.4h0c0-44.5,36.2-80.5,80.6-80.5l175.3.2c44.5,0,80.5,36.2,80.5,80.6h0Z"/>
    <g>
      <circle class="st5" cx="2714" cy="630" r="49" transform="translate(-22.9 108.5) rotate(-2.3)"/>
      <g>
        <path class="st4" d="M3089.3,957.8l-767.3-.9c-156.4-.2-283.3,146.9-283.5,328.6h0c-.2,181.7,126.4,329.1,282.8,329.2l767.3.9c156.4.2,283.3-146.9,283.5-328.6h0c.2-181.7-126.4-329.1-282.8-329.2Z"/>
        <path class="st5" d="M3088.8,1618.1h-.3l-767.3-.9c-76.4,0-148.1-34.7-202-97.4-53.8-62.6-83.4-145.8-83.3-234.3,0-88.5,29.9-171.6,83.8-234.1,54-62.5,125.7-97,201.9-97h.3l767.3.9c76.4,0,148.1,34.7,202,97.4,53.8,62.6,83.4,145.8,83.3,234.3,0,88.5-29.9,171.6-83.8,234.1-54,62.5-125.7,97-201.9,97ZM2321.7,959.4c-74.8,0-145.2,33.8-198.2,95.2-53.2,61.6-82.5,143.6-82.6,230.9,0,87.3,29.1,169.3,82.1,231,52.9,61.6,123.3,95.6,198.2,95.7l767.3.9h.3c74.8,0,145.2-33.8,198.2-95.2,53.2-61.6,82.5-143.6,82.6-230.9,0-87.3-29-169.3-82.1-231-52.9-61.6-123.3-95.6-198.2-95.7l-767.3-.9h-.3Z"/>
      </g>
    </g>
    <path class="st5" d="M2078.9,1117.4l-.4,336.4h-35.6c-24.8,0-44.9-20.2-44.9-45l.3-246.6c0-24.8,20.2-44.9,45-44.9h35.6Z"/>
    <path class="st5" d="M3331.6,1455.2l.4-336.4h35.6c24.8,0,44.9,20.2,44.9,45l-.3,246.6c0,24.8-20.2,44.9-45,44.9h-35.6Z"/>
    <g>
      <path class="st2" d="M2997.2,1079.3l-583.2-.6c-118.9-.1-215.3,92.4-215.4,206.6h0c-.1,114.2,96.1,207,215,207.1l583.2.6c118.9.1,215.3-92.4,215.4-206.6h0c.1-114.2-96.1-207-215-207.1Z"/>
      <path class="st5" d="M2997,1495.5h-.3l-583.2-.6c-58.1,0-112.8-21.9-153.8-61.5-41.1-39.6-63.7-92.2-63.6-148.1,0-55.9,22.8-108.5,64-148,41.1-39.4,95.7-61.1,153.7-61.1h.3l583.2.6c58.1,0,112.8,21.9,153.8,61.5,41.1,39.6,63.7,92.2,63.6,148.1,0,55.9-22.8,108.5-64,148-41.1,39.4-95.7,61.1-153.7,61.1ZM2413.8,1081.1c-56.7,0-110.1,21.2-150.3,59.7-40.2,38.5-62.4,89.8-62.4,144.4,0,54.6,22,105.9,62.1,144.5,40.1,38.7,93.5,60,150.4,60.1l583.2.6h.2c117.2,0,212.6-91.5,212.7-204.1.1-112.7-95.2-204.5-212.5-204.6l-583.2-.6h-.3Z"/>
    </g>
    <circle class="st5" cx="2459.5" cy="1285.5" r="111.6" transform="translate(-188.6 2115.6) rotate(-45)"/>
    <circle class="st5" cx="2953.7" cy="1286.1" r="111.6" transform="translate(-44.3 2465.3) rotate(-45)"/>
  </g>
  <g id="coins">
    <g>
      <circle class="st5" cx="2203.4" cy="2641.9" r="569.5"/>
      <g>
        <circle class="st2" cx="2163.7" cy="2670.8" r="569.5"/>
        <path class="st5" d="M2164,3242.9c-4.7,0-9.3,0-14-.2-73.9-1.8-146-17.7-214.1-47.3-68.1-29.6-128.9-71.3-180.7-124.1-53.6-54.6-95.2-118.8-123.5-190.6-28.3-71.8-41.8-147.1-39.9-223.6,1.8-73.9,17.7-146,47.3-214.1,29.6-68.1,71.3-128.9,124.1-180.7,54.6-53.6,118.8-95.2,190.6-123.5,71.8-28.3,147.1-41.8,223.6-39.9,73.9,1.8,146,17.7,214.1,47.3,68.1,29.6,128.9,71.3,180.7,124.1,53.6,54.6,95.2,118.8,123.5,190.6,28.3,71.8,41.8,147.1,39.9,223.6-1.8,73.9-17.7,146-47.3,214.1-29.6,68.1-71.3,128.9-124.1,180.7-54.6,53.6-118.8,95.2-190.6,123.5-67.4,26.6-137.9,40.1-209.6,40.1ZM1636.3,2878.8c28.1,71.2,69.3,134.8,122.4,188.9,51.3,52.3,111.6,93.7,179.2,123,67.5,29.3,139,45.1,212.2,46.9,75.9,1.8,150.4-11.5,221.6-39.5,71.2-28.1,134.8-69.3,188.9-122.4,52.3-51.3,93.7-111.6,123-179.2,29.3-67.5,45.1-139,46.9-212.2,1.8-75.9-11.5-150.4-39.5-221.6-28.1-71.2-69.3-134.8-122.4-188.9-51.3-52.3-111.6-93.7-179.2-123-67.5-29.3-139-45.1-212.2-46.9-75.9-1.9-150.4,11.5-221.6,39.5-71.2,28.1-134.8,69.3-188.9,122.4-52.3,51.3-93.7,111.6-123,179.2-29.3,67.5-45.1,139-46.9,212.2-1.8,75.9,11.5,150.4,39.5,221.6Z"/>
      </g>
      <g>
        <circle class="st4" cx="2163.7" cy="2670.8" r="449.8"/>
        <path class="st5" d="M2163.9,3123.2c-3.7,0-7.4,0-11.1-.1-58.5-1.4-115.4-14-169.3-37.4-53.9-23.4-102-56.4-142.9-98.2-42.4-43.2-75.3-93.9-97.7-150.7-22.4-56.8-33-116.3-31.5-176.8,1.4-58.5,14-115.4,37.4-169.3,23.4-53.9,56.4-102,98.2-142.9,43.2-42.4,93.9-75.3,150.7-97.7,56.8-22.4,116.3-33,176.8-31.5,58.5,1.4,115.4,14,169.3,37.4,53.9,23.4,102,56.4,142.9,98.2,42.4,43.2,75.3,93.9,97.7,150.7,22.4,56.8,33,116.3,31.5,176.8-1.4,58.5-14,115.4-37.4,169.3-23.4,53.9-56.4,102-98.2,142.9-43.2,42.4-93.9,75.3-150.7,97.7-53.3,21-109,31.7-165.7,31.7ZM2163.4,2223.3c-56.1,0-111.2,10.5-163.9,31.3-56.2,22.2-106.3,54.7-149.1,96.6-41.3,40.5-73.9,88.1-97.1,141.4-23.1,53.3-35.6,109.6-37,167.4-1.5,59.9,9,118.7,31.2,174.9,22.2,56.2,54.7,106.3,96.6,149.1,40.5,41.3,88.1,73.9,141.4,97.1,53.3,23.1,109.6,35.6,167.4,37,59.9,1.5,118.7-9,174.9-31.2,56.2-22.2,106.3-54.7,149.1-96.6,41.3-40.5,73.9-88.1,97.1-141.4,23.1-53.3,35.6-109.6,37-167.4,1.5-59.9-9-118.7-31.2-174.9-22.2-56.2-54.7-106.3-96.6-149.1-40.5-41.3-88.1-73.9-141.4-97.1-53.3-23.1-109.6-35.6-167.4-37-3.7,0-7.3-.1-11-.1Z"/>
      </g>
      <path class="st5" d="M2160.4,2840.2c-18.1,8.2-37.3,9.7-57.5,4.4l-13.6,25.5-41.7-22.3,13.6-25.5c-15.3-13.7-24.5-30.4-27.6-49.9-3.1-19.5.6-39,11-58.5l6.2-11.6,50,20.2-6.4,12.1c-6.3,11.7-8.4,22.5-6.5,32.3,1.9,9.8,7.8,17.3,17.7,22.6,9.6,5.1,18.7,6.4,27.4,3.9,8.7-2.5,15.6-8.6,20.7-18.1,5.4-10.2,6.9-22.2,4.3-35.9-2.6-13.7-8.3-31-16.9-52-10.5-25-17-47.8-19.6-68.3-2.6-20.5,1.1-39.9,11-58.5,10.7-20.1,24.4-34.5,41-43.3,16.6-8.8,34.5-10.7,53.6-5.6l13.6-25.5,41.7,22.3-13.6,25.5c14.8,13.1,23.4,29,25.8,47.7,2.3,18.7-2.1,38.4-13.1,59.1l-4.5,8.3-50-20.2,5-9.3c6.6-12.4,9.3-23,8.2-32-1.2-9-6.1-15.8-14.7-20.4-8.7-4.6-16.7-5.5-24.1-2.8-7.4,2.8-13.9,9.3-19.3,19.5-5.4,10.2-6.8,21.8-4,34.8,2.8,13,8.3,30.7,16.7,53,10.3,26.1,16.7,49.2,19.4,69.1,2.7,19.9-.9,39.1-10.8,57.7-10.4,19.5-24.7,33.3-42.7,41.5Z"/>
    </g>
  </g>
  <g id="card">
    <g>
      <path class="st5" d="M3747.9,2613.9l-1115.6.7c-65.7,0-119.1-53.2-119.1-118.9l-.4-621.5c0-65.7,53.2-119.1,118.9-119.1l1115.6-.7c65.7,0,119.1,53.2,119.1,118.9l.4,621.5c0,65.7-53.2,119.1-118.9,119.1Z"/>
      <g>
        <path class="st2" d="M3700.6,2607.2l-1115.6.7c-65.7,0-119.1-53.2-119.1-118.9l-.4-621.5c0-65.7,53.2-119.1,118.9-119.1l1115.6-.7c65.7,0,119.1,53.2,119.1,118.9l.4,621.5c0,65.7-53.2,119.1-118.9,119.1Z"/>
        <path class="st5" d="M2584.9,2610.4c-67,0-121.5-54.5-121.5-121.4l-.4-621.5c0-32.5,12.6-63,35.5-86,22.9-23,53.4-35.6,85.9-35.7l1115.6-.7h0c32.4,0,62.9,12.6,85.9,35.5,23,22.9,35.6,53.4,35.7,85.9l.4,621.5c0,32.5-12.6,63-35.5,86-22.9,23-53.4,35.6-85.9,35.7v-2.5s0,2.5,0,2.5l-1115.6.7h0ZM3700.1,1750.2h0l-1115.6.7c-64.3,0-116.5,52.4-116.4,116.6l.4,621.5c0,31.1,12.2,60.4,34.2,82.4,22,22,51.2,34.1,82.3,34.1h0l1115.6-.7c64.3,0,116.5-52.3,116.4-116.6l-.4-621.5c0-31.1-12.2-60.4-34.2-82.4-22-22-51.2-34.1-82.3-34.1Z"/>
      </g>
      <g>
        <rect class="st5" x="2599.8" y="2366.1" width="229.4" height="32.9" transform="translate(-4.2 4.8) rotate(-.1)"/>
        <rect class="st5" x="2599.6" y="1994.4" width="229.4" height="189.6" transform="translate(-15.3 20) rotate(-.4)"/>
        <rect class="st5" x="2881.4" y="2365.6" width="229.4" height="32.9" transform="translate(-4.2 5.3) rotate(-.1)"/>
        <rect class="st5" x="3163" y="2365.1" width="229.4" height="32.9" transform="translate(-4.2 5.8) rotate(-.1)"/>
        <rect class="st5" x="3444.6" y="2364.6" width="229.4" height="32.9" transform="translate(-4.2 6.3) rotate(-.1)"/>
      </g>
    </g>
  </g>
  <g id="alert">
    <g>
      <circle class="st5" cx="3672" cy="1788.6" r="289.6" transform="translate(-189.2 3120.3) rotate(-45)"/>
      <g>
        <circle class="st4" cx="3724.4" cy="1788.6" r="289.6"/>
        <path class="st5" d="M3724.2,2080.7c-74.1,0-144.4-27.6-198.9-78.4-57.1-53.2-90-125.4-92.8-203.4-2.8-78,25-152.3,78.2-209.4,53.2-57.1,125.4-90,203.4-92.8,78-2.7,152.3,25,209.4,78.2,57.1,53.2,90,125.4,92.8,203.4,2.8,78-25,152.3-78.2,209.4-53.2,57.1-125.4,90-203.4,92.8-3.5.1-7.1.2-10.6.2ZM3724.7,1501.5c-3.5,0-6.9,0-10.4.2-76.6,2.7-147.6,35.1-199.9,91.2-52.3,56.1-79.6,129.2-76.9,205.8,2.7,76.6,35.1,147.6,91.2,199.9,53.6,49.9,122.6,77,195.5,77,3.5,0,6.9,0,10.4-.2,76.6-2.7,147.6-35.1,199.9-91.2,52.3-56.1,79.6-129.2,76.9-205.8-2.7-76.6-35.1-147.6-91.2-199.9-53.6-49.9-122.6-77-195.5-77Z"/>
      </g>
      <path class="st5" d="M3813.3,1674.7l-93.2,137c-7.4,10.9-23.8,10.3-30.4-1.2l-38.7-67.3c-5.5-9.6-18.3-12-26.9-4.9l-35.9,29.4c-7.6,6.2-8.8,17.5-2.6,25.1l100.8,124.9c7,8.6,20,8.9,27.3.7l166.8-187.6c6.6-7.4,5.9-18.9-1.6-25.4l-39.1-34.1c-8.1-7.1-20.6-5.5-26.6,3.4Z"/>
    </g>
    <path class="st5" d="M1454.3,1155.3l-521.6,918.2c-52,91.5,14.6,205,119.9,204.3l1055.9-7.4c105.3-.7,170.3-115.2,117-206l-534.4-910.8c-53.3-90.8-184.9-89.9-236.9,1.7Z"/>
    <g>
      <path class="st2" d="M1385.6,1155.3l-521.6,918.2c-52,91.5,14.6,205,119.9,204.3l1055.9-7.4c105.3-.7,170.3-115.2,117-206l-534.4-910.8c-53.3-90.8-184.9-89.9-236.9,1.7Z"/>
      <path class="st5" d="M982.9,2280.3c-49.9,0-94.8-25.7-120.1-68.8-25.5-43.4-25.8-95.5-1-139.3l521.6-918.2c24.9-43.8,69.8-70.1,120.1-70.5.3,0,.7,0,1,0,49.9,0,94.8,25.7,120.1,68.8l534.4,910.8c25.5,43.4,25.8,95.5,1,139.3-24.9,43.8-69.8,70.1-120.1,70.5l-1055.9,7.4c-.3,0-.7,0-1,0ZM1385.6,1155.3l2.2,1.2-521.6,918.2c-24,42.2-23.6,92.4.9,134.3,24.4,41.6,67.6,66.3,115.8,66.3.3,0,.7,0,1,0l1055.9-7.4c48.5-.3,91.8-25.7,115.8-67.9,24-42.2,23.6-92.4-.9-134.3l-534.4-910.8c-24.6-41.9-68.2-66.6-116.7-66.3-48.5.3-91.8,25.7-115.8,67.9l-2.2-1.2Z"/>
    </g>
    <path class="st5" d="M1449.5,2034.4c-.3-36,29.2-68,66.3-68.3,37.1-.3,67,31.3,67.2,67.4.3,36-29.2,67-66.3,67.2-37.1.3-67-30.3-67.2-66.3ZM1570.3,1425.2c.3,39.2-10.7,140-23.4,288.4l-12.7,147.4-38.2.3-14.8-147.2c-14.8-148.3-27.2-248.9-27.5-288.1-.3-45.6,21.8-64.8,57.8-65.1,36-.3,58.4,18.7,58.7,64.2Z"/>
  </g>
</svg>