<?xml version="1.0" encoding="UTF-8"?>
<svg id="Layer_1" xmlns="http://www.w3.org/2000/svg" version="1.1" viewBox="0 0 6000 4000">
  <!-- Generator: Adobe Illustrator 29.7.1, SVG Export Plug-In . SVG Version: 2.1.1 Build 8)  -->
  <defs>
    <style>
      .st0 {
        fill: #314357;
      }

      .st0, .st1, .st2, .st3, .st4, .st5, .st6, .st7, .st8, .st9 {
        fill-rule: evenodd;
      }

      .st1 {
        fill: #cad7e7;
      }

      .st2 {
        fill: #e4f0ff;
      }

      .st10 {
        fill: #a3b3c2;
      }

      .st11, .st3, .st12 {
        fill: #fff;
      }

      .st13 {
        fill: #303030;
      }

      .st14 {
        fill: #6394c2;
      }

      .st15 {
        fill: #df8209;
      }

      .st4 {
        fill: #6798c3;
      }

      .st5, .st16 {
        fill: #a5bed3;
      }

      .st6 {
        fill: #688caf;
      }

      .st7 {
        fill: #28374b;
      }

      .st17 {
        fill: #7aa1c6;
      }

      .st18 {
        fill: #83bff7;
      }

      .st19 {
        fill: #b06505;
      }

      .st20 {
        fill: #1a1a1a;
      }

      .st8 {
        fill: #345069;
      }

      .st12 {
        stroke: #62adff;
        stroke-linejoin: round;
        stroke-width: 3.5px;
      }

      .st21 {
        fill: #cc7708;
      }

      .st9 {
        fill: #3d6d96;
      }
    </style>
  </defs>
  <path class="st2" d="M5023.5,1992.1l22.4,68,43.1-21-6.9,47h72.4l-58.6,42,33.5,34-47.4,8,22.4,68-58.6-42-22.4,42-22.4-42-58.6,42,22.4-68-47.4-8,33.5-34-58.6-42h72.4l-6.9-47,43.1,21,22.4-68h0ZM5023.5,2024l-16.6,50.3-31.9-15.6,5.1,34.8h-53.6l43.4,31.1-24.8,25.2,35.1,5.9-16.6,50.3,43.4-31.1,16.6,31.1,16.6-31.1,43.4,31.1-16.6-50.3,35.1-5.9-24.8-25.2,43.4-31.1h-53.6l5.1-34.8-31.9,15.6-16.6-50.3h0Z"/>
  <path class="st2" d="M783.3,3100.2l5.1,41.7-28.2-.7,15.4,23.4-38.6,17.7,41.7,8.1-9.4,26.3,27.3-7.3,5.1,41.7,20.7-36.7,22.4,17,1.4-27.9,41.7,8.1-28.9-30.8,23.3-15.8-26.4-9.9,20.7-36.7-38.6,17.7-8.1-26.7-17.7,21.7-28.9-30.8h0ZM791.2,3117.2l21.4,22.8,13.1-16.1,6,19.8,28.6-13.1-15.4,27.2,19.6,7.4-17.2,11.7,21.4,22.8-30.9-6-1.1,20.6-16.6-12.6-15.4,27.2-3.8-30.9-20.2,5.4,7-19.5-30.9-6,28.6-13.1-11.4-17.3,20.9.5-3.8-30.9h0Z"/>
  <path class="st2" d="M4262.2,351.3c78.2,0,141.7,62.7,141.7,139.9s-63.5,139.9-141.7,139.9-141.7-62.7-141.7-139.9,63.5-139.9,141.7-139.9h0ZM4262.2,421.2c39.1,0,70.8,31.3,70.8,70s-31.7,70-70.8,70-70.8-31.3-70.8-70,31.7-70,70.8-70h0Z"/>
  <path class="st2" d="M936.3,2099.8c-41.7,19.1-59.9,68-40.6,109.2,19.3,41.2,68.9,59.2,110.6,40.1,41.7-19.1,59.9-68,40.6-109.2-19.3-41.2-68.9-59.2-110.6-40.1h0ZM953.8,2137.1c-20.9,9.5-30,34-20.3,54.6,9.7,20.6,34.4,29.6,55.3,20,20.9-9.5,30-34,20.3-54.6-9.7-20.6-34.4-29.6-55.3-20h0Z"/>
  <path class="st2" d="M2722.2,937.6c34.1,0,61.8,27.3,61.8,61s-27.7,61-61.8,61-61.8-27.3-61.8-61,27.7-61,61.8-61h0ZM2722.2,968.2c17.1,0,30.9,13.7,30.9,30.5s-13.8,30.5-30.9,30.5-30.9-13.7-30.9-30.5,13.8-30.5,30.9-30.5h0Z"/>
  <path class="st2" d="M1747.3,1976.3c-18.2,8.3-26.1,29.7-17.7,47.6,8.4,18,30,25.8,48.2,17.5,18.2-8.3,26.1-29.7,17.7-47.6-8.4-18-30-25.8-48.2-17.5h0ZM1755,1992.6c-9.1,4.2-13.1,14.8-8.9,23.8,4.2,9,15,12.9,24.1,8.7,9.1-4.2,13.1-14.8,8.9-23.8-4.2-9-15-12.9-24.1-8.7h0Z"/>
  <path class="st2" d="M3574.6,381.2c34.1,0,61.8,27.3,61.8,61s-27.7,61-61.8,61-61.8-27.3-61.8-61,27.7-61,61.8-61h0ZM3574.6,411.7c17.1,0,30.9,13.7,30.9,30.5s-13.8,30.5-30.9,30.5-30.9-13.7-30.9-30.5,13.8-30.5,30.9-30.5h0Z"/>
  <path class="st2" d="M3574.6,309.4l134.6,132.9-134.6,132.9-134.6-132.9,134.6-132.9h0ZM3574.6,342.6l-100.9,99.7,100.9,99.7,100.9-99.7-100.9-99.7h0Z"/>
  <path class="st2" d="M1385.1,1869.5c-18.2,8.3-26.1,29.7-17.7,47.6,8.4,18,30,25.8,48.2,17.5,18.2-8.3,26.1-29.7,17.7-47.6-8.4-18-30-25.8-48.2-17.5h0ZM1392.7,1885.8c-9.1,4.2-13.1,14.8-8.9,23.8,4.2,9,15,12.9,24.1,8.7,9.1-4.2,13.1-14.8,8.9-23.8-4.2-9-15-12.9-24.1-8.7h0Z"/>
  <path class="st2" d="M1367.1,1831.2l-38.6,103.7,105.1,38.1,38.6-103.7-105.1-38.1h0ZM1375.4,1848.9l78.8,28.6-28.9,77.8-78.8-28.6,28.9-77.8h0Z"/>
  <path class="st2" d="M4757.9,804.7c34.1,0,61.8,27.3,61.8,61s-27.7,61-61.8,61-61.8-27.3-61.8-61,27.7-61,61.8-61h0ZM4757.9,835.3c17.1,0,30.9,13.7,30.9,30.5s-13.8,30.5-30.9,30.5-30.9-13.7-30.9-30.5,13.8-30.5,30.9-30.5h0Z"/>
  <path class="st2" d="M4757.9,732.9l134.6,132.9-134.6,132.9-134.6-132.9,134.6-132.9h0ZM4757.9,766.1l-100.9,99.7,100.9,99.7,100.9-99.7-100.9-99.7h0Z"/>
  <path class="st2" d="M846.2,2464.3c-18.2,8.3-26.1,29.7-17.7,47.6,8.4,18,30,25.8,48.2,17.5,18.2-8.3,26.1-29.7,17.7-47.6-8.4-18-30-25.8-48.2-17.5h0ZM853.9,2480.6c-9.1,4.2-13.1,14.8-8.9,23.8,4.2,9,15,12.9,24.1,8.7,9.1-4.2,13.1-14.8,8.9-23.8-4.2-9-15-12.9-24.1-8.7h0Z"/>
  <path class="st2" d="M828.3,2425.9l-38.6,103.7,105.1,38.1,38.6-103.7-105.1-38.1h0ZM836.6,2443.7l78.8,28.6-28.9,77.8-78.8-28.6,28.9-77.8h0Z"/>
  <path class="st2" d="M2844.5,309.4l184.1,181.8-184.1,181.8-184.1-181.8,184.1-181.8h0ZM2844.5,354.8l-138.1,136.4,138.1,136.4,138.1-136.4-138.1-136.4h0Z"/>
  <path class="st2" d="M1805.6,1637.2l-52.8,141.9,143.7,52.1,52.8-141.9-143.7-52.1h0ZM1817,1661.4l107.8,39.1-39.6,106.4-107.8-39.1,39.6-106.4h0Z"/>
  <path class="st2" d="M5124.4,1080.4l184.1,181.8-184.1,181.8-184.1-181.8,184.1-181.8h0ZM5124.4,1125.9l-138.1,136.4,138.1,136.4,138.1-136.4-138.1-136.4h0Z"/>
  <path class="st2" d="M744.2,2737l-52.8,141.9,143.7,52.1,52.8-141.9-143.7-52.1h0ZM755.6,2761.2l107.8,39.1-39.6,106.4-107.8-39.1,39.6-106.4h0Z"/>
  <path class="st2" d="M2263.5,1360.2c80.2,0,145.1-64.2,145.1-143.3s-61.9-136.5-138.2-136.5-131,57.9-131,129.3,55.4,122.1,123.7,122.1,116.4-51.5,116.4-114.9-48.9-107.8-109.1-107.8-101.9,45-101.9,100.6,42.3,93.4,94.6,93.4,87.3-38.6,87.3-86.2-35.8-79-80-79-72.8,32.2-72.8,71.8,29.3,64.7,65.5,64.7,58.2-25.7,58.2-57.5c0-27.8-22.8-50.3-50.9-50.3s-43.7,19.3-43.7,43.1,16.3,35.9,36.4,35.9,29.1-12.9,29.1-28.7-9.8-21.6-21.8-21.6-14.6,6.4-14.6,14.4,3.3,7.2,7.3,7.2"/>
  <path class="st2" d="M2097.8,2089.9c-42.8,19.5-93.5,1.2-113.3-41.1-18.9-40.2-1.1-87.9,39.6-106.5,38.6-17.6,84.4-1,102.2,37.1,16.9,36,1,78.7-35.4,95.3-34.3,15.7-75,.9-90.9-32.9-14.9-31.8-.9-69.4,31.3-84.1,30-13.7,65.6-.8,79.5,28.8,12.9,27.5.8,60.2-27.1,72.9-25.7,11.8-56.2.7-68.1-24.7-10.9-23.3-.6-50.9,22.9-61.7,21.4-9.8,46.9-.6,56.8,20.6,8.9,19.1.5,41.6-18.8,50.5-17.2,7.8-37.5.5-45.4-16.5-6.9-14.8-.4-32.4,14.6-39.2,12.9-5.9,28.1-.3,34.1,12.4,5,10.6.3,23.1-10.4,28-8.6,3.9-18.7.2-22.7-8.2-3-6.4-.2-13.9,6.3-16.8,4.3-2,9.4-.1,11.4,4.1,1,2.1,0,4.6-2.1,5.6"/>
  <path class="st2" d="M5016.6,2830.5c80.2,0,145.1-64.2,145.1-143.3s-61.9-136.5-138.2-136.5-131,57.9-131,129.3,55.4,122.1,123.7,122.1,116.4-51.5,116.4-114.9-48.9-107.8-109.1-107.8-101.9,45-101.9,100.6c0,51.6,42.3,93.4,94.6,93.4s87.3-38.6,87.3-86.2-35.8-79-80-79-72.8,32.2-72.8,71.8,29.3,64.7,65.5,64.7,58.2-25.7,58.2-57.5-22.8-50.3-50.9-50.3-43.7,19.3-43.7,43.1,16.3,35.9,36.4,35.9,29.1-12.9,29.1-28.7-9.8-21.6-21.8-21.6-14.6,6.4-14.6,14.4,3.3,7.2,7.3,7.2"/>
  <path class="st2" d="M2591.3,491.2l22.4,68,43.1-21-6.9,47h72.4l-58.6,42,33.5,34-47.4,8,22.4,68-58.6-42-22.4,42-22.4-42-58.6,42,22.4-68-47.4-8,33.5-34-58.6-42h72.4l-6.9-47,43.1,21,22.4-68h0ZM2591.3,523l-16.6,50.3-31.9-15.6,5.1,34.8h-53.6l43.4,31.1-24.8,25.2,35.1,5.9-16.6,50.3,43.4-31.1,16.6,31.1,16.6-31.1,43.4,31.1-16.6-50.3,35.1-5.9-24.8-25.2,43.4-31.1h-53.6l5.1-34.8-31.9,15.6-16.6-50.3h0Z"/>
  <path class="st2" d="M2277.5,1520l5.1,41.7-28.2-.7,15.4,23.4-38.6,17.7,41.7,8.1-9.4,26.3,27.3-7.3,5.1,41.7,20.7-36.7,22.4,17,1.4-27.9,41.7,8.1-28.9-30.8,23.3-15.8-26.4-9.9,20.7-36.7-38.6,17.7-8.1-26.7-17.7,21.7-28.9-30.8h0ZM2285.5,1537l21.4,22.8,13.1-16.1,6,19.8,28.6-13.1-15.4,27.2,19.6,7.4-17.2,11.7,21.4,22.8-30.9-6-1.1,20.6-16.6-12.6-15.4,27.2-3.8-30.9-20.2,5.4,7-19.5-30.9-6,28.6-13.1-11.4-17.3,20.9.5-3.8-30.9h0Z"/>
  <path class="st2" d="M1200,3568.1c-104.5,0-196.3-68.4-225-167.6-14.8-51-27-104.7-36.6-161.4-44.8-265.8,3.5-712.3,170.3-943.4,403.8-559.5,861.1-49.6,1087.3-198.6,214.8-141.5,327.9-424.5,410.2-649.3,470-1282.9,1939.6-580.2,2149.9-284.8,422.9,594-144.7,969.9-.9,1422.6,62.9,198,222.6,365.1,338.2,536.6h0c59.4,88.1,64.9,201.3,14.3,294.5-50.6,93.3-149.1,151.5-256.2,151.5H1200Z"/>
  <path class="st1" d="M3000,3568.1c1455.7,0,2637.5,27.5,2637.5,61.3s-1181.8,61.3-2637.5,61.3-2637.6-27.5-2637.6-61.3,1181.8-61.3,2637.6-61.3h0Z"/>
  <path class="st8" d="M4507.2,2926.7H1673.6l-715.6,496.3s8.6,120,58.1,164.6c33.5,30.3,77.1,47,122.3,47,477.4.3,3243.4,1.9,3719.7,2.2,45,0,88.4-16.5,121.9-46.5,51.4-46,61.2-157.2,61.2-157.2l-534-506.4h0Z"/>
  <path class="st9" d="M4483.8,2776.3H1516.2s-367.1,409.9-542.6,605.9c-16.1,18-20.1,43.8-10.3,65.8,9.8,22,31.7,36.2,55.9,36.2h3961.5c24.1,0,46-14.2,55.9-36.2,9.9-22,5.8-47.8-10.3-65.8-175.5-196-542.6-605.9-542.6-605.9h0Z"/>
  <polygon class="st7" points="2147 2717.9 2147 2777.7 1837.3 2777.7 1837.3 2717.9 2147 2717.9 2147 2717.9"/>
  <polygon class="st7" points="4164.2 2717.9 4164.2 2777.7 3854.5 2777.7 3854.5 2717.9 4164.2 2717.9 4164.2 2717.9"/>
  <path class="st7" d="M4484.1,1052.2c22.2,0,40.3,18,40.3,40.3v1585.1c0,22.2-18,40.3-40.3,40.3H1517.5c-22.2,0-40.3-18-40.3-40.3v-1585.1c0-22.2,18-40.3,40.3-40.3h2966.6Z"/>
  <path class="st3" d="M4444.9,1101.7c21.7,0,39.2,16.6,39.2,37v1455.1c0,20.4-17.6,37-39.2,37H1556.7c-21.7,0-39.2-16.6-39.2-37v-1455.1c0-20.4,17.6-37,39.2-37h2888.2Z"/>
  <polygon class="st8" points="1827.1 2725.1 1827.1 2777.7 1517.5 2777.7 1517.5 2725.1 1827.1 2725.1 1827.1 2725.1"/>
  <polygon class="st8" points="4484.1 2725.1 4484.1 2777.7 4174.4 2777.7 4174.4 2725.1 4484.1 2725.1 4484.1 2725.1"/>
  <polygon class="st8" points="3837.5 2725.1 3837.5 2777.7 2157.2 2777.7 2157.2 2725.1 3837.5 2725.1 3837.5 2725.1"/>
  <path class="st0" d="M2062.6,2821.2c-8,10.6-16,21.2-24,31.8-36.8,0-73.6,0-110.3,0,9-10.6,17.9-21.2,26.9-31.8,35.8,0,71.7,0,107.5,0h0Z"/>
  <path class="st0" d="M2189.4,2821.2c-6.9,10.6-13.8,21.2-20.7,31.8-36.8,0-73.6,0-110.4,0,7.8-10.6,15.7-21.2,23.5-31.8,35.8,0,71.7,0,107.5,0h0Z"/>
  <path class="st0" d="M2316.2,2821.1c-5.8,10.6-11.5,21.2-17.3,31.8-36.8,0-73.6,0-110.4,0,6.7-10.6,13.4-21.2,20.1-31.8,35.8,0,71.7,0,107.5,0h0Z"/>
  <path class="st0" d="M2443,2821c-4.6,10.6-9.3,21.2-13.9,31.8-36.8,0-73.6,0-110.4,0,5.6-10.6,11.2-21.2,16.8-31.8,35.9,0,71.7,0,107.6,0h0Z"/>
  <path class="st0" d="M2569.9,2821c-3.5,10.6-7,21.2-10.6,31.8-36.8,0-73.6,0-110.4,0,4.5-10.6,8.9-21.2,13.4-31.8,35.9,0,71.7,0,107.6,0h0Z"/>
  <path class="st0" d="M2696.8,2820.9c-2.4,10.6-4.8,21.2-7.2,31.8-36.8,0-73.6,0-110.5,0,3.3-10.6,6.7-21.2,10-31.8,35.9,0,71.7,0,107.6,0h0Z"/>
  <path class="st0" d="M2823.7,2820.8c-1.3,10.6-2.5,21.2-3.8,31.8-36.8,0-73.6,0-110.5,0,2.2-10.6,4.4-21.2,6.7-31.8,35.9,0,71.7,0,107.6,0h0Z"/>
  <path class="st0" d="M2950.6,2820.8c-.1,10.6-.3,21.2-.4,31.8-36.8,0-73.7,0-110.5,0,1.1-10.6,2.2-21.2,3.3-31.8,35.9,0,71.8,0,107.6,0h0Z"/>
  <path class="st0" d="M3077.6,2820.7c1,10.6,2,21.2,2.9,31.8-36.8,0-73.7,0-110.5,0,0-10.6,0-21.2,0-31.8,35.9,0,71.8,0,107.6,0h0Z"/>
  <path class="st0" d="M3204.6,2820.6c2.1,10.6,4.2,21.2,6.3,31.9-36.8,0-73.7,0-110.5,0-1.1-10.6-2.3-21.2-3.4-31.8,35.9,0,71.8,0,107.7,0h0Z"/>
  <path class="st0" d="M3331.6,2820.6c3.2,10.6,6.5,21.2,9.7,31.9-36.9,0-73.7,0-110.6,0-2.3-10.6-4.5-21.2-6.8-31.9,35.9,0,71.8,0,107.7,0h0Z"/>
  <path class="st0" d="M3458.6,2820.5c4.4,10.6,8.7,21.2,13.1,31.9-36.9,0-73.7,0-110.6,0-3.4-10.6-6.8-21.2-10.2-31.9,35.9,0,71.8,0,107.7,0h0Z"/>
  <path class="st0" d="M3585.6,2820.4c5.5,10.6,11,21.2,16.4,31.9-36.9,0-73.7,0-110.6,0-4.5-10.6-9.1-21.2-13.6-31.9,35.9,0,71.8,0,107.7,0h0Z"/>
  <path class="st0" d="M3712.7,2820.4c6.6,10.6,13.2,21.2,19.8,31.9-36.9,0-73.7,0-110.6,0-5.7-10.6-11.3-21.2-17-31.9,35.9,0,71.8,0,107.7,0h0Z"/>
  <path class="st0" d="M3839.8,2820.3c7.7,10.6,15.5,21.2,23.2,31.9-36.9,0-73.8,0-110.6,0-6.8-10.6-13.6-21.2-20.3-31.9,35.9,0,71.8,0,107.8,0h0Z"/>
  <path class="st0" d="M3966.9,2820.2c8.9,10.6,17.7,21.2,26.6,31.9-36.9,0-73.8,0-110.7,0-7.9-10.6-15.8-21.2-23.7-31.9,35.9,0,71.9,0,107.8,0h0Z"/>
  <path class="st0" d="M2035.6,2866.3c-17.1,22.8-34.2,45.6-51.2,68.4-41.7,0-83.4,0-125.1,0,19.2-22.8,38.5-45.6,57.8-68.4,39.5,0,79,0,118.6,0h0Z"/>
  <path class="st0" d="M2040.7,2946.8c-17.4,24.9-34.9,49.9-52.3,74.8-67.5,0-135,0-202.5,0,21-24.9,42.1-49.8,63.1-74.8,63.9,0,127.8,0,191.7,0h0Z"/>
  <path class="st0" d="M2026.7,3038.1c-18.1,27.3-36.2,54.6-54.4,81.9-89.8,0-179.6,0-269.5,0,23-27.3,46.1-54.6,69.1-81.8,84.9,0,169.8,0,254.7,0h0Z"/>
  <path class="st0" d="M2045.7,3135.9c-18.1,29.8-36.2,59.5-54.3,89.3-125.8,0-251.5,0-377.3,0,25.1-29.7,50.2-59.5,75.3-89.2,118.8,0,237.5,0,356.3,0h0Z"/>
  <path class="st0" d="M1790.1,3242.6c-23.5,32.4-47,64.7-70.5,97.1h-202.1c27.3-32.4,54.6-64.7,81.9-97.1,63.6,0,127.1,0,190.7,0h0Z"/>
  <path class="st0" d="M1986.3,3242.6c-19.6,32.4-39.2,64.7-58.7,97.1h-165.8c22.7-32.4,45.4-64.7,68.1-97.1,52.2,0,104.3,0,156.5,0h0Z"/>
  <path class="st0" d="M2167.1,2866.2c-14.7,22.8-29.3,45.6-44,68.4-41.7,0-83.4,0-125.1,0,16.8-22.8,33.7-45.6,50.5-68.4,39.5,0,79.1,0,118.6,0h0Z"/>
  <path class="st0" d="M2187.9,2946.7c-14.7,24.9-29.3,49.9-44,74.8-44.5,0-88.9,0-133.4,0,17-24.9,34.1-49.9,51.1-74.8,42.1,0,84.2,0,126.3,0h0Z"/>
  <path class="st0" d="M2186.8,3038c-15,27.3-30.1,54.6-45.1,81.9-47.6,0-95.2,0-142.8,0,17.6-27.3,35.3-54.6,52.9-81.9,45,0,90,0,135,0h0Z"/>
  <path class="st0" d="M2221,3135.9c-14.7,29.8-29.3,59.5-44,89.3-50.9,0-101.9,0-152.8,0,17.5-29.8,35-59.5,52.5-89.3,48.1,0,96.2,0,144.3,0h0Z"/>
  <path class="st0" d="M2158.3,3242.6c-16.1,32.4-32.3,64.7-48.4,97.1h-163.8c19.2-32.4,38.5-64.7,57.7-97.1,51.5,0,103,0,154.5,0h0Z"/>
  <path class="st0" d="M2352.7,3242.5c-12.3,32.4-24.5,64.8-36.8,97.1h-163.8c15.3-32.4,30.7-64.7,46-97.1,51.5,0,103,0,154.5,0h0Z"/>
  <path class="st0" d="M3301.1,3242.4c6.7,32.4,13.4,64.8,20.1,97.2h-963.1c11.5-32.4,22.9-64.8,34.4-97.1,302.9,0,605.7,0,908.6,0h0Z"/>
  <path class="st0" d="M2396.4,3135.8c-11.2,29.8-22.4,59.5-33.6,89.3-51,0-101.9,0-152.9,0,14-29.8,28.1-59.5,42.1-89.3,48.1,0,96.2,0,144.4,0h0Z"/>
  <path class="st0" d="M2571.8,3135.8c-7.8,29.8-15.5,59.5-23.3,89.3-51,0-102,0-152.9,0,10.6-29.8,21.2-59.5,31.8-89.3,48.1,0,96.3,0,144.4,0h0Z"/>
  <path class="st0" d="M2747.3,3135.8c-4.3,29.8-8.6,59.5-12.9,89.3-51,0-102,0-153,0,7.1-29.8,14.3-59.5,21.4-89.3,48.1,0,96.3,0,144.4,0h0Z"/>
  <path class="st0" d="M2922.8,3135.7c-.9,29.8-1.7,59.5-2.6,89.3-51,0-102,0-153,0,3.7-29.8,7.4-59.5,11.1-89.3,48.2,0,96.3,0,144.5,0h0Z"/>
  <path class="st0" d="M3098.4,3135.7c2.6,29.8,5.2,59.6,7.8,89.3-51,0-102,0-153.1,0,.2-29.8.5-59.6.7-89.3,48.2,0,96.3,0,144.5,0h0Z"/>
  <path class="st0" d="M3280.6,3135.7c6.2,29.8,12.4,59.6,18.6,89.4-53.4,0-106.8,0-160.2,0-3.2-29.8-6.4-59.6-9.6-89.3,50.4,0,100.8,0,151.2,0h0Z"/>
  <path class="st0" d="M3464.4,3135.6c9.8,29.8,19.6,59.6,29.4,89.4-53.4,0-106.8,0-160.2,0-6.8-29.8-13.7-59.6-20.5-89.4,50.4,0,100.9,0,151.3,0h0Z"/>
  <path class="st0" d="M3480.6,3242.4c10.3,32.4,20.6,64.8,30.9,97.2h-171.7c-7.1-32.4-14.1-64.8-21.2-97.2,54,0,108,0,162,0h0Z"/>
  <path class="st0" d="M3682.4,3242.4c14.3,32.4,28.7,64.8,43,97.3h-171.7c-11.1-32.4-22.2-64.8-33.3-97.2,54,0,108,0,162,0h0Z"/>
  <path class="st0" d="M3884.4,3242.4c18.4,32.4,36.8,64.8,55.1,97.3h-171.8c-15.1-32.4-30.3-64.8-45.4-97.3,54,0,108,0,162,0h0Z"/>
  <path class="st0" d="M4138.6,3242.4c11.5,15.9,23.1,31.9,34.6,47.8-72.3,0-144.5,0-216.8,0-9.5-15.9-18.9-31.9-28.4-47.8,70.2,0,140.4,0,210.6,0h0Z"/>
  <path class="st0" d="M4177.5,3296.1c10.5,14.5,21,29,31.5,43.6h-223.2c-8.6-14.5-17.2-29-25.9-43.6,72.5,0,145,0,217.6,0h0Z"/>
  <path class="st0" d="M4341.7,3242.4c27.5,32.4,55.1,64.9,82.6,97.3h-171.9c-24.3-32.4-48.6-64.9-72.8-97.3,54.1,0,108.1,0,162.2,0h0Z"/>
  <path class="st0" d="M3648.2,3135.6c13.4,29.8,26.9,59.6,40.3,89.4-53.4,0-106.8,0-160.3,0-10.4-29.8-20.9-59.6-31.3-89.4,50.4,0,100.9,0,151.3,0h0Z"/>
  <path class="st0" d="M3832.1,3135.6c17,29.8,34.1,59.6,51.1,89.4-53.4,0-106.9,0-160.3,0-14.1-29.8-28.1-59.6-42.2-89.4,50.5,0,100.9,0,151.4,0h0Z"/>
  <path class="st0" d="M4251,3135.5c25.3,29.8,50.6,59.6,75.9,89.4-136.4,0-272.8,0-409.2,0-17.7-29.8-35.4-59.6-53.1-89.4,128.8,0,257.6,0,386.4,0h0Z"/>
  <path class="st0" d="M2346.9,3038c-11.9,27.3-23.9,54.6-35.8,81.9-47.6,0-95.2,0-142.8,0,14.5-27.3,29.1-54.6,43.7-81.9,45,0,90,0,135,0h0Z"/>
  <path class="st0" d="M2511.7,3037.9c-8.8,27.3-17.5,54.6-26.3,81.9-49.2,0-98.5,0-147.7,0,11.5-27.3,22.9-54.6,34.4-81.9,46.6,0,93.1,0,139.7,0h0Z"/>
  <path class="st0" d="M2677.4,3037.9c-5.6,27.3-11.2,54.6-16.7,81.9-49.3,0-98.5,0-147.8,0,8.3-27.3,16.5-54.6,24.8-81.9,46.6,0,93.1,0,139.7,0h0Z"/>
  <path class="st0" d="M2843.1,3037.8c-2.4,27.3-4.8,54.6-7.1,81.9-49.3,0-98.5,0-147.8,0,5.1-27.3,10.1-54.6,15.2-81.9,46.6,0,93.2,0,139.7,0h0Z"/>
  <path class="st0" d="M3008.8,3037.8c.8,27.3,1.6,54.6,2.5,81.9-49.3,0-98.6,0-147.9,0,1.9-27.3,3.8-54.6,5.6-81.9,46.6,0,93.2,0,139.8,0h0Z"/>
  <path class="st0" d="M3174.6,3037.7c4,27.3,8,54.6,12.1,81.9-49.3,0-98.6,0-147.9,0-1.3-27.3-2.6-54.6-4-81.9,46.6,0,93.2,0,139.8,0h0Z"/>
  <path class="st0" d="M3340.4,3037.7c7.2,27.3,14.4,54.6,21.7,82-49.3,0-98.6,0-147.9,0-4.5-27.3-9-54.6-13.6-81.9,46.6,0,93.2,0,139.8,0h0Z"/>
  <path class="st0" d="M3506.3,3037.6c10.4,27.3,20.8,54.6,31.3,82-49.3,0-98.6,0-148,0-7.7-27.3-15.4-54.6-23.2-82,46.6,0,93.2,0,139.9,0h0Z"/>
  <path class="st0" d="M3672.2,3037.6c13.6,27.3,27.2,54.7,40.9,82-49.3,0-98.7,0-148,0-10.9-27.3-21.8-54.6-32.8-82,46.6,0,93.3,0,139.9,0h0Z"/>
  <path class="st0" d="M3838.1,3037.5c16.8,27.3,33.7,54.7,50.5,82-49.3,0-98.7,0-148,0-14.1-27.3-28.3-54.7-42.4-82,46.6,0,93.3,0,139.9,0h0Z"/>
  <path class="st0" d="M4167.8,3037.4c23.2,27.3,46.4,54.7,69.6,82-104.9,0-209.8,0-314.7,0-17.5-27.3-34.9-54.7-52.4-82,99.1,0,198.3,0,297.4,0h0Z"/>
  <path class="st0" d="M2335.2,2946.7c-11.9,24.9-23.8,49.9-35.7,74.8-44.5,0-89,0-133.4,0,14.3-24.9,28.5-49.9,42.8-74.8,42.1,0,84.2,0,126.3,0h0Z"/>
  <path class="st0" d="M2489,2946.6c-9,24.9-18,49.9-27,74.8-46.8,0-93.6,0-140.4,0,11.5-24.9,23-49.9,34.5-74.8,44.3,0,88.6,0,132.9,0h0Z"/>
  <path class="st0" d="M2644,2946.5c-6.1,24.9-12.2,49.9-18.2,74.8-46.8,0-93.7,0-140.5,0,8.6-24.9,17.2-49.9,25.7-74.8,44.3,0,88.6,0,133,0h0Z"/>
  <path class="st0" d="M2799.1,2946.5c-3.2,24.9-6.3,49.9-9.5,74.8-46.8,0-93.7,0-140.5,0,5.7-24.9,11.3-49.9,17-74.8,44.3,0,88.7,0,133,0h0Z"/>
  <path class="st0" d="M2954.1,2946.4c-.2,24.9-.5,49.9-.7,74.8-46.8,0-93.7,0-140.5,0,2.7-24.9,5.5-49.9,8.2-74.8,44.3,0,88.7,0,133,0h0Z"/>
  <path class="st0" d="M3109.2,2946.4c2.7,25,5.4,49.9,8.1,74.9-46.9,0-93.7,0-140.6,0-.2-24.9-.4-49.9-.5-74.8,44.4,0,88.7,0,133.1,0h0Z"/>
  <path class="st0" d="M3264.4,2946.3c5.6,25,11.2,49.9,16.8,74.9-46.9,0-93.7,0-140.6,0-3.1-25-6.2-49.9-9.3-74.9,44.4,0,88.7,0,133.1,0h0Z"/>
  <path class="st0" d="M3419.6,2946.2c8.5,25,17.1,49.9,25.6,74.9-46.9,0-93.8,0-140.6,0-6-25-12.1-49.9-18.1-74.9,44.4,0,88.7,0,133.1,0h0Z"/>
  <path class="st0" d="M3574.8,2946.2c11.5,25,22.9,49.9,34.4,74.9-46.9,0-93.8,0-140.7,0-9-25-17.9-49.9-26.9-74.9,44.4,0,88.8,0,133.1,0h0Z"/>
  <path class="st0" d="M3730,2946.1c14.4,25,28.8,49.9,43.2,74.9-46.9,0-93.8,0-140.7,0-11.9-25-23.8-49.9-35.6-74.9,44.4,0,88.8,0,133.2,0h0Z"/>
  <path class="st0" d="M3885.3,2946c17.3,25,34.6,49.9,52,74.9-46.9,0-93.8,0-140.8,0-14.8-25-29.6-49.9-44.4-74.9,44.4,0,88.8,0,133.2,0h0Z"/>
  <path class="st0" d="M4090.2,2946c24.4,28.7,48.8,57.5,73.2,86.2-62.8,0-125.5,0-188.3,0-20.6-28.7-41.1-57.5-61.7-86.2,58.9,0,117.8,0,176.8,0h0Z"/>
  <path class="st0" d="M2298.7,2866.2c-12.3,22.8-24.5,45.6-36.8,68.4-41.7,0-83.4,0-125.1,0,14.4-22.8,28.9-45.6,43.3-68.4,39.5,0,79.1,0,118.6,0h0Z"/>
  <path class="st0" d="M2430.3,2866.1c-9.8,22.8-19.7,45.6-29.5,68.4-41.7,0-83.4,0-125.2,0,12-22.8,24-45.6,36.1-68.4,39.5,0,79.1,0,118.6,0h0Z"/>
  <path class="st0" d="M2562,2866.1c-7.4,22.8-14.9,45.6-22.3,68.4-41.7,0-83.5,0-125.2,0,9.6-22.8,19.2-45.6,28.8-68.4,39.6,0,79.1,0,118.7,0h0Z"/>
  <path class="st0" d="M2693.6,2866c-5,22.8-10,45.6-15,68.5-41.7,0-83.5,0-125.2,0,7.2-22.8,14.4-45.6,21.6-68.4,39.6,0,79.1,0,118.7,0h0Z"/>
  <path class="st0" d="M2825.3,2865.9c-2.6,22.8-5.2,45.6-7.8,68.5-41.7,0-83.5,0-125.2,0,4.8-22.8,9.6-45.6,14.3-68.5,39.6,0,79.1,0,118.7,0h0Z"/>
  <path class="st0" d="M2957,2865.9c-.2,22.8-.4,45.6-.5,68.5-41.8,0-83.5,0-125.3,0,2.4-22.8,4.7-45.6,7.1-68.5,39.6,0,79.1,0,118.7,0h0Z"/>
  <path class="st0" d="M3088.8,2865.8c2.2,22.8,4.5,45.7,6.7,68.5-41.8,0-83.5,0-125.3,0,0-22.8-.1-45.6-.2-68.5,39.6,0,79.2,0,118.7,0h0Z"/>
  <path class="st0" d="M3220.5,2865.7c4.7,22.8,9.3,45.7,14,68.5-41.8,0-83.5,0-125.3,0-2.5-22.8-4.9-45.6-7.4-68.5,39.6,0,79.2,0,118.8,0h0Z"/>
  <path class="st0" d="M3352.3,2865.7c7.1,22.8,14.1,45.7,21.2,68.5-41.8,0-83.6,0-125.3,0-4.9-22.8-9.8-45.7-14.7-68.5,39.6,0,79.2,0,118.8,0h0Z"/>
  <path class="st0" d="M3484.1,2865.6c9.5,22.8,19,45.7,28.5,68.5-41.8,0-83.6,0-125.4,0-7.3-22.8-14.6-45.7-21.9-68.5,39.6,0,79.2,0,118.8,0h0Z"/>
  <path class="st0" d="M3616,2865.5c11.9,22.8,23.8,45.7,35.8,68.5-41.8,0-83.6,0-125.4,0-9.7-22.8-19.5-45.7-29.2-68.5,39.6,0,79.2,0,118.8,0h0Z"/>
  <path class="st0" d="M3747.8,2865.5c14.3,22.8,28.7,45.7,43,68.5-41.8,0-83.6,0-125.4,0-12.2-22.8-24.3-45.7-36.5-68.5,39.6,0,79.2,0,118.9,0h0Z"/>
  <path class="st0" d="M4004.6,2865.4c19.1,22.8,38.1,45.7,57.2,68.5-85.7,0-171.5,0-257.2.1-14.6-22.8-29.2-45.7-43.8-68.5,81.2,0,162.5,0,243.7-.1h0Z"/>
  <path class="st4" d="M3364.4,3417.6c9.6,7.6,17.9,18.9,15.9,33.3-2,14.4-12.2,24.9-24.1,24.9h-770.7c-11.9,0-22.1-10.5-24.1-24.9-2-14.4,6.2-25.8,15.9-33.3,50.1-38.7,88.6-70.6,91.4-70.6h606.7c2.8,0,32.4,25.7,89,70.6h0Z"/>
  <path class="st16" d="M2743.5,1501.4c0-141.7,114.9-256.5,256.5-256.5s256.5,114.9,256.5,256.5-114.9,256.5-256.5,256.5-256.5-114.9-256.5-256.5h0Z"/>
  <path class="st11" d="M2774.5,1501.4c0-124.6,101-225.5,225.5-225.5s225.5,101,225.5,225.5-101,225.5-225.5,225.5-225.5-101-225.5-225.5h0Z"/>
  <path class="st16" d="M2912.8,1542.1c-35.2,18.3-63.9,47.4-81.9,82.9,41.3,46.8,101.7,76.6,169.1,76.6s127.8-29.7,169.1-76.6c-18-35.5-46.6-64.6-81.9-82.9-20.8,25-52.1,40.9-87.2,40.9s-66.4-15.9-87.2-40.9h0Z"/>
  <path class="st16" d="M3000,1344c-62.6,0-113.4,50.7-113.4,113.3s9.9,52.7,26.2,72.4c20.8,25,52.2,41,87.2,41s66.4-16,87.2-41c16.3-19.6,26.1-44.8,26.1-72.4,0-62.6-50.7-113.3-113.3-113.3h0Z"/>
  <path class="st5" d="M3813.1,1913.3c0,55-44.6,99.6-99.6,99.6h-1427.1c-55,0-99.6-44.6-99.6-99.6s44.6-99.6,99.6-99.6h1427.1c55,0,99.6,44.6,99.6,99.6h0ZM3792.4,1913.3c0-43.5-35.3-78.8-78.8-78.8h-1427.1c-43.5,0-78.8,35.3-78.8,78.8s35.3,78.8,78.8,78.8h1427.1c43.5,0,78.8-35.3,78.8-78.8h0Z"/>
  <path class="st5" d="M3813.1,2163.9c0,55-44.6,99.6-99.6,99.6h-1427.1c-55,0-99.6-44.6-99.6-99.6s44.6-99.6,99.6-99.6h1427.1c55,0,99.6,44.6,99.6,99.6h0ZM3792.4,2163.9c0-43.5-35.3-78.8-78.8-78.8h-1427.1c-43.5,0-78.8,35.3-78.8,78.8s35.3,78.8,78.8,78.8h1427.1c43.5,0,78.8-35.3,78.8-78.8h0Z"/>
  <path class="st5" d="M2318.6,1854.7c32.3,0,58.6,26.2,58.6,58.6s-26.2,58.6-58.6,58.6-58.6-26.2-58.6-58.6,26.2-58.6,58.6-58.6h0Z"/>
  <path class="st5" d="M2318.6,2105.3c32.3,0,58.6,26.2,58.6,58.6s-26.2,58.6-58.6,58.6-58.6-26.2-58.6-58.6,26.2-58.6,58.6-58.6h0Z"/>
  <path class="st5" d="M2478.8,1854.7c32.3,0,58.6,26.2,58.6,58.6s-26.2,58.6-58.6,58.6-58.6-26.2-58.6-58.6,26.2-58.6,58.6-58.6h0Z"/>
  <path class="st5" d="M2478.8,2105.3c32.3,0,58.6,26.2,58.6,58.6s-26.2,58.6-58.6,58.6-58.6-26.2-58.6-58.6,26.2-58.6,58.6-58.6h0Z"/>
  <path class="st5" d="M2639,1854.7c32.3,0,58.6,26.2,58.6,58.6s-26.2,58.6-58.6,58.6-58.6-26.2-58.6-58.6,26.2-58.6,58.6-58.6h0Z"/>
  <path class="st5" d="M2639,2105.3c32.3,0,58.6,26.2,58.6,58.6s-26.2,58.6-58.6,58.6-58.6-26.2-58.6-58.6,26.2-58.6,58.6-58.6h0Z"/>
  <path class="st5" d="M2799.2,1854.7c32.3,0,58.6,26.2,58.6,58.6s-26.2,58.6-58.6,58.6-58.6-26.2-58.6-58.6,26.2-58.6,58.6-58.6h0Z"/>
  <path class="st5" d="M2799.2,2105.3c32.3,0,58.6,26.2,58.6,58.6s-26.2,58.6-58.6,58.6-58.6-26.2-58.6-58.6,26.2-58.6,58.6-58.6h0Z"/>
  <path class="st5" d="M2959.4,1854.7c32.3,0,58.6,26.2,58.6,58.6s-26.2,58.6-58.6,58.6-58.6-26.2-58.6-58.6,26.2-58.6,58.6-58.6h0Z"/>
  <path class="st5" d="M2959.4,2105.3c32.3,0,58.6,26.2,58.6,58.6s-26.2,58.6-58.6,58.6-58.6-26.2-58.6-58.6,26.2-58.6,58.6-58.6h0Z"/>
  <path class="st5" d="M3119.6,1854.7c32.3,0,58.6,26.2,58.6,58.6s-26.2,58.6-58.6,58.6-58.6-26.2-58.6-58.6,26.2-58.6,58.6-58.6h0Z"/>
  <path class="st5" d="M3279.8,1854.7c32.3,0,58.6,26.2,58.6,58.6s-26.2,58.6-58.6,58.6-58.6-26.2-58.6-58.6,26.2-58.6,58.6-58.6h0Z"/>
  <path class="st5" d="M3399,2419.8c0-37.4-30.3-67.8-67.8-67.8h-662.5c-18,0-35.2,7.1-47.9,19.9-12.7,12.7-19.9,30-19.9,47.9h0c0,37.4,30.3,67.8,67.8,67.8h662.5c37.4,0,67.8-30.3,67.8-67.8h0Z"/>
  <polygon class="st11" points="2851.5 2453.5 2896.4 2453.5 2896.4 2438.5 2870.9 2438.5 2870.9 2386.1 2851.5 2386.1 2851.5 2453.5 2851.5 2453.5"/>
  <path class="st11" d="M2935.3,2454.6c21.8,0,36-14.1,36-34.9v-.8c0-20.9-15.2-33.9-35.8-33.9s-35.7,13.8-35.7,34.3v.8c0,20.3,13.6,34.4,35.4,34.4h0ZM2935.7,2439.5c-9.3,0-15.6-7.1-15.6-19.3v-.8c0-12.3,5.9-19.2,15.5-19.2s15.6,7.1,15.6,19.1v.8c0,12.1-5.9,19.4-15.5,19.4h0Z"/>
  <path class="st11" d="M3012.6,2454.6c21.8,0,33-12.9,33-30.1v-8.3h-31.7v13.5h12.6c-.4,5.4-4,10.2-13.4,10.2s-15.8-8.5-15.8-19.4v-.8c0-12.2,5.8-19.5,15.3-19.5s11.2,3.3,12.2,9.6h19.2c-1.3-17.5-15.5-24.8-31.4-24.8s-35.4,13.9-35.4,34.4v.8c0,20.2,12.5,34.4,35.4,34.4h0Z"/>
  <polygon class="st11" points="3055.4 2453.5 3074.9 2453.5 3074.9 2386.1 3055.4 2386.1 3055.4 2453.5 3055.4 2453.5"/>
  <polygon class="st11" points="3088.3 2453.5 3105.2 2453.5 3105.2 2411.2 3129.9 2453.5 3148.5 2453.5 3148.5 2386.1 3131.6 2386.1 3131.6 2424.1 3110 2386.1 3088.3 2386.1 3088.3 2453.5 3088.3 2453.5"/>
  <path class="st20" d="M4411,1938.7c-227,0-411.1,185.9-411.1,415.3v370.7h210.5v-370.7c0-111.9,89.8-202.6,200.6-202.6h23.4c110.8,0,200.5,90.7,200.5,202.6v370.7h210.5v-370.7c0-229.4-184-415.3-411-415.3h-23.4Z"/>
  <path class="st17" d="M3803.3,2831.9c0-85.2,68.3-154.2,152.6-154.2h933.5c84.3,0,152.6,69,152.6,154.2v650.7c0,85.2-68.4,154.2-152.6,154.2h-933.5c-84.3,0-152.6-69-152.6-154.2v-650.7h0Z"/>
  <path class="st6" d="M4889.3,2677.6c84.3,0,152.6,69,152.6,154.2v650.7c0,85.2-68.4,154.2-152.6,154.2h-933.5c-19.2,0-37.6-3.6-54.5-10.1,205.9-22.6,675.7-81.5,818.1-163,143.7-82.3,196.5-325.9,188.7-459.7l-18.9-326.4h0Z"/>
  <path class="st13" d="M4036.1,2724.7c-92.5,0-167.5,75.8-167.5,169.3v526.4c0,93.5,75,169.4,167.5,169.4h773c92.5,0,167.6-75.8,167.6-169.4v-526.4c0-93.5-75.1-169.3-167.6-169.3h-773ZM4036.1,2754.8h773c76.1,0,137.8,62.3,137.8,139.2v526.4c0,76.9-61.7,139.2-137.8,139.2h-773c-76.1,0-137.8-62.3-137.8-139.2v-526.4c0-76.9,61.7-139.2,137.8-139.2h0Z"/>
  <path class="st11" d="M4314.8,3086.1c0-60.2,48.3-109,107.9-109s107.9,48.8,107.9,109-48.3,109-107.9,109-107.9-48.8-107.9-109h0Z"/>
  <polygon class="st11" points="4368.7 3086.1 4476.6 3086.1 4476.6 3413.2 4368.7 3413.2 4368.7 3086.1 4368.7 3086.1"/>
  <path class="st19" d="M990.3,2897.9c-1.1,0-2.2,0-3.3.1-1.1.1-2.1.3-3.1.5-1,.2-2,.5-3,.8-1,.3-2,.7-2.9,1.1-1.9.9-3.7,1.9-5.4,3.1-1.7,1.2-3.3,2.6-4.8,4.1-5.8,6-9.4,14.3-9.7,23.6l279.7,155.6,339.6,188.9,339.6-188.9,279.7-155.6c0-.2,0-.5,0-.8,0-1.9-.3-3.8-.7-5.6-.3-1.6-.8-3.2-1.3-4.7-.1-.5-.3-1.1-.5-1.5-.6-1.5-1.4-3-2.2-4.4-.2-.5-.5-1-.8-1.4-.8-1.2-1.7-2.3-2.7-3.4-.4-.6-.8-1.1-1.3-1.6-1.2-1.2-2.5-2.3-3.8-3.3-.3-.2-.5-.5-.8-.7,0,0,0,0,0,0-1.6-1.1-3.4-2.1-5.2-2.9,0,0-.2,0-.3-.1,0,0,0,0,0,0-.8-.3-1.6-.6-2.4-.9-.1,0-.3-.1-.4-.2h0c-.8-.3-1.5-.4-2.3-.6,0,0,0,0,0,0-1.3-.3-2.6-.6-3.9-.7-1.1,0-2.2-.1-3.3-.1H990.3Z"/>
  <path class="st15" d="M990.3,2946.8c-1.1,0-2.2,0-3.3-.2-1.1,0-2.1-.3-3.1-.5-1-.2-2-.5-3-.8-1-.3-2-.7-2.9-1.1-1.9-.8-3.7-1.9-5.4-3.1-1.7-1.2-3.3-2.6-4.8-4-5.8-6-9.4-14.3-9.7-23.6l279.7-155.6,339.6-188.9,339.6,188.9,279.7,155.6c0,.2,0,.5,0,.8,0,1.9-.3,3.8-.7,5.6-.3,1.6-.8,3.1-1.3,4.7-.1.5-.3,1.1-.5,1.6-.6,1.5-1.4,3-2.2,4.4-.2.5-.5,1-.8,1.4-.8,1.3-1.7,2.4-2.7,3.5-.4.5-.8,1.1-1.3,1.6-1.2,1.2-2.5,2.3-3.8,3.3-.3.2-.5.5-.8.7h0c-1.6,1.2-3.4,2.2-5.2,3,0,0-.2.1-.3.2,0,0,0,0,0,0-.8.4-1.6.7-2.4.9-.1,0-.3.1-.4.2,0,0,0,0,0,0-.8.2-1.5.4-2.3.6,0,0,0,0,0,0-1.3.3-2.6.6-3.9.7-1.1.1-2.2.2-3.3.2H990.3Z"/>
  <path class="st15" d="M958,2915.4v687.2c0,18.9,14.4,34.2,32.2,34.2h1174.3c17.8,0,32.2-15.3,32.2-34.2v-687.2c0-.3,0-.6,0-.8l-279.7,155.6-339.6,188.9-339.6-188.9-279.7-155.6v.9h0Z"/>
  <path class="st15" d="M1411.4,3166.7c-.2,0-.3.2-.5.3l9.8,4.9-9.3-5.2h0Z"/>
  <path class="st21" d="M1577.4,3226l-339.6,205.4-279.8,169.2v2c0,.3,0,.6,0,.9.4,18.4,14.6,33.3,32.2,33.3h1174.3c2.2,0,4.3-.2,6.4-.7.3,0,.5-.1.8-.2.8-.2,1.6-.4,2.4-.6,1-.3,1.9-.7,2.8-1.1t0,0c.7-.3,1.3-.7,1.9-1.1,1.2-.6,2.5-1.3,3.6-2.1,1.1-.8,2-1.7,2.9-2.5.5-.5,1.1-.9,1.6-1.4,0,0,0,0,0,0,.9-.9,1.6-2,2.4-3,.5-.7,1.1-1.3,1.6-2,.6-1,1.1-2.1,1.7-3.1.4-.9.9-1.7,1.3-2.6.5-1.2.8-2.5,1.2-3.8.2-.9.6-1.7.7-2.5.4-2.1.7-4.2.8-6.4h0c0-.3,0-.6,0-.9v-2l-279.8-169.2-339.6-205.4h0Z"/>
  <path class="st15" d="M1577.4,3259l-339.6,188.9-279.7,155.6c.4,18.4,14.6,33.3,32.2,33.3h1174.3c2.2,0,4.3-.2,6.4-.7.3,0,.5-.1.8-.2.8-.2,1.6-.4,2.4-.6,1-.3,1.9-.7,2.8-1.1t0,0c.7-.3,1.3-.7,1.9-1.1,1.2-.6,2.5-1.3,3.6-2.1,1.1-.8,2-1.7,2.9-2.5.5-.5,1.1-.9,1.6-1.4,0,0,0,0,0,0,.9-.9,1.6-2,2.4-3,.5-.7,1.1-1.3,1.6-2,.6-1,1.1-2.1,1.7-3.1.4-.9.9-1.7,1.3-2.6.5-1.2.8-2.5,1.2-3.8.2-.9.6-1.7.7-2.5.4-2.1.7-4.2.8-6.4h0s-279.7-155.6-279.7-155.6l-339.6-188.9h0Z"/>
  <path class="st15" d="M1411.4,3151.8c-.2,0-.3.2-.5.3l9.8,4.9-9.3-5.2h0Z"/>
  <polygon class="st12" points="2097.3 2303.7 1061.4 2303.7 1057.8 2955.1 1237.8 3055.3 1361.6 3124.1 1361.6 3124.1 1388 3138.8 1388.1 3138.8 1577.4 3244.1 1779.9 3131.5 1818.8 3109.9 1821.7 3108.3 1836.4 3100.1 1895 3067.5 1917 3055.3 2093.7 2956.9 2095.2 2696.7 2095.3 2664 2097.3 2303.7 2097.3 2303.7"/>
  <path class="st10" d="M1949.2,2661.6l-298.6-1.6c-4.5,0-8.1-3.3-8-7.3,0-4,3.7-7.3,8.1-7.2l298.6,1.6c4.5,0,8.1,3.3,8,7.3,0,4-3.7,7.3-8.1,7.2h0Z"/>
  <path class="st10" d="M1618,2659.8l-220-1.2c-4.5,0-8.1-3.3-8-7.3,0-4,3.7-7.2,8.1-7.2l220,1.2c4.5,0,8.1,3.3,8,7.3,0,4-3.7,7.3-8.1,7.2h0Z"/>
  <path class="st10" d="M1417.6,2805.1l-220-1.2c-4.5,0-8.1,3.2-8.1,7.2,0,4,3.6,7.3,8,7.3l220,1.2c4.5,0,8.1-3.2,8.1-7.2,0-4-3.6-7.3-8-7.3h0Z"/>
  <path class="st10" d="M1418.2,2697.7l-220-1.2c-4.5,0-8.1,3.2-8.1,7.2,0,4,3.6,7.3,8,7.3l220,1.2c4.5,0,8.1-3.2,8.1-7.2,0-4-3.6-7.3-8-7.3h0Z"/>
  <path class="st10" d="M1417.6,2805.1l-220-1.2c-4.5,0-8.1,3.2-8.1,7.2,0,4,3.6,7.3,8,7.3l220,1.2c4.5,0,8.1-3.2,8.1-7.2,0-4-3.6-7.3-8-7.3h0Z"/>
  <path class="st10" d="M1418.2,2697.7l-220-1.2c-4.5,0-8.1,3.2-8.1,7.2,0,4,3.6,7.3,8,7.3l220,1.2c4.5,0,8.1-3.2,8.1-7.2,0-4-3.6-7.3-8-7.3h0Z"/>
  <path class="st10" d="M1714.5,2600.1l-220-1.2c-4.5,0-8.1-3.3-8-7.3,0-4,3.7-7.3,8.1-7.2l220,1.2c4.5,0,8,3.3,8,7.3,0,4-3.7,7.3-8.1,7.2h0Z"/>
  <path class="st10" d="M1539.4,2873.2l220,1.2c4.5,0,8,3.3,8,7.3,0,4-3.7,7.3-8.1,7.2l-220-1.2c-4.5,0-8.1-3.3-8-7.3,0-4,3.7-7.3,8.1-7.2h0Z"/>
  <path class="st10" d="M1593.8,2758.9l220,1.2c4.5,0,8,3.3,8,7.3,0,4-3.7,7.3-8.1,7.2l-220-1.2c-4.5,0-8.1-3.3-8-7.3,0-4,3.7-7.2,8.1-7.2h0Z"/>
  <path class="st10" d="M1539.4,2873.2l220,1.2c4.5,0,8,3.3,8,7.3,0,4-3.7,7.3-8.1,7.2l-220-1.2c-4.5,0-8.1-3.3-8-7.3,0-4,3.7-7.3,8.1-7.2h0Z"/>
  <path class="st10" d="M1593.8,2758.9l220,1.2c4.5,0,8,3.3,8,7.3,0,4-3.7,7.3-8.1,7.2l-220-1.2c-4.5,0-8.1-3.3-8-7.3,0-4,3.7-7.2,8.1-7.2h0Z"/>
  <path class="st10" d="M1618,2963.2l-220-1.2c-4.5,0-8.1-3.3-8-7.3,0-4,3.7-7.2,8.1-7.2l220,1.2c4.5,0,8,3.3,8,7.3,0,4-3.7,7.3-8.1,7.2h0Z"/>
  <path class="st10" d="M1591.5,2809.1l220,1.2c4.5,0,8.1,3.3,8,7.3,0,4-3.7,7.2-8.1,7.2l-220-1.2c-4.5,0-8.1-3.3-8-7.3,0-4,3.7-7.3,8.1-7.2h0Z"/>
  <path class="st10" d="M1361.6,3124.1l26.4,14.7,161.5.9c4.5,0,8.1-3.2,8.1-7.2,0-4-3.6-7.3-8.1-7.3l-188-1h0Z"/>
  <path class="st10" d="M1592.1,2701.7l220,1.2c4.5,0,8.1,3.3,8,7.3,0,4-3.7,7.3-8.1,7.2l-220-1.2c-4.5,0-8.1-3.3-8-7.3,0-4,3.7-7.2,8.1-7.2h0Z"/>
  <path class="st10" d="M1591.5,2809.1l220,1.2c4.5,0,8.1,3.3,8,7.3,0,4-3.7,7.2-8.1,7.2l-220-1.2c-4.5,0-8.1-3.3-8-7.3,0-4,3.7-7.3,8.1-7.2h0Z"/>
  <path class="st10" d="M1361.6,3124.1l26.4,14.7,161.5.9c4.5,0,8.1-3.2,8.1-7.2,0-4-3.6-7.3-8.1-7.3l-188-1h0Z"/>
  <path class="st10" d="M1592.1,2701.7l220,1.2c4.5,0,8.1,3.3,8,7.3,0,4-3.7,7.3-8.1,7.2l-220-1.2c-4.5,0-8.1-3.3-8-7.3,0-4,3.7-7.2,8.1-7.2h0Z"/>
  <path class="st10" d="M1357.8,2658.4l-94.7-.5c-4.5,0-8.1-3.3-8-7.3,0-4,3.7-7.2,8.1-7.2l94.7.5c4.5,0,8.1,3.3,8,7.3,0,4-3.7,7.3-8.1,7.2h0Z"/>
  <path class="st10" d="M1552.5,2808.9l-94.7-.5c-4.5,0-8.1,3.2-8.1,7.2,0,4,3.6,7.3,8,7.3l94.7.5c4.5,0,8.1-3.2,8.1-7.2,0-4-3.6-7.3-8-7.3h0Z"/>
  <path class="st10" d="M1553.1,2701.5l-94.7-.5c-4.5,0-8.1,3.2-8.1,7.2,0,4,3.6,7.3,8,7.3l94.7.5c4.5,0,8.1-3.2,8.1-7.2,0-4-3.6-7.3-8-7.3h0Z"/>
  <path class="st10" d="M1552.5,2808.9l-94.7-.5c-4.5,0-8.1,3.2-8.1,7.2,0,4,3.6,7.3,8,7.3l94.7.5c4.5,0,8.1-3.2,8.1-7.2,0-4-3.6-7.3-8-7.3h0Z"/>
  <path class="st10" d="M1553.1,2701.5l-94.7-.5c-4.5,0-8.1,3.2-8.1,7.2,0,4,3.6,7.3,8,7.3l94.7.5c4.5,0,8.1-3.2,8.1-7.2,0-4-3.6-7.3-8-7.3h0Z"/>
  <path class="st10" d="M1500.4,2873l-94.7-.5c-4.5,0-8.1,3.2-8.1,7.2,0,4,3.6,7.3,8,7.3l94.7.5c4.5,0,8.1-3.2,8.1-7.2,0-4-3.6-7.3-8-7.3h0Z"/>
  <path class="st10" d="M1554.8,2758.7l-94.7-.5c-4.5,0-8.1,3.2-8.1,7.2,0,4,3.6,7.3,8,7.3l94.7.5c4.5,0,8.1-3.2,8.1-7.2,0-4-3.6-7.3-8-7.3h0Z"/>
  <path class="st10" d="M1500.4,2873l-94.7-.5c-4.5,0-8.1,3.2-8.1,7.2,0,4,3.6,7.3,8,7.3l94.7.5c4.5,0,8.1-3.2,8.1-7.2,0-4-3.6-7.3-8-7.3h0Z"/>
  <path class="st10" d="M1554.8,2758.7l-94.7-.5c-4.5,0-8.1,3.2-8.1,7.2,0,4,3.6,7.3,8,7.3l94.7.5c4.5,0,8.1-3.2,8.1-7.2,0-4-3.6-7.3-8-7.3h0Z"/>
  <path class="st10" d="M1657,2963.4l94.7.5c4.5,0,8.1-3.2,8.1-7.2,0-4-3.6-7.3-8-7.3l-94.7-.5c-4.5,0-8.1,3.2-8.1,7.2,0,4,3.6,7.3,8,7.3h0Z"/>
  <path class="st10" d="M1358.3,2872.2l-94.7-.5c-4.5,0-8.1,3.2-8.1,7.2,0,4,3.6,7.3,8,7.3l94.7.5c4.5,0,8.1-3.2,8.1-7.2,0-4-3.6-7.3-8-7.3h0Z"/>
  <path class="st10" d="M1412.7,2757.9l-94.7-.5c-4.5,0-8.1,3.2-8.1,7.2,0,4,3.6,7.3,8,7.3l94.7.5c4.5,0,8.1-3.2,8.1-7.2,0-4-3.6-7.3-8-7.3h0Z"/>
  <path class="st10" d="M1358.3,2872.2l-94.7-.5c-4.5,0-8.1,3.2-8.1,7.2,0,4,3.6,7.3,8,7.3l94.7.5c4.5,0,8.1-3.2,8.1-7.2,0-4-3.6-7.3-8-7.3h0Z"/>
  <path class="st10" d="M1412.7,2757.9l-94.7-.5c-4.5,0-8.1,3.2-8.1,7.2,0,4,3.6,7.3,8,7.3l94.7.5c4.5,0,8.1-3.2,8.1-7.2,0-4-3.6-7.3-8-7.3h0Z"/>
  <path class="st10" d="M1799.1,2964.2l94.7.5c4.4,0,8.1-3.2,8.1-7.2,0-4-3.6-7.3-8-7.3l-94.7-.5c-4.5,0-8.1,3.2-8.1,7.2,0,4,3.6,7.3,8,7.3h0Z"/>
  <path class="st10" d="M1799.6,2874.7l94.7.5c4.5,0,8.1,3.3,8,7.3,0,4-3.7,7.3-8.1,7.2l-94.7-.5c-4.5,0-8.1-3.3-8-7.3,0-4,3.7-7.3,8.1-7.2h0Z"/>
  <path class="st10" d="M1854,2760.3l94.7.5c4.4,0,8,3.3,8,7.3,0,4-3.7,7.3-8.1,7.2l-94.7-.5c-4.5,0-8-3.3-8-7.3,0-4,3.7-7.2,8.1-7.2h0Z"/>
  <path class="st10" d="M1799.6,2874.7l94.7.5c4.5,0,8.1,3.3,8,7.3,0,4-3.7,7.3-8.1,7.2l-94.7-.5c-4.5,0-8.1-3.3-8-7.3,0-4,3.7-7.3,8.1-7.2h0Z"/>
  <path class="st10" d="M1854,2760.3l94.7.5c4.4,0,8,3.3,8,7.3,0,4-3.7,7.3-8.1,7.2l-94.7-.5c-4.5,0-8-3.3-8-7.3,0-4,3.7-7.2,8.1-7.2h0Z"/>
  <path class="st10" d="M1357.8,2961.8l-94.7-.5c-4.5,0-8.1-3.3-8-7.3,0-4,3.7-7.2,8.1-7.2l94.7.5c4.5,0,8.1,3.3,8,7.3,0,4-3.7,7.3-8.1,7.2h0Z"/>
  <path class="st10" d="M1851.7,2810.5l94.7.5c4.5,0,8,3.3,8,7.3,0,4-3.7,7.2-8.1,7.2l-94.7-.5c-4.5,0-8-3.3-8-7.3,0-4,3.7-7.3,8.1-7.2h0Z"/>
  <path class="st10" d="M1852.3,2703.1l94.7.5c4.5,0,8,3.3,8,7.3,0,4-3.7,7.3-8.1,7.2l-94.7-.5c-4.5,0-8-3.3-8-7.3,0-4,3.7-7.2,8.1-7.2h0Z"/>
  <path class="st10" d="M1851.7,2810.5l94.7.5c4.5,0,8,3.3,8,7.3,0,4-3.7,7.2-8.1,7.2l-94.7-.5c-4.5,0-8-3.3-8-7.3,0-4,3.7-7.3,8.1-7.2h0Z"/>
  <path class="st10" d="M1852.3,2703.1l94.7.5c4.5,0,8,3.3,8,7.3,0,4-3.7,7.3-8.1,7.2l-94.7-.5c-4.5,0-8-3.3-8-7.3,0-4,3.7-7.2,8.1-7.2h0Z"/>
  <path class="st10" d="M1428.2,2552.6l-220-1.2c-4.5,0-8.1-3.3-8-7.3,0-4,3.7-7.2,8.1-7.2l220,1.2c4.5,0,8,3.3,8,7.3,0,4-3.7,7.3-8.1,7.2h0Z"/>
  <path class="st10" d="M1559.9,2381.7l-220-1.2c-4.5,0-8.1,3.2-8.1,7.2,0,4,3.6,7.3,8,7.3l220,1.2c4.5,0,8.1-3.2,8.1-7.2,0-4-3.6-7.3-8-7.3h0Z"/>
  <path class="st10" d="M1559.9,2381.7l-220-1.2c-4.5,0-8.1,3.2-8.1,7.2,0,4,3.6,7.3,8,7.3l220,1.2c4.5,0,8.1-3.2,8.1-7.2,0-4-3.6-7.3-8-7.3h0Z"/>
  <path class="st10" d="M1602.6,2471.5l220,1.2c4.4,0,8.1-3.2,8.1-7.2,0-4-3.6-7.3-8-7.3l-220-1.2c-4.5,0-8.1,3.2-8.1,7.2,0,4,3.6,7.3,8,7.3h0Z"/>
  <path class="st10" d="M1602.1,2550.5l220,1.2c4.5,0,8.1-3.2,8.1-7.2,0-4-3.6-7.3-8-7.3l-220-1.2c-4.5,0-8.1,3.2-8.1,7.2,0,4,3.6,7.3,8,7.3h0Z"/>
  <path class="st10" d="M1563.1,2550.3l-94.7-.5c-4.5,0-8.1-3.3-8-7.3,0-4,3.7-7.3,8.1-7.2l94.7.5c4.5,0,8.1,3.3,8,7.3,0,4-3.7,7.3-8.1,7.2h0Z"/>
  <path class="st10" d="M1599,2382l94.7.5c4.5,0,8,3.3,8,7.3,0,4-3.7,7.3-8.1,7.2l-94.7-.5c-4.5,0-8.1-3.3-8-7.3,0-4,3.7-7.2,8.1-7.2h0Z"/>
  <path class="st10" d="M1599,2382l94.7.5c4.5,0,8,3.3,8,7.3,0,4-3.7,7.3-8.1,7.2l-94.7-.5c-4.5,0-8.1-3.3-8-7.3,0-4,3.7-7.2,8.1-7.2h0Z"/>
  <path class="st10" d="M1563.6,2471.3l-94.7-.5c-4.5,0-8.1-3.3-8-7.3,0-4,3.7-7.3,8.1-7.2l94.7.5c4.5,0,8.1,3.3,8,7.3,0,4-3.7,7.3-8.1,7.2h0Z"/>
  <path class="st10" d="M1741,2382.7l94.7.5c4.5,0,8.1,3.3,8,7.3,0,4-3.7,7.2-8.1,7.2l-94.7-.5c-4.5,0-8.1-3.3-8-7.3,0-4,3.7-7.3,8.1-7.2h0Z"/>
  <path class="st10" d="M1741,2382.7l94.7.5c4.5,0,8.1,3.3,8,7.3,0,4-3.7,7.2-8.1,7.2l-94.7-.5c-4.5,0-8.1-3.3-8-7.3,0-4,3.7-7.3,8.1-7.2h0Z"/>
  <path class="st10" d="M1421.4,2470.5l-94.7-.5c-4.5,0-8.1-3.3-8-7.3,0-4,3.7-7.3,8.1-7.2l94.7.5c4.5,0,8.1,3.3,8,7.3,0,4-3.7,7.2-8.1,7.2h0Z"/>
  <path class="st10" d="M1299.7,2380.3l-94.7-.5c-4.5,0-8.1,3.2-8.1,7.2,0,4,3.6,7.3,8,7.3l94.7.5c4.5,0,8.1-3.2,8.1-7.2,0-4-3.6-7.3-8-7.3h0Z"/>
  <path class="st10" d="M1299.7,2380.3l-94.7-.5c-4.5,0-8.1,3.2-8.1,7.2,0,4,3.6,7.3,8,7.3l94.7.5c4.5,0,8.1-3.2,8.1-7.2,0-4-3.6-7.3-8-7.3h0Z"/>
  <path class="st10" d="M1862.7,2472.9l94.7.5c4.5,0,8.1-3.2,8.1-7.2,0-4-3.6-7.3-8-7.3l-94.7-.5c-4.5,0-8.1,3.2-8.1,7.2,0,4,3.6,7.3,8,7.3h0Z"/>
  <path class="st10" d="M1862.3,2551.9l94.7.5c4.5,0,8.1-3.2,8.1-7.2,0-4-3.6-7.3-8-7.3l-94.7-.5c-4.5,0-8.1,3.2-8.1,7.2,0,4,3.6,7.3,8,7.3h0Z"/>
  <path class="st10" d="M1317.8,2759.7c0-143.5,116.3-259.8,259.8-259.8s259.8,116.3,259.8,259.8-116.3,259.8-259.8,259.8-259.8-116.3-259.8-259.8h0Z"/>
  <path class="st11" d="M1372.5,2759.7c0-113.2,91.8-205.1,205.1-205.1s205.1,91.8,205.1,205.1-91.8,205.1-205.1,205.1-205.1-91.8-205.1-205.1h0Z"/>
  <path class="st10" d="M1616.7,2684.7l4.5-19.9h47.4l-27.3,128.6c-1.7,8.1-2.5,13.5-2.5,16.1s.7,4.9,2.1,6.4c1.4,1.6,3,2.3,4.9,2.3,6.5,0,14.8-4.2,25-12.6,10.2-8.4,19.1-19.9,26.7-34.4,7.6-14.5,11.4-30.4,11.4-47.6s-2.7-27.9-8.2-40.5c-5.4-12.7-13.3-23.7-23.6-33-10.3-9.3-23-16.6-38.1-21.9-15.1-5.2-32.3-7.9-51.4-7.9s-37.4,2.5-53.6,7.6c-16.3,5.1-30.5,12.4-42.9,21.9-12.3,9.5-22.6,21.3-30.9,35.2-7.3,12.2-12.9,25.7-16.7,40.5-3.8,14.8-5.7,29.9-5.7,45.4s4.1,39.4,12.3,56.4c8.2,17,20.1,31.3,35.7,42.9,15.6,11.5,34.5,19.7,56.6,24.6,22.1,4.9,47.1,5.8,75,3,22.1-2.6,40.9-7.7,56.2-15.1,15.4-7.4,28.4-17.8,39-31.2h38.2c-6.2,12.8-14.3,24.2-24.3,34.2-10,10.1-21.7,18.5-35.1,25.4-13.4,6.9-28.4,12.1-45,15.7-16.6,3.6-34.7,5.4-54.3,5.4-29.4,0-55.9-3.8-79.4-11.6-23.5-7.7-43.4-18.8-59.4-33.4-16.1-14.5-28.3-31.9-36.5-52-8.3-20.1-12.4-42.4-12.4-66.8s4.2-49.3,12.7-71.4c8.5-22.1,20.7-41.3,36.7-57.7,15.9-16.3,35.4-29.1,58.5-38.3,23-9.2,48.4-13.8,76.1-13.8s43.5,3.3,62.5,9.9c19,6.6,35.2,16.2,48.7,28.6,13.5,12.4,23.8,27.2,31,44.2,7.1,17,10.7,35.8,10.7,56.4s-2.9,31.7-8.6,47.1c-5.7,15.4-14,29.2-24.7,41.4-10.7,12.3-23.3,21.9-37.7,29-14.4,7.1-30,10.7-46.8,10.7s-17.2-1.6-22.6-4.9c-5.4-3.3-9-8.5-10.8-15.7-10.4,10.3-22.3,16.8-35.9,19.5-13.5,2.7-26.6,1.4-39.3-3.8-12.7-5.2-22.9-14-30.8-26.3-7.8-12.3-11.7-27.5-11.7-45.5s4-37.2,12.1-55.4c8.1-18.2,19.5-33.1,34.4-44.6,14.9-11.6,31.7-17.4,50.5-17.4s37.3,8.1,47.3,24.2h0ZM1518.6,2777.6c0,14.3,3,25.3,9,33,6,7.7,13.8,11.5,23.5,11.5s21.1-4.5,29.7-13.5c8.5-9,15-20.3,19.5-34,4.4-13.7,6.6-26.9,6.6-39.7s-.8-12-2.3-17.1c-1.5-5.1-3.7-9.5-6.6-13.3-2.9-3.8-6.5-6.7-10.6-8.7-4.1-2-8.8-3-14.1-3-10.5,0-20,4.1-28.4,12.3-8.4,8.2-14.9,18.8-19.5,31.9-4.5,13.1-6.8,26.6-6.8,40.6h0Z"/>
  <path class="st18" d="M2272.6,1732.9l597.3.8-262.9-178.3s-82.6,15.9-146.1,57.2c-63.5,41.4-188.3,120.2-188.3,120.2h0Z"/>
  <path class="st14" d="M2588.6,1578.1l-315.9,154.9s155,.2,165.4.2c0,0,67.1-49.8,104.8-88.6,37.6-38.8,45.8-66.5,45.8-66.5h0Z"/>
  <path class="st18" d="M2021.4,1673.9c-217.7-124.3-293.4-401.5-169.2-619.1,124.3-217.7,401.5-293.4,619.1-169.2,217.7,124.3,293.4,401.5,169.2,619.1-124.3,217.7-401.5,293.4-619.1,169.2h0Z"/>
  <path class="st18" d="M958,1155.7c0-73.2,59.3-132.5,132.5-132.5h1151.7c73.2,0,132.5,59.3,132.5,132.5v445.5c0,73.2-59.3,132.5-132.5,132.5h-1151.7c-73.2,0-132.5-59.3-132.5-132.5v-445.5h0Z"/>
  <path class="st11" d="M1316.5,1094.3h12.3l29.3,67.4h-16.8l-5.8-14.3h-26.2l-5.6,14.3h-16.4l29.2-67.4h0ZM1322.2,1113.9l-8.2,21h16.5l-8.3-21h0Z"/>
  <path class="st11" d="M1407.6,1161.7h-13.7v-6.3h-.2c-.5.9-1.2,1.8-2,2.7-.8.9-1.8,1.7-2.9,2.4-1.1.7-2.4,1.3-3.9,1.7-1.5.4-3,.7-4.8.7-3.6,0-6.6-.6-8.8-1.7-2.3-1.1-4-2.7-5.2-4.6-1.2-2-2.1-4.3-2.5-7-.4-2.7-.6-5.6-.6-8.7v-25.5h14.3v22.7c0,1.3,0,2.7.1,4.1,0,1.4.4,2.7.9,4,.5,1.2,1.2,2.2,2.2,3,1,.8,2.4,1.1,4.2,1.1s3.3-.3,4.5-1c1.1-.7,2-1.6,2.6-2.7.6-1.1,1-2.4,1.2-3.8.2-1.4.3-2.9.3-4.4v-23.1h14.3v46.3h0Z"/>
  <path class="st11" d="M1449.3,1126.8h-12.6v15.4c0,1.3,0,2.4.2,3.5.1,1,.4,2,.9,2.7.4.8,1.1,1.3,2,1.8.9.4,2.1.6,3.7.6s1.8,0,3-.2c1.2-.2,2.2-.5,2.8-1.1v11.9c-1.6.6-3.2,1-5,1.1-1.7.2-3.4.3-5,.3-2.4,0-4.6-.3-6.7-.8-2-.5-3.8-1.3-5.3-2.4-1.5-1.1-2.7-2.6-3.6-4.3-.9-1.8-1.3-3.9-1.3-6.5v-22h-9.1v-11.4h9.1v-13.7h14.3v13.7h12.6v11.4h0Z"/>
  <path class="st11" d="M1470.8,1089.7v32h.2c.3-.9.9-1.8,1.6-2.7.8-.9,1.7-1.7,2.8-2.4,1.1-.7,2.4-1.3,3.8-1.7,1.5-.4,3-.7,4.8-.7,3.6,0,6.5.6,8.8,1.7,2.2,1.1,4,2.7,5.2,4.6,1.2,2,2.1,4.3,2.5,7,.4,2.7.7,5.6.7,8.7v25.5h-14.3v-22.7c0-1.3,0-2.7-.1-4.1,0-1.4-.4-2.7-.9-4-.5-1.2-1.2-2.2-2.2-3-1-.8-2.4-1.1-4.2-1.1s-3.3.3-4.5,1c-1.1.7-2,1.6-2.6,2.7-.6,1.1-1,2.4-1.2,3.8-.2,1.4-.3,2.9-.3,4.4v23.1h-14.3v-72h14.3Z"/>
  <path class="st11" d="M1555,1153.7c-2.3,2.9-5.2,5.2-8.7,6.8-3.5,1.6-7.1,2.4-10.9,2.4s-6.9-.6-10-1.7c-3.1-1.1-5.9-2.8-8.2-4.9-2.3-2.1-4.1-4.7-5.5-7.7-1.3-3-2-6.3-2-10s.7-7,2-10c1.3-3,3.2-5.5,5.5-7.7,2.3-2.1,5-3.8,8.2-4.9,3.1-1.1,6.5-1.7,10-1.7s6.3.6,9,1.7c2.7,1.1,5,2.8,6.9,4.9,1.9,2.1,3.3,4.7,4.3,7.7,1,3,1.5,6.3,1.5,10v4.5h-33.2c.6,2.7,1.8,4.9,3.7,6.5,1.9,1.6,4.3,2.4,7.1,2.4s4.3-.5,6-1.6c1.6-1,3-2.4,4.2-4l10,7.3h0ZM1542.9,1133.3c0-2.4-.7-4.5-2.4-6.2-1.7-1.7-3.8-2.6-6.4-2.6s-3,.3-4.2.8c-1.2.5-2.2,1.2-3.1,2-.9.8-1.5,1.7-2,2.8-.5,1-.7,2.1-.8,3.3h18.9Z"/>
  <path class="st11" d="M1565.9,1115.4h13.7v6.3h.2c.4-.9,1.1-1.8,1.9-2.7.8-.9,1.8-1.7,3-2.4,1.1-.7,2.4-1.3,3.9-1.7,1.5-.4,3-.7,4.8-.7,3.6,0,6.5.6,8.8,1.7,2.2,1.1,4,2.7,5.2,4.6,1.2,2,2.1,4.3,2.5,7,.4,2.7.7,5.6.7,8.7v25.5h-14.3v-22.7c0-1.3,0-2.7-.1-4.1s-.4-2.7-.9-4c-.5-1.2-1.2-2.2-2.2-3-1-.8-2.4-1.1-4.2-1.1s-3.3.3-4.5,1c-1.1.7-2,1.6-2.6,2.7-.6,1.1-1,2.4-1.2,3.8-.2,1.4-.3,2.9-.3,4.4v23.1h-14.3v-46.3h0Z"/>
  <path class="st11" d="M1652.1,1126.8h-12.6v15.4c0,1.3,0,2.4.2,3.5.1,1,.4,2,.9,2.7.4.8,1.1,1.3,2,1.8.9.4,2.1.6,3.7.6s1.8,0,3-.2c1.2-.2,2.2-.5,2.8-1.1v11.9c-1.6.6-3.2,1-5,1.1-1.7.2-3.4.3-5,.3-2.4,0-4.6-.3-6.7-.8-2-.5-3.8-1.3-5.3-2.4-1.5-1.1-2.7-2.6-3.6-4.3-.9-1.8-1.3-3.9-1.3-6.5v-22h-9.1v-11.4h9.1v-13.7h14.3v13.7h12.6v11.4h0Z"/>
  <path class="st11" d="M1659.5,1115.4h14.3v46.3h-14.3v-46.3h0ZM1658.4,1100.8c0-2.3.8-4.2,2.4-5.9,1.6-1.6,3.6-2.4,5.9-2.4s4.2.8,5.9,2.4c1.6,1.6,2.4,3.6,2.4,5.9s-.8,4.2-2.4,5.9c-1.6,1.6-3.6,2.4-5.9,2.4s-4.2-.8-5.9-2.4c-1.6-1.6-2.4-3.6-2.4-5.9h0Z"/>
  <path class="st11" d="M1715.4,1130.4c-.7-1-1.7-1.9-3-2.5-1.3-.7-2.6-1-4.1-1-3.6,0-6.4,1.1-8.4,3.2-2,2.2-3,5-3,8.5s1,6.3,3,8.5c2,2.2,4.8,3.2,8.4,3.2s3-.4,4.1-1c1.1-.7,2.1-1.5,3-2.5l9.4,9.9c-2.2,2.3-4.8,3.9-7.9,4.8-3,.9-5.9,1.4-8.6,1.4s-6.9-.6-10-1.7c-3.1-1.1-5.9-2.8-8.2-4.9-2.3-2.1-4.1-4.7-5.5-7.7-1.3-3-2-6.3-2-10s.7-7,2-10c1.3-3,3.2-5.5,5.5-7.7,2.3-2.1,5-3.8,8.2-4.9,3.1-1.1,6.5-1.7,10-1.7s5.6.5,8.6,1.4c3,.9,5.6,2.5,7.9,4.8l-9.4,9.9h0Z"/>
  <path class="st11" d="M1759,1155.9h-.2c-1.6,2.5-3.7,4.3-6.3,5.3-2.6,1.1-5.4,1.6-8.3,1.6s-4.2-.3-6.2-.9c-2-.6-3.8-1.5-5.3-2.7-1.5-1.2-2.7-2.7-3.6-4.5-.9-1.8-1.3-3.8-1.3-6.2s.5-4.9,1.5-6.8c1-1.8,2.3-3.4,4-4.6,1.7-1.2,3.6-2.1,5.8-2.8,2.2-.7,4.4-1.2,6.7-1.5,2.3-.3,4.6-.5,7-.6,2.3,0,4.5,0,6.4,0,0-2.5-.9-4.6-2.7-6.1-1.8-1.5-4-2.2-6.4-2.2s-4.5.5-6.4,1.5c-1.9,1-3.7,2.3-5.2,4l-7.6-7.8c2.7-2.5,5.8-4.3,9.3-5.6,3.6-1.2,7.2-1.9,11.1-1.9s7.6.5,10.3,1.6c2.7,1,4.9,2.6,6.5,4.6,1.6,2,2.7,4.5,3.4,7.5.6,3,1,6.4,1,10.2v23.5h-13.1v-5.8h0ZM1755.5,1141.4c-1.1,0-2.4,0-4,.1-1.6,0-3.2.4-4.7.8-1.5.4-2.8,1.1-3.8,2-1,.9-1.6,2.1-1.6,3.7s.7,3,2.2,3.8c1.5.8,3,1.2,4.6,1.2s2.7-.2,4-.6c1.3-.4,2.5-.9,3.5-1.6,1-.7,1.8-1.6,2.4-2.7.6-1.1.9-2.3.9-3.8v-3h-3.5Z"/>
  <path class="st11" d="M1812.7,1126.8h-12.6v15.4c0,1.3,0,2.4.2,3.5.1,1,.4,2,.9,2.7.4.8,1.1,1.3,2,1.8.9.4,2.1.6,3.7.6s1.8,0,3-.2c1.2-.2,2.2-.5,2.8-1.1v11.9c-1.6.6-3.2,1-5,1.1-1.7.2-3.4.3-5.1.3-2.4,0-4.6-.3-6.7-.8-2-.5-3.8-1.3-5.3-2.4-1.5-1.1-2.7-2.6-3.6-4.3-.9-1.8-1.3-3.9-1.3-6.5v-22h-9.1v-11.4h9.1v-13.7h14.3v13.7h12.6v11.4h0Z"/>
  <path class="st11" d="M1820.1,1115.4h14.3v46.3h-14.3v-46.3h0ZM1819,1100.8c0-2.3.8-4.2,2.4-5.9,1.6-1.6,3.6-2.4,5.9-2.4s4.2.8,5.9,2.4c1.6,1.6,2.4,3.6,2.4,5.9s-.8,4.2-2.4,5.9c-1.6,1.6-3.6,2.4-5.9,2.4s-4.2-.8-5.9-2.4c-1.6-1.6-2.4-3.6-2.4-5.9h0Z"/>
  <path class="st11" d="M1843,1138.6c0-3.7.7-7,2-10,1.3-3,3.2-5.5,5.5-7.7,2.3-2.1,5-3.8,8.2-4.9s6.5-1.7,10.1-1.7,6.9.6,10,1.7c3.1,1.1,5.9,2.8,8.2,4.9,2.3,2.1,4.1,4.7,5.5,7.7,1.3,3,2,6.3,2,10s-.7,7-2,10c-1.3,3-3.2,5.5-5.5,7.7-2.3,2.1-5,3.8-8.2,4.9-3.1,1.1-6.5,1.7-10,1.7s-6.9-.6-10.1-1.7c-3.1-1.1-5.9-2.8-8.2-4.9-2.3-2.1-4.1-4.7-5.5-7.7-1.3-3-2-6.3-2-10h0ZM1857.3,1138.6c0,3.5,1,6.3,3,8.5,2,2.2,4.8,3.2,8.4,3.2s6.4-1.1,8.4-3.2c2-2.2,3-5,3-8.5s-1-6.3-3-8.5c-2-2.2-4.8-3.2-8.4-3.2s-6.4,1.1-8.4,3.2c-2,2.2-3,5-3,8.5h0Z"/>
  <path class="st11" d="M1902.8,1115.4h13.7v6.3h.2c.4-.9,1.1-1.8,1.9-2.7.8-.9,1.8-1.7,3-2.4,1.1-.7,2.4-1.3,3.9-1.7,1.5-.4,3-.7,4.8-.7,3.6,0,6.5.6,8.8,1.7,2.2,1.1,4,2.7,5.2,4.6,1.2,2,2.1,4.3,2.5,7,.4,2.7.7,5.6.7,8.7v25.5h-14.3v-22.7c0-1.3,0-2.7-.1-4.1,0-1.4-.4-2.7-.9-4-.5-1.2-1.2-2.2-2.2-3-1-.8-2.4-1.1-4.2-1.1s-3.3.3-4.5,1c-1.1.7-2,1.6-2.6,2.7-.6,1.1-1,2.4-1.2,3.8-.2,1.4-.3,2.9-.3,4.4v23.1h-14.3v-46.3h0Z"/>
  <path class="st11" d="M2031.6,1111.8c-1.5-1.8-3.3-3.1-5.4-4.1-2.1-1-4.6-1.4-7.4-1.4s-5.4.5-7.8,1.6c-2.4,1.1-4.4,2.6-6.2,4.5-1.7,1.9-3.1,4.2-4.1,6.9-1,2.7-1.5,5.6-1.5,8.7s.5,6.1,1.5,8.7c1,2.6,2.3,4.9,4.1,6.9,1.7,1.9,3.7,3.4,6,4.5,2.3,1.1,4.8,1.6,7.5,1.6s5.7-.6,8.1-1.9c2.4-1.3,4.3-3,5.8-5.3l12.4,9.2c-2.9,4-6.5,7-10.9,8.9-4.4,1.9-8.9,2.9-13.5,2.9s-10.1-.8-14.6-2.5c-4.4-1.7-8.3-4-11.5-7.1-3.2-3.1-5.8-6.8-7.6-11.2-1.8-4.4-2.7-9.3-2.7-14.7s.9-10.3,2.7-14.7c1.8-4.4,4.3-8.1,7.6-11.2,3.2-3.1,7.1-5.4,11.5-7.1,4.4-1.7,9.3-2.5,14.6-2.5s3.9.2,6,.5c2.1.3,4.1.9,6.1,1.7,2,.8,3.9,1.8,5.8,3,1.8,1.3,3.5,2.8,5,4.7l-11.4,9.3h0Z"/>
  <path class="st11" d="M2049.2,1138.6c0-3.7.7-7,2-10,1.3-3,3.2-5.5,5.5-7.7,2.3-2.1,5-3.8,8.2-4.9,3.1-1.1,6.5-1.7,10.1-1.7s6.9.6,10,1.7c3.1,1.1,5.9,2.8,8.2,4.9,2.3,2.1,4.1,4.7,5.5,7.7,1.3,3,2,6.3,2,10s-.7,7-2,10c-1.3,3-3.2,5.5-5.5,7.7-2.3,2.1-5,3.8-8.2,4.9-3.1,1.1-6.5,1.7-10,1.7s-6.9-.6-10.1-1.7c-3.1-1.1-5.9-2.8-8.2-4.9-2.3-2.1-4.1-4.7-5.5-7.7-1.3-3-2-6.3-2-10h0ZM2063.5,1138.6c0,3.5,1,6.3,3,8.5,2,2.2,4.8,3.2,8.4,3.2s6.4-1.1,8.4-3.2c2-2.2,3-5,3-8.5s-1-6.3-3-8.5c-2-2.2-4.8-3.2-8.4-3.2s-6.4,1.1-8.4,3.2c-2,2.2-3,5-3,8.5h0Z"/>
  <path class="st11" d="M2157.6,1161.7h-13.1v-6.1h-.2c-.6.8-1.3,1.7-2.2,2.5-.9.9-2,1.6-3.2,2.3-1.2.7-2.6,1.3-4.1,1.7-1.5.4-3,.7-4.6.7-3.4,0-6.5-.6-9.3-1.8-2.8-1.2-5.2-2.8-7.2-5-2-2.1-3.5-4.7-4.6-7.6-1.1-2.9-1.6-6.1-1.6-9.6s.5-6.3,1.5-9.3c1-3,2.4-5.6,4.2-7.9,1.8-2.3,4-4.1,6.6-5.5,2.6-1.4,5.6-2,8.9-2s5.8.5,8.3,1.4c2.6.9,4.7,2.5,6.3,4.7h.2v-30.7h14.3v72h0ZM2144.5,1138.6c0-3.5-1-6.3-3-8.5-2-2.2-4.8-3.2-8.4-3.2s-6.4,1.1-8.4,3.2c-2,2.2-3,5-3,8.5s1,6.3,3,8.5c2,2.2,4.8,3.2,8.4,3.2s6.4-1.1,8.4-3.2c2-2.2,3-5,3-8.5h0Z"/>
  <path class="st11" d="M2212.8,1153.7c-2.3,2.9-5.2,5.2-8.7,6.8-3.5,1.6-7.1,2.4-10.9,2.4s-6.9-.6-10-1.7c-3.1-1.1-5.9-2.8-8.2-4.9-2.3-2.1-4.1-4.7-5.5-7.7-1.3-3-2-6.3-2-10s.7-7,2-10c1.3-3,3.2-5.5,5.5-7.7,2.3-2.1,5-3.8,8.2-4.9,3.1-1.1,6.5-1.7,10-1.7s6.3.6,9,1.7c2.7,1.1,5,2.8,6.9,4.9,1.9,2.1,3.3,4.7,4.3,7.7,1,3,1.5,6.3,1.5,10v4.5h-33.1c.6,2.7,1.8,4.9,3.7,6.5,1.9,1.6,4.3,2.4,7,2.4s4.3-.5,6-1.6c1.6-1,3-2.4,4.2-4l10,7.3h0ZM2200.7,1133.3c0-2.4-.7-4.5-2.4-6.2-1.7-1.7-3.8-2.6-6.4-2.6s-3,.3-4.2.8c-1.2.5-2.2,1.2-3.1,2-.9.8-1.5,1.7-2,2.8-.5,1-.7,2.1-.8,3.3h18.9Z"/>
  <polygon class="st11" points="1193.8 1576.1 1455.1 1576.1 1455.1 1607.4 1193.8 1607.4 1193.8 1576.1 1193.8 1576.1"/>
  <polygon class="st11" points="1783.9 1576.1 2045.2 1576.1 2045.2 1607.4 1783.9 1607.4 1783.9 1576.1 1783.9 1576.1"/>
  <polygon class="st11" points="1489.9 1576.1 1751.2 1576.1 1751.2 1607.4 1489.9 1607.4 1489.9 1576.1 1489.9 1576.1"/>
  <polygon class="st11" points="2079.9 1576.1 2341.2 1576.1 2341.2 1607.4 2079.9 1607.4 2079.9 1576.1 2079.9 1576.1"/>
  <polygon class="st11" points="1348.4 1396 1408.5 1376.3 1422.3 1419.9 1362.1 1439.2 1400.3 1491.6 1362.1 1519.6 1323.5 1466.8 1286.3 1517.3 1249.1 1489.3 1287.7 1439.2 1226.6 1418.1 1241.3 1374.5 1301.5 1396 1301.5 1332.7 1348.4 1332.7 1348.4 1396 1348.4 1396"/>
  <polygon class="st11" points="1644.4 1396 1704.6 1376.3 1718.4 1419.9 1658.2 1439.2 1696.3 1491.6 1658.2 1519.6 1619.6 1466.8 1582.4 1517.3 1545.2 1489.3 1583.8 1439.2 1522.7 1418.1 1537.4 1374.5 1597.6 1396 1597.6 1332.7 1644.4 1332.7 1644.4 1396 1644.4 1396"/>
  <polygon class="st11" points="1938.4 1396 1998.6 1376.3 2012.4 1419.9 1952.2 1439.2 1990.3 1491.6 1952.2 1519.6 1913.6 1466.8 1876.4 1517.3 1839.2 1489.3 1877.8 1439.2 1816.7 1418.1 1831.4 1374.5 1891.5 1396 1891.5 1332.7 1938.4 1332.7 1938.4 1396 1938.4 1396"/>
  <polygon class="st11" points="2234.5 1396 2294.6 1376.3 2308.4 1419.9 2248.2 1439.2 2286.4 1491.6 2248.2 1519.6 2209.7 1466.8 2172.4 1517.3 2135.2 1489.3 2173.8 1439.2 2112.7 1418.1 2127.4 1374.5 2187.6 1396 2187.6 1332.7 2234.5 1332.7 2234.5 1396 2234.5 1396"/>
</svg>